<svg width="144" height="129" viewBox="0 0 144 129" fill="none" xmlns="http://www.w3.org/2000/svg">
<path d="M14.7148 114.279V107.169H16.9023C17.5273 107.169 18.0856 107.311 18.5771 107.594C19.0719 107.874 19.4577 108.275 19.7344 108.795C20.0111 109.313 20.1494 109.902 20.1494 110.563V110.89C20.1494 111.551 20.0127 112.138 19.7393 112.653C19.4691 113.167 19.0866 113.566 18.5918 113.849C18.097 114.132 17.5387 114.275 16.917 114.279H14.7148ZM16.1797 108.356V113.102H16.8877C17.4606 113.102 17.8984 112.915 18.2012 112.54C18.5039 112.166 18.6585 111.631 18.665 110.934V110.558C18.665 109.835 18.5153 109.288 18.2158 108.917C17.9163 108.543 17.4785 108.356 16.9023 108.356H16.1797ZM25.4961 111.198H22.6836V113.102H25.9844V114.279H21.2188V107.169H25.9746V108.356H22.6836V110.05H25.4961V111.198ZM29.4756 111.676H28.3086V114.279H26.8438V107.169H29.4854C30.3252 107.169 30.973 107.357 31.4287 107.731C31.8844 108.105 32.1123 108.634 32.1123 109.318C32.1123 109.803 32.0065 110.208 31.7949 110.534C31.5866 110.856 31.2692 111.113 30.8428 111.305L32.3809 114.21V114.279H30.8086L29.4756 111.676ZM28.3086 110.49H29.4902C29.8581 110.49 30.1429 110.397 30.3447 110.211C30.5465 110.023 30.6475 109.764 30.6475 109.435C30.6475 109.1 30.5514 108.836 30.3594 108.644C30.1706 108.452 29.8792 108.356 29.4854 108.356H28.3086V110.49ZM37.5078 111.198H34.6953V113.102H37.9961V114.279H33.2305V107.169H37.9863V108.356H34.6953V110.05H37.5078V111.198ZM44.4365 111.911C44.3812 112.676 44.098 113.278 43.5869 113.717C43.0791 114.157 42.4085 114.376 41.5752 114.376C40.6637 114.376 39.946 114.07 39.4219 113.458C38.901 112.843 38.6406 112 38.6406 110.929V110.495C38.6406 109.811 38.7611 109.209 39.002 108.688C39.2428 108.167 39.5863 107.768 40.0322 107.492C40.4814 107.212 41.0023 107.072 41.5947 107.072C42.415 107.072 43.0758 107.291 43.5771 107.731C44.0785 108.17 44.3682 108.787 44.4463 109.581H42.9814C42.9456 109.122 42.8171 108.79 42.5957 108.585C42.3776 108.377 42.0439 108.273 41.5947 108.273C41.1064 108.273 40.7402 108.449 40.4961 108.8C40.2552 109.149 40.1315 109.691 40.125 110.426V110.963C40.125 111.732 40.2406 112.293 40.4717 112.648C40.7061 113.003 41.0739 113.18 41.5752 113.18C42.0277 113.18 42.3646 113.078 42.5859 112.872C42.8105 112.664 42.9391 112.344 42.9717 111.911H44.4365ZM51.1846 114.279H49.7197V111.232H46.8633V114.279H45.3984V107.169H46.8633V110.05H49.7197V107.169H51.1846V114.279ZM58.3086 110.885C58.3086 111.585 58.1849 112.199 57.9375 112.726C57.6901 113.253 57.3353 113.66 56.873 113.947C56.4141 114.233 55.8867 114.376 55.291 114.376C54.7018 114.376 54.1761 114.235 53.7139 113.952C53.2516 113.668 52.8936 113.265 52.6396 112.741C52.3857 112.213 52.2572 111.608 52.2539 110.924V110.573C52.2539 109.873 52.3792 109.258 52.6299 108.727C52.8838 108.193 53.2402 107.785 53.6992 107.501C54.1615 107.215 54.6888 107.072 55.2812 107.072C55.8737 107.072 56.3994 107.215 56.8584 107.501C57.3206 107.785 57.6771 108.193 57.9277 108.727C58.1816 109.258 58.3086 109.871 58.3086 110.568V110.885ZM56.8242 110.563C56.8242 109.817 56.6908 109.251 56.4238 108.864C56.1569 108.476 55.776 108.283 55.2812 108.283C54.7897 108.283 54.4105 108.475 54.1436 108.859C53.8766 109.24 53.7415 109.8 53.7383 110.538V110.885C53.7383 111.611 53.8717 112.174 54.1387 112.575C54.4056 112.975 54.7897 113.175 55.291 113.175C55.7826 113.175 56.1602 112.983 56.4238 112.599C56.6875 112.212 56.821 111.649 56.8242 110.91V110.563ZM63.0596 112.413C63.0596 112.137 62.9619 111.925 62.7666 111.779C62.5713 111.629 62.2197 111.473 61.7119 111.31C61.2041 111.144 60.8021 110.981 60.5059 110.822C59.6986 110.386 59.2949 109.798 59.2949 109.059C59.2949 108.675 59.4023 108.333 59.6172 108.034C59.8353 107.731 60.1462 107.495 60.5498 107.326C60.9567 107.156 61.4124 107.072 61.917 107.072C62.4248 107.072 62.8773 107.164 63.2744 107.35C63.6715 107.532 63.9792 107.791 64.1973 108.126C64.4186 108.462 64.5293 108.843 64.5293 109.269H63.0645C63.0645 108.943 62.9619 108.691 62.7568 108.512C62.5518 108.33 62.2637 108.239 61.8926 108.239C61.5345 108.239 61.2562 108.315 61.0576 108.468C60.859 108.618 60.7598 108.816 60.7598 109.064C60.7598 109.295 60.8753 109.489 61.1064 109.645C61.3408 109.801 61.6842 109.948 62.1367 110.084C62.9701 110.335 63.5771 110.646 63.958 111.017C64.3389 111.388 64.5293 111.85 64.5293 112.404C64.5293 113.019 64.2965 113.502 63.8311 113.854C63.3656 114.202 62.7389 114.376 61.9512 114.376C61.4043 114.376 60.9062 114.277 60.457 114.079C60.0078 113.877 59.6644 113.602 59.4268 113.253C59.1924 112.905 59.0752 112.501 59.0752 112.042H60.5449C60.5449 112.827 61.0137 113.219 61.9512 113.219C62.2995 113.219 62.5713 113.149 62.7666 113.009C62.9619 112.866 63.0596 112.667 63.0596 112.413ZM70.6475 111.676H69.4805V114.279H68.0156V107.169H70.6572C71.4971 107.169 72.1449 107.357 72.6006 107.731C73.0563 108.105 73.2842 108.634 73.2842 109.318C73.2842 109.803 73.1784 110.208 72.9668 110.534C72.7585 110.856 72.4411 111.113 72.0146 111.305L73.5527 114.21V114.279H71.9805L70.6475 111.676ZM69.4805 110.49H70.6621C71.0299 110.49 71.3148 110.397 71.5166 110.211C71.7184 110.023 71.8193 109.764 71.8193 109.435C71.8193 109.1 71.7233 108.836 71.5312 108.644C71.3424 108.452 71.0511 108.356 70.6572 108.356H69.4805V110.49ZM78.6797 111.198H75.8672V113.102H79.168V114.279H74.4023V107.169H79.1582V108.356H75.8672V110.05H78.6797V111.198ZM83.7139 112.413C83.7139 112.137 83.6162 111.925 83.4209 111.779C83.2256 111.629 82.874 111.473 82.3662 111.31C81.8584 111.144 81.4564 110.981 81.1602 110.822C80.3529 110.386 79.9492 109.798 79.9492 109.059C79.9492 108.675 80.0566 108.333 80.2715 108.034C80.4896 107.731 80.8005 107.495 81.2041 107.326C81.611 107.156 82.0667 107.072 82.5713 107.072C83.0791 107.072 83.5316 107.164 83.9287 107.35C84.3258 107.532 84.6335 107.791 84.8516 108.126C85.0729 108.462 85.1836 108.843 85.1836 109.269H83.7188C83.7188 108.943 83.6162 108.691 83.4111 108.512C83.2061 108.33 82.918 108.239 82.5469 108.239C82.1888 108.239 81.9105 108.315 81.7119 108.468C81.5133 108.618 81.4141 108.816 81.4141 109.064C81.4141 109.295 81.5296 109.489 81.7607 109.645C81.9951 109.801 82.3385 109.948 82.791 110.084C83.6243 110.335 84.2314 110.646 84.6123 111.017C84.9932 111.388 85.1836 111.85 85.1836 112.404C85.1836 113.019 84.9508 113.502 84.4854 113.854C84.0199 114.202 83.3932 114.376 82.6055 114.376C82.0586 114.376 81.5605 114.277 81.1113 114.079C80.6621 113.877 80.3187 113.602 80.0811 113.253C79.8467 112.905 79.7295 112.501 79.7295 112.042H81.1992C81.1992 112.827 81.668 113.219 82.6055 113.219C82.9538 113.219 83.2256 113.149 83.4209 113.009C83.6162 112.866 83.7139 112.667 83.7139 112.413ZM90.457 111.198H87.6445V113.102H90.9453V114.279H86.1797V107.169H90.9355V108.356H87.6445V110.05H90.457V111.198ZM94.4365 111.676H93.2695V114.279H91.8047V107.169H94.4463C95.2861 107.169 95.9339 107.357 96.3896 107.731C96.8454 108.105 97.0732 108.634 97.0732 109.318C97.0732 109.803 96.9674 110.208 96.7559 110.534C96.5475 110.856 96.2301 111.113 95.8037 111.305L97.3418 114.21V114.279H95.7695L94.4365 111.676ZM93.2695 110.49H94.4512C94.819 110.49 95.1038 110.397 95.3057 110.211C95.5075 110.023 95.6084 109.764 95.6084 109.435C95.6084 109.1 95.5124 108.836 95.3203 108.644C95.1315 108.452 94.8402 108.356 94.4463 108.356H93.2695V110.49ZM100.721 112.516L102.332 107.169H103.963L101.487 114.279H99.959L97.4932 107.169H99.1191L100.721 112.516ZM108.279 112.814H105.711L105.223 114.279H103.665L106.312 107.169H107.669L110.33 114.279H108.772L108.279 112.814ZM106.106 111.627H107.884L106.99 108.966L106.106 111.627ZM110.994 114.279V107.169H113.182C113.807 107.169 114.365 107.311 114.856 107.594C115.351 107.874 115.737 108.275 116.014 108.795C116.29 109.313 116.429 109.902 116.429 110.563V110.89C116.429 111.551 116.292 112.138 116.019 112.653C115.748 113.167 115.366 113.566 114.871 113.849C114.376 114.132 113.818 114.275 113.196 114.279H110.994ZM112.459 108.356V113.102H113.167C113.74 113.102 114.178 112.915 114.48 112.54C114.783 112.166 114.938 111.631 114.944 110.934V110.558C114.944 109.835 114.795 109.288 114.495 108.917C114.196 108.543 113.758 108.356 113.182 108.356H112.459ZM123.338 110.885C123.338 111.585 123.214 112.199 122.967 112.726C122.719 113.253 122.365 113.66 121.902 113.947C121.443 114.233 120.916 114.376 120.32 114.376C119.731 114.376 119.205 114.235 118.743 113.952C118.281 113.668 117.923 113.265 117.669 112.741C117.415 112.213 117.286 111.608 117.283 110.924V110.573C117.283 109.873 117.409 109.258 117.659 108.727C117.913 108.193 118.27 107.785 118.729 107.501C119.191 107.215 119.718 107.072 120.311 107.072C120.903 107.072 121.429 107.215 121.888 107.501C122.35 107.785 122.706 108.193 122.957 108.727C123.211 109.258 123.338 109.871 123.338 110.568V110.885ZM121.854 110.563C121.854 109.817 121.72 109.251 121.453 108.864C121.186 108.476 120.805 108.283 120.311 108.283C119.819 108.283 119.44 108.475 119.173 108.859C118.906 109.24 118.771 109.8 118.768 110.538V110.885C118.768 111.611 118.901 112.174 119.168 112.575C119.435 112.975 119.819 113.175 120.32 113.175C120.812 113.175 121.189 112.983 121.453 112.599C121.717 112.212 121.85 111.649 121.854 110.91V110.563ZM128.089 112.413C128.089 112.137 127.991 111.925 127.796 111.779C127.601 111.629 127.249 111.473 126.741 111.31C126.233 111.144 125.831 110.981 125.535 110.822C124.728 110.386 124.324 109.798 124.324 109.059C124.324 108.675 124.432 108.333 124.646 108.034C124.865 107.731 125.175 107.495 125.579 107.326C125.986 107.156 126.442 107.072 126.946 107.072C127.454 107.072 127.907 107.164 128.304 107.35C128.701 107.532 129.008 107.791 129.227 108.126C129.448 108.462 129.559 108.843 129.559 109.269H128.094C128.094 108.943 127.991 108.691 127.786 108.512C127.581 108.33 127.293 108.239 126.922 108.239C126.564 108.239 126.285 108.315 126.087 108.468C125.888 108.618 125.789 108.816 125.789 109.064C125.789 109.295 125.905 109.489 126.136 109.645C126.37 109.801 126.714 109.948 127.166 110.084C127.999 110.335 128.606 110.646 128.987 111.017C129.368 111.388 129.559 111.85 129.559 112.404C129.559 113.019 129.326 113.502 128.86 113.854C128.395 114.202 127.768 114.376 126.98 114.376C126.434 114.376 125.936 114.277 125.486 114.079C125.037 113.877 124.694 113.602 124.456 113.253C124.222 112.905 124.104 112.501 124.104 112.042H125.574C125.574 112.827 126.043 113.219 126.98 113.219C127.329 113.219 127.601 113.149 127.796 113.009C127.991 112.866 128.089 112.667 128.089 112.413ZM37.9717 123.911C37.9163 124.676 37.6331 125.278 37.1221 125.717C36.6143 126.157 35.9437 126.376 35.1104 126.376C34.1989 126.376 33.4811 126.07 32.957 125.458C32.4362 124.843 32.1758 124 32.1758 122.929V122.495C32.1758 121.811 32.2962 121.209 32.5371 120.688C32.778 120.167 33.1214 119.768 33.5674 119.492C34.0166 119.212 34.5374 119.072 35.1299 119.072C35.9502 119.072 36.611 119.291 37.1123 119.731C37.6136 120.17 37.9033 120.787 37.9814 121.581H36.5166C36.4808 121.122 36.3522 120.79 36.1309 120.585C35.9128 120.377 35.5791 120.273 35.1299 120.273C34.6416 120.273 34.2754 120.449 34.0312 120.8C33.7904 121.149 33.6667 121.691 33.6602 122.426V122.963C33.6602 123.732 33.7757 124.293 34.0068 124.648C34.2412 125.003 34.609 125.18 35.1104 125.18C35.5628 125.18 35.8997 125.078 36.1211 124.872C36.3457 124.664 36.4743 124.344 36.5068 123.911H37.9717ZM44.7734 122.885C44.7734 123.585 44.6497 124.199 44.4023 124.726C44.1549 125.253 43.8001 125.66 43.3379 125.947C42.8789 126.233 42.3516 126.376 41.7559 126.376C41.1667 126.376 40.641 126.235 40.1787 125.952C39.7165 125.668 39.3584 125.265 39.1045 124.741C38.8506 124.213 38.722 123.608 38.7188 122.924V122.573C38.7188 121.873 38.8441 121.258 39.0947 120.727C39.3486 120.193 39.7051 119.785 40.1641 119.501C40.6263 119.215 41.1536 119.072 41.7461 119.072C42.3385 119.072 42.8643 119.215 43.3232 119.501C43.7855 119.785 44.1419 120.193 44.3926 120.727C44.6465 121.258 44.7734 121.871 44.7734 122.568V122.885ZM43.2891 122.563C43.2891 121.817 43.1556 121.251 42.8887 120.864C42.6217 120.476 42.2409 120.283 41.7461 120.283C41.2546 120.283 40.8753 120.475 40.6084 120.859C40.3415 121.24 40.2064 121.8 40.2031 122.538V122.885C40.2031 123.611 40.3366 124.174 40.6035 124.575C40.8704 124.975 41.2546 125.175 41.7559 125.175C42.2474 125.175 42.625 124.983 42.8887 124.599C43.1523 124.212 43.2858 123.649 43.2891 122.91V122.563ZM47.3027 123.774V126.279H45.8379V119.169H48.6113C49.1452 119.169 49.6139 119.267 50.0176 119.462C50.4245 119.658 50.737 119.936 50.9551 120.297C51.1732 120.655 51.2822 121.064 51.2822 121.523C51.2822 122.219 51.043 122.77 50.5645 123.173C50.0892 123.574 49.43 123.774 48.5869 123.774H47.3027ZM47.3027 122.587H48.6113C48.9987 122.587 49.2933 122.496 49.4951 122.314C49.7002 122.132 49.8027 121.871 49.8027 121.533C49.8027 121.184 49.7002 120.903 49.4951 120.688C49.29 120.473 49.0068 120.362 48.6455 120.356H47.3027V122.587ZM54.7441 122.372L56.2236 119.169H57.8252L55.4912 123.701V126.279H54.002V123.701L51.668 119.169H53.2744L54.7441 122.372ZM61.1064 123.676H59.9395V126.279H58.4746V119.169H61.1162C61.9561 119.169 62.6038 119.357 63.0596 119.731C63.5153 120.105 63.7432 120.634 63.7432 121.318C63.7432 121.803 63.6374 122.208 63.4258 122.534C63.2174 122.856 62.9001 123.113 62.4736 123.305L64.0117 126.21V126.279H62.4395L61.1064 123.676ZM59.9395 122.49H61.1211C61.4889 122.49 61.7738 122.397 61.9756 122.211C62.1774 122.023 62.2783 121.764 62.2783 121.435C62.2783 121.1 62.1823 120.836 61.9902 120.644C61.8014 120.452 61.5101 120.356 61.1162 120.356H59.9395V122.49ZM66.4189 126.279H64.9541V119.169H66.4189V126.279ZM73.4062 125.38C73.1426 125.696 72.7699 125.942 72.2881 126.118C71.8063 126.29 71.2725 126.376 70.6865 126.376C70.0713 126.376 69.5309 126.243 69.0654 125.976C68.6032 125.706 68.2451 125.315 67.9912 124.804C67.7406 124.293 67.612 123.692 67.6055 123.002V122.519C67.6055 121.809 67.7243 121.196 67.9619 120.678C68.2028 120.157 68.5479 119.76 68.9971 119.487C69.4495 119.21 69.9785 119.072 70.584 119.072C71.4271 119.072 72.0863 119.274 72.5615 119.677C73.0368 120.078 73.3184 120.662 73.4062 121.43H71.9805C71.9154 121.023 71.7705 120.725 71.5459 120.537C71.3245 120.348 71.0186 120.253 70.6279 120.253C70.1299 120.253 69.7507 120.441 69.4902 120.815C69.2298 121.189 69.098 121.746 69.0947 122.485V122.939C69.0947 123.684 69.2363 124.247 69.5195 124.628C69.8027 125.009 70.2178 125.2 70.7646 125.2C71.3148 125.2 71.707 125.082 71.9414 124.848V123.622H70.6084V122.543H73.4062V125.38ZM80.3838 126.279H78.9189V123.232H76.0625V126.279H74.5977V119.169H76.0625V122.05H78.9189V119.169H80.3838V126.279ZM86.873 120.356H84.6953V126.279H83.2305V120.356H81.082V119.169H86.873V120.356ZM94.6318 126.279H89.7588V125.312L92.0586 122.861C92.3743 122.516 92.6071 122.215 92.7568 121.957C92.9098 121.7 92.9863 121.456 92.9863 121.225C92.9863 120.909 92.9066 120.662 92.7471 120.483C92.5876 120.301 92.3597 120.209 92.0635 120.209C91.7445 120.209 91.4922 120.32 91.3066 120.541C91.1243 120.76 91.0332 121.048 91.0332 121.406H89.6172C89.6172 120.973 89.7197 120.577 89.9248 120.219C90.1331 119.861 90.4261 119.581 90.8037 119.379C91.1813 119.174 91.6094 119.072 92.0879 119.072C92.8203 119.072 93.3883 119.247 93.792 119.599C94.1989 119.951 94.4023 120.447 94.4023 121.088C94.4023 121.44 94.3112 121.798 94.1289 122.163C93.9466 122.527 93.6341 122.952 93.1914 123.437L91.5752 125.141H94.6318V126.279ZM100.286 123.339C100.286 124.322 100.083 125.074 99.6758 125.595C99.2689 126.116 98.6732 126.376 97.8887 126.376C97.1139 126.376 96.5215 126.121 96.1113 125.61C95.7012 125.099 95.4912 124.366 95.4814 123.413V122.104C95.4814 121.111 95.6865 120.358 96.0967 119.843C96.5101 119.329 97.1042 119.072 97.8789 119.072C98.6536 119.072 99.2461 119.327 99.6562 119.838C100.066 120.346 100.276 121.077 100.286 122.031V123.339ZM98.875 121.904C98.875 121.315 98.7936 120.886 98.6309 120.62C98.4714 120.349 98.2207 120.214 97.8789 120.214C97.5469 120.214 97.3011 120.343 97.1416 120.6C96.9854 120.854 96.9023 121.253 96.8926 121.796V123.525C96.8926 124.104 96.9707 124.536 97.127 124.819C97.2865 125.099 97.5404 125.239 97.8887 125.239C98.2337 125.239 98.4827 125.104 98.6357 124.833C98.7887 124.563 98.8685 124.15 98.875 123.593V121.904ZM106.116 126.279H101.243V125.312L103.543 122.861C103.859 122.516 104.091 122.215 104.241 121.957C104.394 121.7 104.471 121.456 104.471 121.225C104.471 120.909 104.391 120.662 104.231 120.483C104.072 120.301 103.844 120.209 103.548 120.209C103.229 120.209 102.977 120.32 102.791 120.541C102.609 120.76 102.518 121.048 102.518 121.406H101.102C101.102 120.973 101.204 120.577 101.409 120.219C101.618 119.861 101.91 119.581 102.288 119.379C102.666 119.174 103.094 119.072 103.572 119.072C104.305 119.072 104.873 119.247 105.276 119.599C105.683 119.951 105.887 120.447 105.887 121.088C105.887 121.44 105.796 121.798 105.613 122.163C105.431 122.527 105.118 122.952 104.676 123.437L103.06 125.141H106.116V126.279ZM111.771 123.339C111.771 124.322 111.567 125.074 111.16 125.595C110.753 126.116 110.158 126.376 109.373 126.376C108.598 126.376 108.006 126.121 107.596 125.61C107.186 125.099 106.976 124.366 106.966 123.413V122.104C106.966 121.111 107.171 120.358 107.581 119.843C107.994 119.329 108.589 119.072 109.363 119.072C110.138 119.072 110.73 119.327 111.141 119.838C111.551 120.346 111.761 121.077 111.771 122.031V123.339ZM110.359 121.904C110.359 121.315 110.278 120.886 110.115 120.62C109.956 120.349 109.705 120.214 109.363 120.214C109.031 120.214 108.785 120.343 108.626 120.6C108.47 120.854 108.387 121.253 108.377 121.796V123.525C108.377 124.104 108.455 124.536 108.611 124.819C108.771 125.099 109.025 125.239 109.373 125.239C109.718 125.239 109.967 125.104 110.12 124.833C110.273 124.563 110.353 124.15 110.359 123.593V121.904Z" fill="#FDFDFD"/>
<path d="M71.582 83.2653L68.4375 83.2653C62.832 83.2653 58.2617 78.9173 58.2617 73.5429L58.2617 54.5274C58.2617 49.1717 62.8125 44.805 68.4375 44.805L71.582 44.805C77.1875 44.805 81.7578 49.153 81.7578 54.5274L81.7578 73.5429C81.7383 78.9173 77.1875 83.2653 71.582 83.2653Z" fill="#E2B291"/>
<path d="M118.184 94.4245C114.004 80.4661 99.8437 69.1016 81.7383 65.3507L81.7383 65.556C81.7383 67.8886 70.0586 81.8284 70.0586 81.8284C70.0586 81.8284 58.2422 67.9073 58.2422 65.556L58.2422 65.3507C40.1562 69.1016 25.9961 80.4661 21.8164 94.4245L118.184 94.4245Z" fill="#CCCCCC"/>
<path d="M74.4141 94.4245C73.2227 91.2522 71.4453 86.4376 71.582 86.2883L67.9102 86.2883C68.0664 86.4376 66.2305 91.2522 65 94.4245L74.4141 94.4245Z" fill="#0F0F6D"/>
<path d="M70 87.464C72.7183 87.464 74.9219 86.1857 74.9219 84.6088C74.9219 83.032 72.7183 81.7537 70 81.7537C67.2817 81.7537 65.0781 83.032 65.0781 84.6088C65.0781 86.1857 67.2817 87.464 70 87.464Z" fill="#18157C"/>
<path d="M81.7383 65.3507C81.7383 65.3507 82.1484 66.9183 70.0586 81.8097C70.0586 81.8097 77.1875 82.1643 85.7031 86.2883C85.7227 86.2883 90.4883 69.2882 81.7383 65.3507Z" fill="white"/>
<path d="M58.2617 65.3507C58.2617 65.3507 57.9883 66.9183 70.0781 81.8097C70.0781 81.8097 62.8125 82.1643 54.2969 86.2883C54.2773 86.2883 49.5117 69.2882 58.2617 65.3507Z" fill="white"/>
<path d="M96.4061 41.0313C99.853 41.7471 103.487 38.6371 104.522 34.0849C105.558 29.5328 103.603 25.2622 100.156 24.5464C96.7095 23.8306 93.0757 26.9406 92.0401 31.4927C91.0045 36.0449 92.9593 40.3155 96.4061 41.0313Z" fill="#F4C5A2"/>
<path d="M39.8605 24.5264C36.4136 25.2423 34.4589 29.5128 35.4945 34.065C36.53 38.6172 40.1638 41.7272 43.6106 41.0113C47.0575 40.2955 49.0122 36.025 47.9767 31.4728C46.9411 26.9206 43.3073 23.8106 39.8605 24.5264Z" fill="#F4C5A2"/>
<path d="M70.0781 62.2903C85.2336 62.2903 97.5195 48.5968 97.5195 31.705C97.5195 14.8132 85.2336 1.11966 70.0781 1.11966C54.9227 1.11966 42.6367 14.8132 42.6367 31.705C42.6367 48.5968 54.9227 62.2903 70.0781 62.2903Z" fill="#F4C5A2"/>
<path d="M96.1719 41.0168L93.9844 41.0728C90.5078 46.2792 84.5703 46.0739 84.5703 46.0739C82.8516 46.2232 79.1406 43.2375 79.1406 43.2375C74.668 40.8489 70.8594 42.6963 70.0391 43.1442C69.2383 42.6963 65.4102 40.8489 60.9375 43.2375C60.9375 43.2375 57.2266 46.2232 55.5078 46.0739C55.5078 46.0739 49.5703 46.2792 46.0938 41.0728L43.9258 41.0168C47.4609 53.3517 57.832 62.2903 70.0586 62.2903C82.2266 62.2903 92.5586 53.445 96.1328 41.2221L96.1719 41.0168ZM70.5273 55.4231C70.3711 55.4044 70.2148 55.3858 70.0586 55.3671C69.9023 55.3858 69.7461 55.4044 69.5898 55.4231C62.4414 54.9752 62.1289 49.8435 62.5195 46.7084C62.2461 46.3539 62.6758 45.906 63.0664 46.1486C64.668 47.1563 67.1484 48.3319 69.9219 48.3319C69.9609 48.3319 70.0195 48.3319 70.0586 48.3319C70.0977 48.3319 70.1563 48.3319 70.1953 48.3319C72.9688 48.3319 75.4492 47.1563 77.0508 46.1486C77.4414 45.906 77.8711 46.3539 77.5977 46.7084C77.9883 49.8248 77.6953 54.9752 70.5273 55.4231Z" fill="#3F2820"/>
<path d="M58.7767 27.4275C54.8256 27.4918 51.6576 30.3763 51.7143 33.8578C51.7711 37.3392 55.0313 40.119 58.9824 40.0546C62.9335 39.9902 66.1014 37.1058 66.0447 33.6243C66.0275 32.569 65.6881 31.5948 65.1518 30.7284L70.2579 26.3924L75.0714 30.4965C74.5393 31.3965 74.2159 32.4068 74.2335 33.4909C74.2902 36.9724 77.5505 39.7521 81.5016 39.6877C85.4527 39.6234 88.6206 36.7389 88.5639 33.2574C88.5072 29.776 85.2469 26.9963 81.2959 27.0606C80.0655 27.0807 78.9301 27.3987 77.9266 27.8986L73.2169 23.8812L84.4087 14.3794C85.5447 13.3451 86.1692 11.9582 86.1458 10.5241L86.0612 5.33076L62.927 28.5327C61.7441 27.8194 60.3182 27.4024 58.7767 27.4275ZM61.9503 33.691C61.9746 35.1828 60.6167 36.4193 58.9236 36.4468C57.2306 36.4744 55.833 35.2829 55.8087 33.7911C55.7844 32.2993 57.1424 31.0628 58.8355 31.0352C60.5285 31.0076 61.926 32.1992 61.9503 33.691ZM84.4695 33.3241C84.4938 34.816 83.1358 36.0524 81.4428 36.08C79.7498 36.1076 78.3522 34.916 78.3279 33.4242C78.3036 31.9324 79.6616 30.6959 81.3546 30.6684C83.0477 30.6408 84.4452 31.8323 84.4695 33.3241Z" fill="#806060"/>
<path d="M55.2525 14.8544L64.3977 21.3942L67.2509 18.7963L53.3061 5.86437L53.3907 11.0577C53.414 12.4918 54.0834 13.8576 55.2525 14.8544Z" fill="black"/>
</svg>
