<svg width="360" height="401" viewBox="0 0 360 401" fill="none" xmlns="http://www.w3.org/2000/svg">
<g clip-path="url(#clip0)" filter="url(#filter0_d)">
<path d="M17.878 339.418C16.9561 344.373 17.8629 350.078 19.8995 352.138C21.9361 354.197 24.3427 351.842 25.2646 346.888C26.1865 341.933 25.2797 336.228 23.2431 334.168C22.6258 333.544 21.9773 333.37 21.3438 333.507L20.0641 324.503L23.6173 321.026C24.0111 322.238 24.5196 323.259 25.1538 323.9C27.1903 325.96 29.597 323.605 30.5189 318.65C31.4407 313.696 30.534 307.99 28.4974 305.931C26.4608 303.871 24.0541 306.226 23.1322 311.181C22.8452 312.724 22.7543 314.331 22.8011 315.885L19.3235 319.285L16.5199 299.55C16.1947 297.504 15.5405 295.879 14.7016 295.03L11.6636 291.958L19.5278 334.932C18.8262 335.967 18.2377 337.485 17.878 339.418ZM22.2878 339.302C23.1605 340.185 23.5492 342.631 23.1542 344.754C22.7591 346.877 21.7275 347.886 20.8548 347.004C19.9822 346.121 19.5934 343.675 19.9885 341.552C20.3835 339.429 21.4151 338.42 22.2878 339.302ZM27.542 311.065C28.4147 311.948 28.8034 314.393 28.4084 316.516C28.0134 318.639 26.9817 319.649 26.1091 318.766C25.2364 317.884 24.8477 315.438 25.2427 313.315C25.6377 311.192 26.6694 310.183 27.542 311.065Z" fill="#E6DADA" fill-opacity="0.51"/>
<path d="M9.71712 336.11L15.7372 328.734L14.9206 323.596L4.0211 333.031L7.05911 336.103C7.89802 336.951 8.8541 336.954 9.71712 336.11Z" fill="#E6DADA" fill-opacity="0.51"/>
</g>
<g clip-path="url(#clip1)" filter="url(#filter1_d)">
<path d="M228.494 223.421C229.353 228.436 231.729 230.954 233.791 229.034C235.852 227.114 236.83 221.473 235.971 216.458C235.112 211.443 232.736 208.925 230.674 210.845C230.049 211.427 229.54 212.377 229.135 213.522L225.492 209.298L226.936 200.969C227.582 201.171 228.251 201.048 228.893 200.451C230.955 198.531 231.933 192.889 231.073 187.874C230.214 182.859 227.838 180.341 225.776 182.261C223.715 184.181 222.737 189.822 223.596 194.837C223.864 196.399 224.289 197.681 224.795 198.698L223.381 206.849L215.397 197.588C214.545 196.685 213.589 196.623 212.74 197.414L209.665 200.278L228.29 217.531C228.111 219.421 228.159 221.464 228.494 223.421ZM231.565 216.042C232.448 215.219 233.466 216.298 233.835 218.447C234.203 220.596 233.784 223.014 232.9 223.837C232.017 224.66 230.998 223.58 230.63 221.431C230.262 219.282 230.681 216.864 231.565 216.042ZM226.667 187.458C227.55 186.636 228.569 187.715 228.937 189.864C229.305 192.013 228.886 194.431 228.002 195.254C227.119 196.076 226.101 194.997 225.732 192.848C225.364 190.699 225.783 188.281 226.667 187.458Z" fill="#E6DADA" fill-opacity="0.51"/>
<path d="M221.739 234.596L223.733 219.439L221.593 217.171L216.789 241.854L219.864 238.99C220.714 238.199 221.388 236.619 221.739 234.596Z" fill="#E6DADA" fill-opacity="0.51"/>
</g>
<g clip-path="url(#clip2)" filter="url(#filter2_d)">
<path d="M20.7514 85.5493C19.096 81.7715 16.4861 81.7067 14.9332 85.4048C13.3802 89.103 13.4635 95.1845 15.1189 98.9623C16.7743 102.74 19.3842 102.805 20.9372 99.1068C21.4079 97.9859 21.7093 96.6361 21.8808 95.2076L25.9457 95.6397L26.0687 104.619C25.4422 105.043 24.8516 105.785 24.368 106.937C22.8151 110.635 22.8984 116.716 24.5538 120.494C26.2092 124.272 28.8191 124.337 30.3721 120.638C31.925 116.94 31.8417 110.859 30.1863 107.081C29.6708 105.905 29.0595 105.132 28.4201 104.679L28.3005 95.8917L37.2091 96.8409C38.145 96.8642 39.03 96.0207 39.6697 94.4973L41.9862 88.9808L21.9593 90.7449C21.7953 88.8473 21.3973 87.0232 20.7514 85.5493ZM19.2217 95.192C18.5563 96.7766 17.4375 96.7488 16.7282 95.13C16.0189 93.5113 15.9832 90.9043 16.6486 89.3197C17.314 87.735 18.4328 87.7628 19.1421 89.3816C19.8515 91.0004 19.8872 93.6073 19.2217 95.192ZM28.6566 116.724C27.9912 118.308 26.8724 118.281 26.1631 116.662C25.4538 115.043 25.418 112.436 26.0835 110.851C26.7489 109.267 27.8677 109.294 28.577 110.913C29.2863 112.532 29.3221 115.139 28.6566 116.724Z" fill="#E6DADA" fill-opacity="0.51"/>
<path d="M24.9935 68.9633L25.7967 84.7065L28.1472 84.7649L28.2627 57.662L25.9462 63.1786C25.3065 64.7019 24.9636 66.7825 24.9935 68.9633Z" fill="#E6DADA" fill-opacity="0.51"/>
</g>
<g clip-path="url(#clip3)" filter="url(#filter3_d)">
<path d="M104.842 306.201C102.997 302.933 100.404 303.626 99.0609 307.746C97.7174 311.866 98.1248 317.876 99.969 321.144C101.813 324.412 104.406 323.719 105.75 319.599C106.157 318.351 106.384 316.924 106.478 315.457L110.534 314.706L111.136 323.58C110.537 324.182 109.99 325.09 109.572 326.373C108.228 330.493 108.636 336.503 110.48 339.771C112.324 343.039 114.917 342.346 116.261 338.226C117.604 334.106 117.197 328.096 115.353 324.828C114.778 323.81 114.131 323.222 113.472 322.957L112.884 314.273L121.774 312.63C122.704 312.382 123.537 311.288 124.09 309.591L126.094 303.445L106.317 311.006C106.053 309.171 105.561 307.476 104.842 306.201ZM103.839 316.213C103.263 317.978 102.151 318.275 101.361 316.875C100.571 315.474 100.396 312.898 100.972 311.133C101.548 309.367 102.659 309.07 103.449 310.471C104.24 311.871 104.414 314.447 103.839 316.213ZM114.35 334.84C113.774 336.605 112.662 336.902 111.872 335.502C111.082 334.101 110.907 331.525 111.483 329.76C112.059 327.994 113.17 327.697 113.96 329.098C114.751 330.498 114.925 333.074 114.35 334.84Z" fill="#E6DADA" fill-opacity="0.51"/>
<path d="M108.165 288.513L109.803 303.901L112.138 303.277L110.806 276.351L108.802 282.497C108.248 284.194 108.019 286.358 108.165 288.513Z" fill="#E6DADA" fill-opacity="0.51"/>
</g>
<g clip-path="url(#clip4)" filter="url(#filter4_d)">
<path d="M264.257 342.819C266.198 339.872 266.792 333.947 265.58 329.61C264.369 325.274 261.804 324.144 259.863 327.091C257.922 330.038 257.328 335.963 258.54 340.3C258.907 341.614 259.407 342.593 259.967 343.293L258.904 352.45L255.118 350.781C255.076 349.264 254.894 347.758 254.516 346.408C253.305 342.071 250.74 340.941 248.799 343.889C246.858 346.836 246.264 352.761 247.476 357.098C248.687 361.434 251.252 362.564 253.193 359.617C253.798 358.699 254.254 357.476 254.582 356.119L258.288 357.754L255.957 377.821C255.744 379.946 255.905 382.143 256.404 383.929L258.211 390.398L261.819 344.441C262.649 344.479 263.5 343.969 264.257 342.819ZM260.551 337.246C260.032 335.387 260.286 332.848 261.118 331.585C261.95 330.322 263.049 330.806 263.568 332.665C264.088 334.523 263.833 337.063 263.001 338.326C262.17 339.588 261.07 339.104 260.551 337.246ZM249.487 354.043C248.968 352.185 249.223 349.645 250.055 348.382C250.886 347.12 251.986 347.604 252.505 349.462C253.024 351.32 252.77 353.86 251.938 355.123C251.106 356.386 250.007 355.902 249.487 354.043Z" fill="#E6DADA" fill-opacity="0.51"/>
<path d="M270.281 356.073L263.515 354.484L262.98 359.82L274.304 365.965L272.497 359.496C271.998 357.71 271.201 356.478 270.281 356.073Z" fill="#E6DADA" fill-opacity="0.51"/>
</g>
<g clip-path="url(#clip5)" filter="url(#filter5_d)">
<path d="M348.952 198.63C351.154 200.39 353.515 197.849 354.216 192.965C354.917 188.081 353.696 182.677 351.494 180.917C349.292 179.157 346.93 181.698 346.229 186.582C346.017 188.062 346 189.58 346.115 191.04L342.374 194.699L340.571 186.72C341.055 185.713 341.447 184.455 341.665 182.934C342.366 178.05 341.145 172.645 338.943 170.885C336.741 169.125 334.379 171.666 333.678 176.55C332.977 181.434 334.199 186.839 336.401 188.599C337.086 189.147 337.782 189.235 338.443 189.007L340.207 196.817L332.009 204.834C331.162 205.746 330.524 207.388 330.236 209.4L329.19 216.685L346.885 195.145C347.39 196.694 348.092 197.944 348.952 198.63ZM348.511 188.406C348.812 186.313 349.824 185.224 350.768 185.978C351.711 186.732 352.235 189.049 351.934 191.141C351.634 193.234 350.622 194.324 349.678 193.569C348.734 192.815 348.211 190.498 348.511 188.406ZM335.96 178.374C336.261 176.281 337.273 175.192 338.217 175.946C339.16 176.701 339.684 179.017 339.383 181.11C339.083 183.203 338.071 184.292 337.127 183.538C336.183 182.784 335.66 180.467 335.96 178.374Z" fill="#E6DADA" fill-opacity="0.51"/>
<path d="M348.259 217.822L344.569 204.416L342.442 206.705L347.446 231.277L348.491 223.991C348.78 221.979 348.697 219.76 348.259 217.822Z" fill="#E6DADA" fill-opacity="0.51"/>
</g>
<g clip-path="url(#clip6)" filter="url(#filter6_d)">
<path d="M322.232 29.838C323.632 25.5849 323.28 19.6894 321.447 16.6952C319.614 13.701 316.983 14.725 315.583 18.978C314.183 23.2311 314.535 29.1266 316.368 32.1208C316.924 33.0284 317.554 33.5226 318.2 33.7131L318.604 42.9407L314.721 44.4526C314.445 43.0978 314.037 41.8679 313.466 40.9355C311.633 37.9412 309.003 38.9653 307.603 43.2183C306.202 47.4714 306.554 53.3669 308.387 56.3611C310.22 59.3553 312.851 58.3313 314.251 54.0782C314.687 52.7538 314.933 51.2689 315.037 49.7645L318.838 48.2867L319.723 68.5103C319.849 70.6244 320.345 72.5045 321.1 73.7379L323.834 78.2044L320.15 33.2765C320.951 32.6459 321.685 31.4973 322.232 29.838ZM317.819 27.7135C317.034 26.4305 316.883 23.9033 317.483 22.0809C318.083 20.2585 319.21 19.8195 319.996 21.1025C320.781 22.3855 320.932 24.9127 320.332 26.7351C319.732 28.5576 318.605 28.9965 317.819 27.7135ZM309.838 51.9538C309.053 50.6708 308.902 48.1436 309.502 46.3212C310.102 44.4987 311.229 44.0598 312.015 45.3428C312.8 46.6258 312.951 49.153 312.351 50.9754C311.751 52.7978 310.624 53.2368 309.838 51.9538Z" fill="#E6DADA" fill-opacity="0.51"/>
<path d="M330.056 37.1257L323.333 41.1016L323.65 46.4113L335.442 42.9458L332.708 38.4793C331.953 37.2459 330.999 36.7585 330.056 37.1257Z" fill="#E6DADA" fill-opacity="0.51"/>
</g>
<g clip-path="url(#clip7)" filter="url(#filter7_d)">
<path d="M187.354 53.6762C189.271 56.7072 191.844 55.6886 193.09 51.4053C194.336 47.1221 193.79 41.1722 191.873 38.1412C189.956 35.1102 187.383 36.1288 186.137 40.412C185.759 41.7103 185.565 43.1635 185.506 44.6404L181.473 45.9011L180.666 37.1164C181.25 36.4394 181.775 35.4639 182.163 34.1301C183.409 29.8469 182.863 23.897 180.945 20.866C179.028 17.835 176.455 18.8536 175.209 23.1368C173.963 27.4201 174.509 33.37 176.426 36.401C177.024 37.3449 177.684 37.8512 178.348 38.0323L179.136 46.6297L170.297 49.3903C169.374 49.7556 168.568 50.9527 168.055 52.717L166.196 59.1064L185.769 49.0645C186.075 50.8638 186.606 52.4937 187.354 53.6762ZM188.123 43.553C188.657 41.7176 189.76 41.281 190.582 42.5798C191.403 43.8785 191.638 46.429 191.104 48.2644C190.57 50.0998 189.467 50.5364 188.645 49.2376C187.824 47.9389 187.589 45.3883 188.123 43.553ZM177.196 26.2778C177.73 24.4424 178.833 24.0058 179.654 25.3046C180.476 26.6033 180.71 29.1538 180.176 30.9892C179.642 32.8246 178.539 33.2612 177.718 31.9624C176.896 30.6637 176.662 28.1131 177.196 26.2778Z" fill="#E6DADA" fill-opacity="0.51"/>
<path d="M184.445 71.757L182.454 56.598L180.136 57.5154L182.091 84.2339L183.949 77.8446C184.463 76.0802 184.641 73.8906 184.445 71.757Z" fill="#E6DADA" fill-opacity="0.51"/>
</g>
<defs>
<filter id="filter0_d" x="-4" y="279.556" width="44.7893" height="95.2192" filterUnits="userSpaceOnUse" color-interpolation-filters="sRGB">
<feFlood flood-opacity="0" result="BackgroundImageFix"/>
<feColorMatrix in="SourceAlpha" type="matrix" values="0 0 0 0 0 0 0 0 0 0 0 0 0 0 0 0 0 0 127 0"/>
<feOffset dy="4"/>
<feGaussianBlur stdDeviation="2"/>
<feColorMatrix type="matrix" values="0 0 0 0 0 0 0 0 0 0 0 0 0 0 0 0 0 0 0.25 0"/>
<feBlend mode="normal" in2="BackgroundImageFix" result="effect1_dropShadow"/>
<feBlend mode="normal" in="SourceGraphic" in2="effect1_dropShadow" result="shape"/>
</filter>
<filter id="filter1_d" x="201.748" y="168" width="44.3222" height="94.2372" filterUnits="userSpaceOnUse" color-interpolation-filters="sRGB">
<feFlood flood-opacity="0" result="BackgroundImageFix"/>
<feColorMatrix in="SourceAlpha" type="matrix" values="0 0 0 0 0 0 0 0 0 0 0 0 0 0 0 0 0 0 127 0"/>
<feOffset dy="4"/>
<feGaussianBlur stdDeviation="2"/>
<feColorMatrix type="matrix" values="0 0 0 0 0 0 0 0 0 0 0 0 0 0 0 0 0 0 0.25 0"/>
<feBlend mode="normal" in2="BackgroundImageFix" result="effect1_dropShadow"/>
<feBlend mode="normal" in="SourceGraphic" in2="effect1_dropShadow" result="shape"/>
</filter>
<filter id="filter2_d" x="3.12988" y="46" width="47.8965" height="100.966" filterUnits="userSpaceOnUse" color-interpolation-filters="sRGB">
<feFlood flood-opacity="0" result="BackgroundImageFix"/>
<feColorMatrix in="SourceAlpha" type="matrix" values="0 0 0 0 0 0 0 0 0 0 0 0 0 0 0 0 0 0 127 0"/>
<feOffset dy="4"/>
<feGaussianBlur stdDeviation="2"/>
<feColorMatrix type="matrix" values="0 0 0 0 0 0 0 0 0 0 0 0 0 0 0 0 0 0 0.25 0"/>
<feBlend mode="normal" in2="BackgroundImageFix" result="effect1_dropShadow"/>
<feBlend mode="normal" in="SourceGraphic" in2="effect1_dropShadow" result="shape"/>
</filter>
<filter id="filter3_d" x="87.6697" y="265.309" width="47.6392" height="99.8733" filterUnits="userSpaceOnUse" color-interpolation-filters="sRGB">
<feFlood flood-opacity="0" result="BackgroundImageFix"/>
<feColorMatrix in="SourceAlpha" type="matrix" values="0 0 0 0 0 0 0 0 0 0 0 0 0 0 0 0 0 0 127 0"/>
<feOffset dy="4"/>
<feGaussianBlur stdDeviation="2"/>
<feColorMatrix type="matrix" values="0 0 0 0 0 0 0 0 0 0 0 0 0 0 0 0 0 0 0.25 0"/>
<feBlend mode="normal" in2="BackgroundImageFix" result="effect1_dropShadow"/>
<feBlend mode="normal" in="SourceGraphic" in2="effect1_dropShadow" result="shape"/>
</filter>
<filter id="filter4_d" x="236.378" y="310.424" width="47.2044" height="98.5761" filterUnits="userSpaceOnUse" color-interpolation-filters="sRGB">
<feFlood flood-opacity="0" result="BackgroundImageFix"/>
<feColorMatrix in="SourceAlpha" type="matrix" values="0 0 0 0 0 0 0 0 0 0 0 0 0 0 0 0 0 0 127 0"/>
<feOffset dy="4"/>
<feGaussianBlur stdDeviation="2"/>
<feColorMatrix type="matrix" values="0 0 0 0 0 0 0 0 0 0 0 0 0 0 0 0 0 0 0.25 0"/>
<feBlend mode="normal" in2="BackgroundImageFix" result="effect1_dropShadow"/>
<feBlend mode="normal" in="SourceGraphic" in2="effect1_dropShadow" result="shape"/>
</filter>
<filter id="filter5_d" x="319.9" y="157.366" width="44.1004" height="90.6193" filterUnits="userSpaceOnUse" color-interpolation-filters="sRGB">
<feFlood flood-opacity="0" result="BackgroundImageFix"/>
<feColorMatrix in="SourceAlpha" type="matrix" values="0 0 0 0 0 0 0 0 0 0 0 0 0 0 0 0 0 0 127 0"/>
<feOffset dy="4"/>
<feGaussianBlur stdDeviation="2"/>
<feColorMatrix type="matrix" values="0 0 0 0 0 0 0 0 0 0 0 0 0 0 0 0 0 0 0.25 0"/>
<feBlend mode="normal" in2="BackgroundImageFix" result="effect1_dropShadow"/>
<feBlend mode="normal" in="SourceGraphic" in2="effect1_dropShadow" result="shape"/>
</filter>
<filter id="filter6_d" x="296.037" y="0" width="48.2066" height="98.1219" filterUnits="userSpaceOnUse" color-interpolation-filters="sRGB">
<feFlood flood-opacity="0" result="BackgroundImageFix"/>
<feColorMatrix in="SourceAlpha" type="matrix" values="0 0 0 0 0 0 0 0 0 0 0 0 0 0 0 0 0 0 127 0"/>
<feOffset dy="4"/>
<feGaussianBlur stdDeviation="2"/>
<feColorMatrix type="matrix" values="0 0 0 0 0 0 0 0 0 0 0 0 0 0 0 0 0 0 0.25 0"/>
<feBlend mode="normal" in2="BackgroundImageFix" result="effect1_dropShadow"/>
<feBlend mode="normal" in="SourceGraphic" in2="effect1_dropShadow" result="shape"/>
</filter>
<filter id="filter7_d" x="156.931" y="4" width="47.3356" height="98.9544" filterUnits="userSpaceOnUse" color-interpolation-filters="sRGB">
<feFlood flood-opacity="0" result="BackgroundImageFix"/>
<feColorMatrix in="SourceAlpha" type="matrix" values="0 0 0 0 0 0 0 0 0 0 0 0 0 0 0 0 0 0 127 0"/>
<feOffset dy="4"/>
<feGaussianBlur stdDeviation="2"/>
<feColorMatrix type="matrix" values="0 0 0 0 0 0 0 0 0 0 0 0 0 0 0 0 0 0 0.25 0"/>
<feBlend mode="normal" in2="BackgroundImageFix" result="effect1_dropShadow"/>
<feBlend mode="normal" in="SourceGraphic" in2="effect1_dropShadow" result="shape"/>
</filter>
<clipPath id="clip0">
<rect width="36.0176" height="62.6665" fill="white" transform="matrix(-0.703144 -0.711048 0.182934 -0.983125 25.3255 366.775)"/>
</clipPath>
<clipPath id="clip1">
<rect width="35.0305" height="63.2729" fill="white" transform="matrix(-0.731817 0.681501 -0.168892 -0.985635 242.07 230.364)"/>
</clipPath>
<clipPath id="clip2">
<rect width="49.8777" height="51.2903" fill="white" transform="matrix(0.387173 -0.922007 0.401346 0.915926 7.12988 91.9875)"/>
</clipPath>
<clipPath id="clip3">
<rect width="53.8879" height="46.6644" fill="white" transform="matrix(0.310014 -0.950732 0.491449 0.870906 91.6697 316.542)"/>
</clipPath>
<clipPath id="clip4">
<rect width="55.9915" height="43.8848" fill="white" transform="matrix(0.269067 0.963121 -0.550052 0.83513 264.517 310.424)"/>
</clipPath>
<clipPath id="clip5">
<rect width="61.3549" height="35.0558" fill="white" transform="matrix(-0.142067 0.989857 -0.781152 -0.624341 360 179.253)"/>
</clipPath>
<clipPath id="clip6">
<rect width="43.6571" height="55.6805" fill="white" transform="matrix(0.522119 0.852873 -0.31272 0.949845 317.45 0)"/>
</clipPath>
<clipPath id="clip7">
<rect width="55.4708" height="44.599" fill="white" transform="matrix(-0.279314 0.9602 -0.534583 -0.845116 200.267 41.6913)"/>
</clipPath>
</defs>
</svg>
