<svg width="365" height="176" viewBox="0 0 365 176" fill="none" xmlns="http://www.w3.org/2000/svg">
<g clip-path="url(#clip0)" filter="url(#filter0_d)">
<path d="M28.5524 145.586C27.6473 147.711 28.5376 150.158 30.5371 151.042C32.5366 151.925 34.8994 150.915 35.8045 148.79C36.7095 146.665 35.8193 144.217 33.8198 143.334C33.2137 143.066 32.5771 142.992 31.955 143.051L30.6987 139.188L34.1872 137.697C34.5737 138.217 35.073 138.655 35.6956 138.93C37.6951 139.813 40.0579 138.803 40.963 136.678C41.8681 134.553 40.9778 132.106 38.9783 131.222C36.9788 130.339 34.616 131.349 33.7109 133.474C33.4291 134.136 33.3398 134.825 33.3858 135.492L29.9715 136.95L27.219 128.485C26.8998 127.608 26.2575 126.91 25.4339 126.547L22.4512 125.229L30.1721 143.661C29.4833 144.105 28.9055 144.757 28.5524 145.586ZM32.8819 145.536C33.7386 145.915 34.1203 146.964 33.7324 147.874C33.3446 148.785 32.3318 149.218 31.475 148.839C30.6182 148.461 30.2366 147.412 30.6244 146.501C31.0122 145.591 32.0251 145.158 32.8819 145.536ZM38.0404 133.424C38.8972 133.803 39.2788 134.852 38.891 135.763C38.5031 136.673 37.4903 137.106 36.6335 136.728C35.7767 136.349 35.3951 135.3 35.7829 134.389C36.1708 133.479 37.1836 133.046 38.0404 133.424Z" fill="#261B1B"/>
<path d="M20.5401 144.167L26.4506 141.003L25.6488 138.799L14.9479 142.846L17.9305 144.164C18.7542 144.528 19.6928 144.529 20.5401 144.167Z" fill="#261B1B"/>
</g>
<g clip-path="url(#clip1)" filter="url(#filter1_d)">
<path d="M198.332 120.132C199.176 122.284 201.509 123.364 203.533 122.54C205.557 121.717 206.517 119.297 205.673 117.146C204.829 114.995 202.496 113.915 200.472 114.738C199.859 114.988 199.359 115.396 198.961 115.887L195.385 114.075L196.802 110.502C197.437 110.589 198.094 110.536 198.724 110.28C200.748 109.456 201.708 107.037 200.864 104.886C200.021 102.734 197.688 101.654 195.664 102.478C193.64 103.301 192.68 105.721 193.523 107.872C193.786 108.542 194.204 109.092 194.701 109.528L193.313 113.024L185.474 109.052C184.637 108.665 183.699 108.638 182.865 108.977L179.846 110.206L198.132 117.606C197.956 118.417 198.003 119.293 198.332 120.132ZM201.347 116.967C202.214 116.614 203.214 117.077 203.576 117.999C203.937 118.921 203.526 119.958 202.658 120.311C201.791 120.664 200.791 120.201 200.429 119.279C200.068 118.357 200.479 117.32 201.347 116.967ZM196.538 104.707C197.405 104.354 198.405 104.817 198.767 105.739C199.128 106.661 198.717 107.698 197.85 108.051C196.982 108.404 195.982 107.941 195.621 107.019C195.259 106.097 195.671 105.06 196.538 104.707Z" fill="#261B1B"/>
<path d="M191.7 124.926L193.658 118.424L191.557 117.452L186.84 128.039L189.86 126.81C190.693 126.471 191.355 125.794 191.7 124.926Z" fill="#261B1B"/>
</g>
<g clip-path="url(#clip2)" filter="url(#filter2_d)">
<path d="M119.23 85.7105C121.472 85.3203 122.997 83.2229 122.63 81.0349C122.263 78.8468 120.14 77.3843 117.898 77.7745C115.657 78.1647 114.132 80.2621 114.499 82.4501C114.61 83.1134 114.897 83.697 115.285 84.1953L112.797 87.3786L109.664 85.2193C109.88 84.6053 109.967 83.9403 109.852 83.2589C109.485 81.0708 107.363 79.6083 105.121 79.9985C102.879 80.3888 101.354 82.4861 101.721 84.6742C102.088 86.8623 104.211 88.3248 106.453 87.9345C107.151 87.813 107.766 87.5122 108.289 87.1085L111.355 89.2223L105.901 96.1983C105.355 96.9504 105.133 97.8793 105.284 98.7806L105.832 102.045L116.762 85.3816C117.504 85.7262 118.355 85.8627 119.23 85.7105ZM116.822 82.0458C116.665 81.1082 117.318 80.2091 118.279 80.0419C119.24 79.8747 120.149 80.5016 120.307 81.4392C120.464 82.3768 119.81 83.2759 118.85 83.4431C117.889 83.6103 116.979 82.9834 116.822 82.0458ZM104.044 84.2698C103.887 83.3322 104.541 82.4332 105.501 82.266C106.462 82.0988 107.372 82.7257 107.529 83.6633C107.687 84.6008 107.033 85.4999 106.072 85.6671C105.112 85.8343 104.202 85.2074 104.044 84.2698Z" fill="#261B1B"/>
<path d="M122.445 93.3188L116.612 90.0085L115.239 91.8975L124.417 98.8096L123.869 95.5456C123.718 94.6443 123.206 93.8432 122.445 93.3188Z" fill="#261B1B"/>
</g>
<g clip-path="url(#clip3)" filter="url(#filter3_d)">
<path d="M139.924 43.0465C141.626 41.5102 141.835 38.909 140.389 37.2477C138.944 35.5863 136.383 35.4846 134.681 37.0209C132.979 38.5572 132.77 41.1584 134.216 42.8197C134.654 43.3233 135.2 43.6649 135.788 43.8794L135.324 47.9206L131.543 47.7704C131.409 47.1327 131.138 46.5211 130.688 46.0037C129.242 44.3424 126.682 44.2407 124.98 45.777C123.277 47.3132 123.069 49.9144 124.514 51.5758C125.96 53.2371 128.52 53.3388 130.222 51.8025C130.752 51.3241 131.119 50.7379 131.354 50.114L135.054 50.2618L134.036 59.1184C133.961 60.0512 134.253 60.9596 134.849 61.6439L137.005 64.1221L137.657 44.0933C138.466 43.9875 139.26 43.6459 139.924 43.0465ZM135.98 41.2277C135.36 40.5158 135.45 39.4008 136.179 38.7425C136.909 38.0842 138.006 38.1278 138.626 38.8397C139.245 39.5516 139.155 40.6666 138.426 41.3249C137.697 41.9832 136.599 41.9396 135.98 41.2277ZM126.278 49.9838C125.659 49.2719 125.748 48.1569 126.478 47.4986C127.207 46.8403 128.305 46.8839 128.924 47.5957C129.543 48.3076 129.454 49.4227 128.724 50.0809C127.995 50.7392 126.897 50.6956 126.278 49.9838Z" fill="#261B1B"/>
<path d="M146.596 47.7817L139.927 48.1043L139.739 50.4471L151.116 51.386L148.96 48.9078C148.365 48.2235 147.515 47.8182 146.596 47.7817Z" fill="#261B1B"/>
</g>
<g clip-path="url(#clip4)" filter="url(#filter4_d)">
<path d="M56.3734 45.6476C54.7482 44.0271 52.1858 43.9994 50.6612 45.5856C49.1365 47.1718 49.2183 49.7804 50.8436 51.4008C52.4688 53.0212 55.0312 53.049 56.5558 51.4628C57.018 50.9819 57.3139 50.403 57.4823 49.7903L61.4731 49.9756L61.5939 53.8269C60.9788 54.0088 60.399 54.3272 59.9242 54.8211C58.3995 56.4074 58.4813 59.0159 60.1066 60.6363C61.7318 62.2567 64.2942 62.2845 65.8189 60.6983C67.3435 59.112 67.2617 56.5035 65.6365 54.8831C65.1304 54.3785 64.5302 54.0473 63.9025 53.8528L63.7851 50.0837L72.5314 50.4909C73.4502 50.5008 74.3191 50.139 74.9471 49.4856L77.2215 47.1194L57.5593 47.8761C57.3983 47.0622 57.0075 46.2798 56.3734 45.6476ZM54.8716 49.7836C54.2183 50.4633 53.1199 50.4514 52.4235 49.757C51.7271 49.0627 51.692 47.9445 52.3453 47.2648C52.9987 46.5851 54.097 46.597 54.7935 47.2913C55.4899 47.9857 55.5249 49.1039 54.8716 49.7836ZM64.1347 59.0191C63.4813 59.6988 62.383 59.6869 61.6866 58.9925C60.9901 58.2982 60.9551 57.18 61.6084 56.5003C62.2617 55.8206 63.3601 55.8325 64.0565 56.5269C64.7529 57.2212 64.788 58.3394 64.1347 59.0191Z" fill="#261B1B"/>
<path d="M60.5382 38.5334L61.3268 45.2861L63.6345 45.3111L63.748 33.6859L61.4736 36.0521C60.8456 36.7055 60.5089 37.598 60.5382 38.5334Z" fill="#261B1B"/>
</g>
<g clip-path="url(#clip5)" filter="url(#filter5_d)">
<path d="M113.932 131.338C112.121 129.936 109.576 130.234 108.257 132.001C106.938 133.768 107.338 136.346 109.148 137.748C110.959 139.149 113.505 138.852 114.824 137.085C115.223 136.549 115.446 135.937 115.538 135.308L119.521 134.986L120.111 138.792C119.523 139.051 118.987 139.44 118.576 139.99C117.257 141.758 117.657 144.335 119.468 145.737C121.278 147.139 123.824 146.842 125.143 145.075C126.462 143.307 126.062 140.73 124.252 139.328C123.688 138.891 123.052 138.639 122.405 138.525L121.828 134.8L130.556 134.096C131.469 133.989 132.287 133.52 132.83 132.792L134.798 130.156L115.381 133.399C115.122 132.612 114.638 131.885 113.932 131.338ZM112.947 135.632C112.382 136.39 111.291 136.517 110.515 135.916C109.739 135.316 109.568 134.211 110.133 133.453C110.698 132.696 111.789 132.569 112.565 133.169C113.341 133.77 113.512 134.875 112.947 135.632ZM123.267 143.622C122.702 144.379 121.61 144.507 120.835 143.906C120.059 143.305 119.887 142.2 120.452 141.443C121.018 140.686 122.109 140.558 122.885 141.159C123.661 141.76 123.832 142.865 123.267 143.622Z" fill="#261B1B"/>
<path d="M117.195 123.751L118.803 130.352L121.096 130.084L119.787 118.535L117.82 121.171C117.277 121.899 117.052 122.827 117.195 123.751Z" fill="#261B1B"/>
</g>
<g clip-path="url(#clip6)" filter="url(#filter6_d)">
<path d="M270.444 147.045C272.349 145.781 272.932 143.239 271.743 141.379C270.553 139.519 268.035 139.034 266.13 140.298C264.224 141.562 263.641 144.104 264.83 145.964C265.191 146.528 265.682 146.948 266.232 147.248L265.189 151.176L261.471 150.46C261.43 149.809 261.251 149.163 260.881 148.584C259.691 146.724 257.173 146.239 255.267 147.503C253.362 148.767 252.779 151.309 253.968 153.169C255.158 155.029 257.676 155.514 259.581 154.25C260.175 153.856 260.623 153.331 260.945 152.749L264.583 153.451L262.295 162.058C262.086 162.969 262.244 163.912 262.734 164.678L264.508 167.453L268.05 147.74C268.865 147.757 269.7 147.538 270.444 147.045ZM266.805 144.654C266.296 143.857 266.546 142.768 267.362 142.226C268.179 141.684 269.258 141.892 269.768 142.689C270.277 143.486 270.028 144.575 269.211 145.117C268.394 145.659 267.315 145.451 266.805 144.654ZM255.943 151.859C255.434 151.062 255.683 149.973 256.5 149.431C257.317 148.889 258.396 149.097 258.906 149.894C259.415 150.691 259.166 151.78 258.349 152.322C257.532 152.864 256.453 152.656 255.943 151.859Z" fill="#261B1B"/>
<path d="M276.358 152.729L269.715 152.048L269.19 154.337L280.308 156.973L278.534 154.198C278.044 153.432 277.261 152.903 276.358 152.729Z" fill="#261B1B"/>
</g>
<g clip-path="url(#clip7)" filter="url(#filter7_d)">
<path d="M353.596 85.1981C355.758 85.953 358.076 84.863 358.765 82.7682C359.453 80.6734 358.254 78.3551 356.092 77.6002C353.93 76.8453 351.611 77.9352 350.923 80.0301C350.714 80.665 350.698 81.3162 350.811 81.9424L347.138 83.5119L345.368 80.0892C345.843 79.6574 346.228 79.1178 346.442 78.4654C347.13 76.3706 345.931 74.0524 343.769 73.2974C341.607 72.5425 339.289 73.6325 338.601 75.7273C337.913 77.8222 339.111 80.1404 341.273 80.8953C341.947 81.1304 342.63 81.1681 343.279 81.0704L345.01 84.4204L336.962 87.8591C336.13 88.25 335.504 88.9546 335.221 89.8175L334.194 92.9424L351.567 83.7032C352.063 84.3676 352.752 84.9035 353.596 85.1981ZM353.163 80.8124C353.458 79.9148 354.452 79.4475 355.379 79.771C356.305 80.0945 356.819 81.0882 356.524 81.9859C356.229 82.8835 355.235 83.3507 354.309 83.0273C353.383 82.7038 352.869 81.71 353.163 80.8124ZM340.841 76.5096C341.136 75.612 342.13 75.1448 343.056 75.4683C343.983 75.7918 344.497 76.7855 344.202 77.6831C343.907 78.5808 342.913 79.048 341.987 78.7245C341.06 78.401 340.546 77.4073 340.841 76.5096Z" fill="#261B1B"/>
<path d="M352.916 93.43L349.293 87.6798L347.205 88.6615L352.117 99.2009L353.144 96.076C353.427 95.2131 353.346 94.2613 352.916 93.43Z" fill="#261B1B"/>
</g>
<g clip-path="url(#clip8)" filter="url(#filter8_d)">
<path d="M327.362 12.7983C328.737 10.9741 328.391 8.44534 326.592 7.16103C324.792 5.87672 322.21 6.31595 320.835 8.14021C319.46 9.96447 319.806 12.4932 321.606 13.7775C322.151 14.1668 322.77 14.3788 323.404 14.4605L323.801 18.4185L319.988 19.067C319.718 18.4859 319.317 17.9583 318.756 17.5584C316.957 16.2741 314.375 16.7133 313 18.5375C311.625 20.3618 311.971 22.8905 313.77 24.1748C315.57 25.4592 318.152 25.0199 319.527 23.1957C319.955 22.6276 320.197 21.9906 320.299 21.3454L324.03 20.7115L324.9 29.386C325.024 30.2928 325.51 31.0992 326.251 31.6282L328.936 33.544L325.319 14.2732C326.105 14.0027 326.826 13.5101 327.362 12.7983ZM323.03 11.8871C322.259 11.3368 322.111 10.2528 322.7 9.4711C323.289 8.68941 324.396 8.50113 325.167 9.05145C325.938 9.60178 326.086 10.6857 325.497 11.4674C324.908 12.2491 323.801 12.4374 323.03 11.8871ZM315.195 22.2844C314.424 21.7341 314.276 20.6501 314.865 19.8684C315.454 19.0867 316.561 18.8985 317.332 19.4488C318.103 19.9991 318.251 21.0831 317.662 21.8648C317.073 22.6465 315.966 22.8347 315.195 22.2844Z" fill="#261B1B"/>
<path d="M335.044 15.9243L328.443 17.6296L328.755 19.9071L340.333 18.4206L337.648 16.5048C336.907 15.9758 335.97 15.7667 335.044 15.9243Z" fill="#261B1B"/>
</g>
<g clip-path="url(#clip9)" filter="url(#filter9_d)">
<path d="M223.941 69.8963C225.824 71.1964 228.35 70.7594 229.573 68.9222C230.797 67.085 230.261 64.533 228.378 63.2329C226.496 61.9328 223.969 62.3697 222.746 64.2069C222.375 64.7638 222.185 65.3871 222.127 66.0206L218.167 66.5613L217.376 62.7933C217.949 62.5029 218.464 62.0845 218.845 61.5124C220.068 59.6752 219.532 57.1231 217.65 55.8231C215.767 54.523 213.241 54.9599 212.018 56.7971C210.794 58.6343 211.331 61.1864 213.213 62.4865C213.799 62.8913 214.448 63.1085 215.099 63.1862L215.873 66.8738L207.195 68.058C206.289 68.2146 205.498 68.7281 204.994 69.4849L203.169 72.2254L222.385 67.9182C222.686 68.69 223.207 69.3891 223.941 69.8963ZM224.697 65.5541C225.221 64.7669 226.304 64.5796 227.111 65.1367C227.917 65.6938 228.147 66.7878 227.623 67.575C227.099 68.3622 226.016 68.5495 225.209 67.9925C224.403 67.4354 224.173 66.3414 224.697 65.5541ZM213.968 58.1443C214.493 57.3571 215.575 57.1698 216.382 57.7269C217.189 58.284 217.418 59.378 216.894 60.1652C216.37 60.9524 215.287 61.1397 214.481 60.5826C213.674 60.0256 213.444 58.9316 213.968 58.1443Z" fill="#261B1B"/>
<path d="M221.086 77.6516L219.13 71.1495L216.855 71.543L218.774 83.0033L220.599 80.2628C221.103 79.506 221.278 78.5668 221.086 77.6516Z" fill="#261B1B"/>
</g>
<rect x="7.62939e-06" y="3.80246" width="360" height="153.79" fill="#481D4F" fill-opacity="0.5"/>
<defs>
<filter id="filter0_d" x="6.99999" y="119.909" width="44.1193" height="45.4107" filterUnits="userSpaceOnUse" color-interpolation-filters="sRGB">
<feFlood flood-opacity="0" result="BackgroundImageFix"/>
<feColorMatrix in="SourceAlpha" type="matrix" values="0 0 0 0 0 0 0 0 0 0 0 0 0 0 0 0 0 0 127 0"/>
<feOffset dy="4"/>
<feGaussianBlur stdDeviation="2"/>
<feColorMatrix type="matrix" values="0 0 0 0 0 0 0 0 0 0 0 0 0 0 0 0 0 0 0.25 0"/>
<feBlend mode="normal" in2="BackgroundImageFix" result="effect1_dropShadow"/>
<feBlend mode="normal" in="SourceGraphic" in2="effect1_dropShadow" result="shape"/>
</filter>
<filter id="filter1_d" x="172" y="96.3609" width="43.6606" height="44.9895" filterUnits="userSpaceOnUse" color-interpolation-filters="sRGB">
<feFlood flood-opacity="0" result="BackgroundImageFix"/>
<feColorMatrix in="SourceAlpha" type="matrix" values="0 0 0 0 0 0 0 0 0 0 0 0 0 0 0 0 0 0 127 0"/>
<feOffset dy="4"/>
<feGaussianBlur stdDeviation="2"/>
<feColorMatrix type="matrix" values="0 0 0 0 0 0 0 0 0 0 0 0 0 0 0 0 0 0 0.25 0"/>
<feBlend mode="normal" in2="BackgroundImageFix" result="effect1_dropShadow"/>
<feBlend mode="normal" in="SourceGraphic" in2="effect1_dropShadow" result="shape"/>
</filter>
<filter id="filter2_d" x="93" y="73.0591" width="40.4438" height="40.0616" filterUnits="userSpaceOnUse" color-interpolation-filters="sRGB">
<feFlood flood-opacity="0" result="BackgroundImageFix"/>
<feColorMatrix in="SourceAlpha" type="matrix" values="0 0 0 0 0 0 0 0 0 0 0 0 0 0 0 0 0 0 127 0"/>
<feOffset dy="4"/>
<feGaussianBlur stdDeviation="2"/>
<feColorMatrix type="matrix" values="0 0 0 0 0 0 0 0 0 0 0 0 0 0 0 0 0 0 0.25 0"/>
<feBlend mode="normal" in2="BackgroundImageFix" result="effect1_dropShadow"/>
<feBlend mode="normal" in="SourceGraphic" in2="effect1_dropShadow" result="shape"/>
</filter>
<filter id="filter3_d" x="113" y="29.2645" width="47.1423" height="47.7633" filterUnits="userSpaceOnUse" color-interpolation-filters="sRGB">
<feFlood flood-opacity="0" result="BackgroundImageFix"/>
<feColorMatrix in="SourceAlpha" type="matrix" values="0 0 0 0 0 0 0 0 0 0 0 0 0 0 0 0 0 0 127 0"/>
<feOffset dy="4"/>
<feGaussianBlur stdDeviation="2"/>
<feColorMatrix type="matrix" values="0 0 0 0 0 0 0 0 0 0 0 0 0 0 0 0 0 0 0.25 0"/>
<feBlend mode="normal" in2="BackgroundImageFix" result="effect1_dropShadow"/>
<feBlend mode="normal" in="SourceGraphic" in2="effect1_dropShadow" result="shape"/>
</filter>
<filter id="filter4_d" x="39" y="28.6838" width="47.1698" height="47.8756" filterUnits="userSpaceOnUse" color-interpolation-filters="sRGB">
<feFlood flood-opacity="0" result="BackgroundImageFix"/>
<feColorMatrix in="SourceAlpha" type="matrix" values="0 0 0 0 0 0 0 0 0 0 0 0 0 0 0 0 0 0 127 0"/>
<feOffset dy="4"/>
<feGaussianBlur stdDeviation="2"/>
<feColorMatrix type="matrix" values="0 0 0 0 0 0 0 0 0 0 0 0 0 0 0 0 0 0 0.25 0"/>
<feBlend mode="normal" in2="BackgroundImageFix" result="effect1_dropShadow"/>
<feBlend mode="normal" in="SourceGraphic" in2="effect1_dropShadow" result="shape"/>
</filter>
<filter id="filter5_d" x="97" y="113.798" width="46.9172" height="47.407" filterUnits="userSpaceOnUse" color-interpolation-filters="sRGB">
<feFlood flood-opacity="0" result="BackgroundImageFix"/>
<feColorMatrix in="SourceAlpha" type="matrix" values="0 0 0 0 0 0 0 0 0 0 0 0 0 0 0 0 0 0 127 0"/>
<feOffset dy="4"/>
<feGaussianBlur stdDeviation="2"/>
<feColorMatrix type="matrix" values="0 0 0 0 0 0 0 0 0 0 0 0 0 0 0 0 0 0 0.25 0"/>
<feBlend mode="normal" in2="BackgroundImageFix" result="effect1_dropShadow"/>
<feBlend mode="normal" in="SourceGraphic" in2="effect1_dropShadow" result="shape"/>
</filter>
<filter id="filter6_d" x="243" y="133.149" width="46.4903" height="46.8506" filterUnits="userSpaceOnUse" color-interpolation-filters="sRGB">
<feFlood flood-opacity="0" result="BackgroundImageFix"/>
<feColorMatrix in="SourceAlpha" type="matrix" values="0 0 0 0 0 0 0 0 0 0 0 0 0 0 0 0 0 0 127 0"/>
<feOffset dy="4"/>
<feGaussianBlur stdDeviation="2"/>
<feColorMatrix type="matrix" values="0 0 0 0 0 0 0 0 0 0 0 0 0 0 0 0 0 0 0.25 0"/>
<feBlend mode="normal" in2="BackgroundImageFix" result="effect1_dropShadow"/>
<feBlend mode="normal" in="SourceGraphic" in2="effect1_dropShadow" result="shape"/>
</filter>
<filter id="filter7_d" x="325" y="67.4987" width="43.4429" height="43.4377" filterUnits="userSpaceOnUse" color-interpolation-filters="sRGB">
<feFlood flood-opacity="0" result="BackgroundImageFix"/>
<feColorMatrix in="SourceAlpha" type="matrix" values="0 0 0 0 0 0 0 0 0 0 0 0 0 0 0 0 0 0 127 0"/>
<feOffset dy="4"/>
<feGaussianBlur stdDeviation="2"/>
<feColorMatrix type="matrix" values="0 0 0 0 0 0 0 0 0 0 0 0 0 0 0 0 0 0 0.25 0"/>
<feBlend mode="normal" in2="BackgroundImageFix" result="effect1_dropShadow"/>
<feBlend mode="normal" in="SourceGraphic" in2="effect1_dropShadow" result="shape"/>
</filter>
<filter id="filter8_d" x="301.572" y="0" width="47.4743" height="46.6558" filterUnits="userSpaceOnUse" color-interpolation-filters="sRGB">
<feFlood flood-opacity="0" result="BackgroundImageFix"/>
<feColorMatrix in="SourceAlpha" type="matrix" values="0 0 0 0 0 0 0 0 0 0 0 0 0 0 0 0 0 0 127 0"/>
<feOffset dy="4"/>
<feGaussianBlur stdDeviation="2"/>
<feColorMatrix type="matrix" values="0 0 0 0 0 0 0 0 0 0 0 0 0 0 0 0 0 0 0.25 0"/>
<feBlend mode="normal" in2="BackgroundImageFix" result="effect1_dropShadow"/>
<feBlend mode="normal" in="SourceGraphic" in2="effect1_dropShadow" result="shape"/>
</filter>
<filter id="filter9_d" x="194" y="48.5888" width="46.6192" height="47.0129" filterUnits="userSpaceOnUse" color-interpolation-filters="sRGB">
<feFlood flood-opacity="0" result="BackgroundImageFix"/>
<feColorMatrix in="SourceAlpha" type="matrix" values="0 0 0 0 0 0 0 0 0 0 0 0 0 0 0 0 0 0 127 0"/>
<feOffset dy="4"/>
<feGaussianBlur stdDeviation="2"/>
<feColorMatrix type="matrix" values="0 0 0 0 0 0 0 0 0 0 0 0 0 0 0 0 0 0 0.25 0"/>
<feBlend mode="normal" in2="BackgroundImageFix" result="effect1_dropShadow"/>
<feBlend mode="normal" in="SourceGraphic" in2="effect1_dropShadow" result="shape"/>
</filter>
<clipPath id="clip0">
<rect width="27.1827" height="28.7228" fill="white" transform="matrix(-0.914708 -0.404115 0.391849 -0.92003 35.8643 157.32)"/>
</clipPath>
<clipPath id="clip1">
<rect width="27.1723" height="28.7335" fill="white" transform="matrix(-0.926273 0.376852 -0.365136 -0.930954 211.661 123.111)"/>
</clipPath>
<clipPath id="clip2">
<rect width="27.5896" height="28.2972" fill="white" transform="matrix(0.165487 0.986212 -0.985187 0.171481 124.878 73.0591)"/>
</clipPath>
<clipPath id="clip3">
<rect width="27.3845" height="28.5133" fill="white" transform="matrix(0.656403 0.754411 -0.742355 0.670007 138.167 29.2645)"/>
</clipPath>
<clipPath id="clip4">
<rect width="27.3597" height="28.5392" fill="white" transform="matrix(0.692973 -0.720963 0.708157 0.706055 43 48.4091)"/>
</clipPath>
<clipPath id="clip5">
<rect width="27.4213" height="28.4748" fill="white" transform="matrix(0.598138 -0.801393 0.790716 0.612183 101 135.773)"/>
</clipPath>
<clipPath id="clip6">
<rect width="27.4554" height="28.4389" fill="white" transform="matrix(0.53873 0.842478 -0.833338 0.552763 270.699 133.149)"/>
</clipPath>
<clipPath id="clip7">
<rect width="27.4196" height="28.477" fill="white" transform="matrix(-0.312104 0.950048 -0.944099 -0.329663 364.443 76.8865)"/>
</clipPath>
<clipPath id="clip8">
<rect width="27.4933" height="28.4053" fill="white" transform="matrix(0.81398 0.580893 -0.601834 0.798621 322.668 0)"/>
</clipPath>
<clipPath id="clip9">
<rect width="27.4469" height="28.4479" fill="white" transform="matrix(-0.554218 0.832372 -0.822824 -0.568297 236.619 64.7556)"/>
</clipPath>
</defs>
</svg>
