<svg width="144" height="129" viewBox="0 0 144 129" fill="none" xmlns="http://www.w3.org/2000/svg">
<path d="M3.25781 111.279V102.747H5.88281C6.63281 102.747 7.30273 102.917 7.89258 103.257C8.48633 103.593 8.94922 104.074 9.28125 104.699C9.61328 105.32 9.7793 106.027 9.7793 106.82V107.212C9.7793 108.005 9.61523 108.71 9.28711 109.328C8.96289 109.945 8.50391 110.423 7.91016 110.763C7.31641 111.103 6.64648 111.275 5.90039 111.279H3.25781ZM5.01562 104.171V109.867H5.86523C6.55273 109.867 7.07812 109.642 7.44141 109.193C7.80469 108.744 7.99023 108.101 7.99805 107.265V106.814C7.99805 105.947 7.81836 105.29 7.45898 104.845C7.09961 104.396 6.57422 104.171 5.88281 104.171H5.01562ZM16.1953 107.581H12.8203V109.867H16.7812V111.279H11.0625V102.747H16.7695V104.171H12.8203V106.205H16.1953V107.581ZM20.9707 108.156H19.5703V111.279H17.8125V102.747H20.9824C21.9902 102.747 22.7676 102.972 23.3145 103.421C23.8613 103.871 24.1348 104.505 24.1348 105.326C24.1348 105.908 24.0078 106.394 23.7539 106.785C23.5039 107.171 23.123 107.48 22.6113 107.71L24.457 111.197V111.279H22.5703L20.9707 108.156ZM19.5703 106.732H20.9883C21.4297 106.732 21.7715 106.621 22.0137 106.398C22.2559 106.171 22.377 105.861 22.377 105.466C22.377 105.064 22.2617 104.747 22.0312 104.517C21.8047 104.287 21.4551 104.171 20.9824 104.171H19.5703V106.732ZM30.6094 107.581H27.2344V109.867H31.1953V111.279H25.4766V102.747H31.1836V104.171H27.2344V106.205H30.6094V107.581ZM38.9238 108.437C38.8574 109.355 38.5176 110.078 37.9043 110.605C37.2949 111.132 36.4902 111.396 35.4902 111.396C34.3965 111.396 33.5352 111.029 32.9062 110.294C32.2812 109.556 31.9688 108.544 31.9688 107.259V106.738C31.9688 105.917 32.1133 105.195 32.4023 104.57C32.6914 103.945 33.1035 103.466 33.6387 103.134C34.1777 102.798 34.8027 102.63 35.5137 102.63C36.498 102.63 37.291 102.894 37.8926 103.421C38.4941 103.949 38.8418 104.689 38.9355 105.642H37.1777C37.1348 105.091 36.9805 104.693 36.7148 104.447C36.4531 104.197 36.0527 104.072 35.5137 104.072C34.9277 104.072 34.4883 104.283 34.1953 104.705C33.9062 105.122 33.7578 105.773 33.75 106.656V107.3C33.75 108.222 33.8887 108.896 34.166 109.322C34.4473 109.747 34.8887 109.96 35.4902 109.96C36.0332 109.96 36.4375 109.837 36.7031 109.591C36.9727 109.341 37.127 108.956 37.166 108.437H38.9238ZM47.0215 111.279H45.2637V107.622H41.8359V111.279H40.0781V102.747H41.8359V106.205H45.2637V102.747H47.0215V111.279ZM55.5703 107.206C55.5703 108.046 55.4219 108.783 55.125 109.415C54.8281 110.048 54.4023 110.537 53.8477 110.88C53.2969 111.224 52.6641 111.396 51.9492 111.396C51.2422 111.396 50.6113 111.226 50.0566 110.886C49.502 110.546 49.0723 110.062 48.7676 109.433C48.4629 108.8 48.3086 108.074 48.3047 107.253V106.831C48.3047 105.992 48.4551 105.253 48.7559 104.617C49.0605 103.976 49.4883 103.486 50.0391 103.146C50.5938 102.802 51.2266 102.63 51.9375 102.63C52.6484 102.63 53.2793 102.802 53.8301 103.146C54.3848 103.486 54.8125 103.976 55.1133 104.617C55.418 105.253 55.5703 105.99 55.5703 106.826V107.206ZM53.7891 106.82C53.7891 105.925 53.6289 105.246 53.3086 104.781C52.9883 104.316 52.5312 104.083 51.9375 104.083C51.3477 104.083 50.8926 104.314 50.5723 104.775C50.252 105.232 50.0898 105.904 50.0859 106.79V107.206C50.0859 108.078 50.2461 108.753 50.5664 109.234C50.8867 109.714 51.3477 109.955 51.9492 109.955C52.5391 109.955 52.9922 109.724 53.3086 109.263C53.625 108.798 53.7852 108.122 53.7891 107.236V106.82ZM61.2715 109.04C61.2715 108.708 61.1543 108.455 60.9199 108.279C60.6855 108.099 60.2637 107.912 59.6543 107.716C59.0449 107.517 58.5625 107.322 58.207 107.13C57.2383 106.607 56.7539 105.902 56.7539 105.015C56.7539 104.554 56.8828 104.144 57.1406 103.785C57.4023 103.421 57.7754 103.138 58.2598 102.935C58.748 102.732 59.2949 102.63 59.9004 102.63C60.5098 102.63 61.0527 102.742 61.5293 102.964C62.0059 103.183 62.375 103.494 62.6367 103.896C62.9023 104.298 63.0352 104.755 63.0352 105.267H61.2773C61.2773 104.876 61.1543 104.574 60.9082 104.359C60.6621 104.14 60.3164 104.031 59.8711 104.031C59.4414 104.031 59.1074 104.122 58.8691 104.306C58.6309 104.486 58.5117 104.724 58.5117 105.021C58.5117 105.298 58.6504 105.531 58.9277 105.718C59.209 105.906 59.6211 106.081 60.1641 106.246C61.1641 106.546 61.8926 106.919 62.3496 107.365C62.8066 107.81 63.0352 108.365 63.0352 109.029C63.0352 109.767 62.7559 110.347 62.1973 110.769C61.6387 111.187 60.8867 111.396 59.9414 111.396C59.2852 111.396 58.6875 111.277 58.1484 111.039C57.6094 110.796 57.1973 110.466 56.9121 110.048C56.6309 109.63 56.4902 109.146 56.4902 108.595H58.2539C58.2539 109.537 58.8164 110.007 59.9414 110.007C60.3594 110.007 60.6855 109.923 60.9199 109.755C61.1543 109.583 61.2715 109.345 61.2715 109.04ZM70.377 108.156H68.9766V111.279H67.2188V102.747H70.3887C71.3965 102.747 72.1738 102.972 72.7207 103.421C73.2676 103.871 73.541 104.505 73.541 105.326C73.541 105.908 73.4141 106.394 73.1602 106.785C72.9102 107.171 72.5293 107.48 72.0176 107.71L73.8633 111.197V111.279H71.9766L70.377 108.156ZM68.9766 106.732H70.3945C70.8359 106.732 71.1777 106.621 71.4199 106.398C71.6621 106.171 71.7832 105.861 71.7832 105.466C71.7832 105.064 71.668 104.747 71.4375 104.517C71.2109 104.287 70.8613 104.171 70.3887 104.171H68.9766V106.732ZM80.0156 107.581H76.6406V109.867H80.6016V111.279H74.8828V102.747H80.5898V104.171H76.6406V106.205H80.0156V107.581ZM86.0566 109.04C86.0566 108.708 85.9395 108.455 85.7051 108.279C85.4707 108.099 85.0488 107.912 84.4395 107.716C83.8301 107.517 83.3477 107.322 82.9922 107.13C82.0234 106.607 81.5391 105.902 81.5391 105.015C81.5391 104.554 81.668 104.144 81.9258 103.785C82.1875 103.421 82.5605 103.138 83.0449 102.935C83.5332 102.732 84.0801 102.63 84.6855 102.63C85.2949 102.63 85.8379 102.742 86.3145 102.964C86.791 103.183 87.1602 103.494 87.4219 103.896C87.6875 104.298 87.8203 104.755 87.8203 105.267H86.0625C86.0625 104.876 85.9395 104.574 85.6934 104.359C85.4473 104.14 85.1016 104.031 84.6562 104.031C84.2266 104.031 83.8926 104.122 83.6543 104.306C83.416 104.486 83.2969 104.724 83.2969 105.021C83.2969 105.298 83.4355 105.531 83.7129 105.718C83.9941 105.906 84.4062 106.081 84.9492 106.246C85.9492 106.546 86.6777 106.919 87.1348 107.365C87.5918 107.81 87.8203 108.365 87.8203 109.029C87.8203 109.767 87.541 110.347 86.9824 110.769C86.4238 111.187 85.6719 111.396 84.7266 111.396C84.0703 111.396 83.4727 111.277 82.9336 111.039C82.3945 110.796 81.9824 110.466 81.6973 110.048C81.416 109.63 81.2754 109.146 81.2754 108.595H83.0391C83.0391 109.537 83.6016 110.007 84.7266 110.007C85.1445 110.007 85.4707 109.923 85.7051 109.755C85.9395 109.583 86.0566 109.345 86.0566 109.04ZM94.1484 107.581H90.7734V109.867H94.7344V111.279H89.0156V102.747H94.7227V104.171H90.7734V106.205H94.1484V107.581ZM98.9238 108.156H97.5234V111.279H95.7656V102.747H98.9355C99.9434 102.747 100.721 102.972 101.268 103.421C101.814 103.871 102.088 104.505 102.088 105.326C102.088 105.908 101.961 106.394 101.707 106.785C101.457 107.171 101.076 107.48 100.564 107.71L102.41 111.197V111.279H100.523L98.9238 108.156ZM97.5234 106.732H98.9414C99.3828 106.732 99.7246 106.621 99.9668 106.398C100.209 106.171 100.33 105.861 100.33 105.466C100.33 105.064 100.215 104.747 99.9844 104.517C99.7578 104.287 99.4082 104.171 98.9355 104.171H97.5234V106.732ZM106.465 109.164L108.398 102.747H110.355L107.385 111.279H105.551L102.592 102.747H104.543L106.465 109.164ZM115.535 109.521H112.453L111.867 111.279H109.998L113.174 102.747H114.803L117.996 111.279H116.127L115.535 109.521ZM112.928 108.097H115.061L113.988 104.904L112.928 108.097ZM118.793 111.279V102.747H121.418C122.168 102.747 122.838 102.917 123.428 103.257C124.021 103.593 124.484 104.074 124.816 104.699C125.148 105.32 125.314 106.027 125.314 106.82V107.212C125.314 108.005 125.15 108.71 124.822 109.328C124.498 109.945 124.039 110.423 123.445 110.763C122.852 111.103 122.182 111.275 121.436 111.279H118.793ZM120.551 104.171V109.867H121.4C122.088 109.867 122.613 109.642 122.977 109.193C123.34 108.744 123.525 108.101 123.533 107.265V106.814C123.533 105.947 123.354 105.29 122.994 104.845C122.635 104.396 122.109 104.171 121.418 104.171H120.551ZM133.605 107.206C133.605 108.046 133.457 108.783 133.16 109.415C132.863 110.048 132.438 110.537 131.883 110.88C131.332 111.224 130.699 111.396 129.984 111.396C129.277 111.396 128.646 111.226 128.092 110.886C127.537 110.546 127.107 110.062 126.803 109.433C126.498 108.8 126.344 108.074 126.34 107.253V106.831C126.34 105.992 126.49 105.253 126.791 104.617C127.096 103.976 127.523 103.486 128.074 103.146C128.629 102.802 129.262 102.63 129.973 102.63C130.684 102.63 131.314 102.802 131.865 103.146C132.42 103.486 132.848 103.976 133.148 104.617C133.453 105.253 133.605 105.99 133.605 106.826V107.206ZM131.824 106.82C131.824 105.925 131.664 105.246 131.344 104.781C131.023 104.316 130.566 104.083 129.973 104.083C129.383 104.083 128.928 104.314 128.607 104.775C128.287 105.232 128.125 105.904 128.121 106.79V107.206C128.121 108.078 128.281 108.753 128.602 109.234C128.922 109.714 129.383 109.955 129.984 109.955C130.574 109.955 131.027 109.724 131.344 109.263C131.66 108.798 131.82 108.122 131.824 107.236V106.82ZM139.307 109.04C139.307 108.708 139.189 108.455 138.955 108.279C138.721 108.099 138.299 107.912 137.689 107.716C137.08 107.517 136.598 107.322 136.242 107.13C135.273 106.607 134.789 105.902 134.789 105.015C134.789 104.554 134.918 104.144 135.176 103.785C135.438 103.421 135.811 103.138 136.295 102.935C136.783 102.732 137.33 102.63 137.936 102.63C138.545 102.63 139.088 102.742 139.564 102.964C140.041 103.183 140.41 103.494 140.672 103.896C140.938 104.298 141.07 104.755 141.07 105.267H139.312C139.312 104.876 139.189 104.574 138.943 104.359C138.697 104.14 138.352 104.031 137.906 104.031C137.477 104.031 137.143 104.122 136.904 104.306C136.666 104.486 136.547 104.724 136.547 105.021C136.547 105.298 136.686 105.531 136.963 105.718C137.244 105.906 137.656 106.081 138.199 106.246C139.199 106.546 139.928 106.919 140.385 107.365C140.842 107.81 141.07 108.365 141.07 109.029C141.07 109.767 140.791 110.347 140.232 110.769C139.674 111.187 138.922 111.396 137.977 111.396C137.32 111.396 136.723 111.277 136.184 111.039C135.645 110.796 135.232 110.466 134.947 110.048C134.666 109.63 134.525 109.146 134.525 108.595H136.289C136.289 109.537 136.852 110.007 137.977 110.007C138.395 110.007 138.721 109.923 138.955 109.755C139.189 109.583 139.307 109.345 139.307 109.04ZM31.166 122.437C31.0996 123.355 30.7598 124.078 30.1465 124.605C29.5371 125.132 28.7324 125.396 27.7324 125.396C26.6387 125.396 25.7773 125.029 25.1484 124.294C24.5234 123.556 24.2109 122.544 24.2109 121.259V120.738C24.2109 119.917 24.3555 119.195 24.6445 118.57C24.9336 117.945 25.3457 117.466 25.8809 117.134C26.4199 116.798 27.0449 116.63 27.7559 116.63C28.7402 116.63 29.5332 116.894 30.1348 117.421C30.7363 117.949 31.084 118.689 31.1777 119.642H29.4199C29.377 119.091 29.2227 118.693 28.957 118.447C28.6953 118.197 28.2949 118.072 27.7559 118.072C27.1699 118.072 26.7305 118.283 26.4375 118.705C26.1484 119.122 26 119.773 25.9922 120.656V121.3C25.9922 122.222 26.1309 122.896 26.4082 123.322C26.6895 123.747 27.1309 123.96 27.7324 123.96C28.2754 123.96 28.6797 123.837 28.9453 123.591C29.2148 123.341 29.3691 122.956 29.4082 122.437H31.166ZM39.3281 121.206C39.3281 122.046 39.1797 122.783 38.8828 123.415C38.5859 124.048 38.1602 124.537 37.6055 124.88C37.0547 125.224 36.4219 125.396 35.707 125.396C35 125.396 34.3691 125.226 33.8145 124.886C33.2598 124.546 32.8301 124.062 32.5254 123.433C32.2207 122.8 32.0664 122.074 32.0625 121.253V120.831C32.0625 119.992 32.2129 119.253 32.5137 118.617C32.8184 117.976 33.2461 117.486 33.7969 117.146C34.3516 116.802 34.9844 116.63 35.6953 116.63C36.4062 116.63 37.0371 116.802 37.5879 117.146C38.1426 117.486 38.5703 117.976 38.8711 118.617C39.1758 119.253 39.3281 119.99 39.3281 120.826V121.206ZM37.5469 120.82C37.5469 119.925 37.3867 119.246 37.0664 118.781C36.7461 118.316 36.2891 118.083 35.6953 118.083C35.1055 118.083 34.6504 118.314 34.3301 118.775C34.0098 119.232 33.8477 119.904 33.8438 120.79V121.206C33.8438 122.078 34.0039 122.753 34.3242 123.234C34.6445 123.714 35.1055 123.955 35.707 123.955C36.2969 123.955 36.75 123.724 37.0664 123.263C37.3828 122.798 37.543 122.122 37.5469 121.236V120.82ZM42.3633 122.273V125.279H40.6055V116.747H43.9336C44.5742 116.747 45.1367 116.865 45.6211 117.099C46.1094 117.333 46.4844 117.667 46.7461 118.101C47.0078 118.531 47.1387 119.021 47.1387 119.572C47.1387 120.408 46.8516 121.068 46.2773 121.552C45.707 122.033 44.916 122.273 43.9043 122.273H42.3633ZM42.3633 120.849H43.9336C44.3984 120.849 44.752 120.74 44.9941 120.521C45.2402 120.302 45.3633 119.99 45.3633 119.583C45.3633 119.165 45.2402 118.828 44.9941 118.57C44.748 118.312 44.4082 118.179 43.9746 118.171H42.3633V120.849ZM51.293 120.591L53.0684 116.747H54.9902L52.1895 122.185V125.279H50.4023V122.185L47.6016 116.747H49.5293L51.293 120.591ZM58.9277 122.156H57.5273V125.279H55.7695V116.747H58.9395C59.9473 116.747 60.7246 116.972 61.2715 117.421C61.8184 117.871 62.0918 118.505 62.0918 119.326C62.0918 119.908 61.9648 120.394 61.7109 120.785C61.4609 121.171 61.0801 121.48 60.5684 121.71L62.4141 125.197V125.279H60.5273L58.9277 122.156ZM57.5273 120.732H58.9453C59.3867 120.732 59.7285 120.621 59.9707 120.398C60.2129 120.171 60.334 119.861 60.334 119.466C60.334 119.064 60.2188 118.747 59.9883 118.517C59.7617 118.287 59.4121 118.171 58.9395 118.171H57.5273V120.732ZM65.3027 125.279H63.5449V116.747H65.3027V125.279ZM73.6875 124.201C73.3711 124.58 72.9238 124.874 72.3457 125.085C71.7676 125.292 71.127 125.396 70.4238 125.396C69.6855 125.396 69.0371 125.236 68.4785 124.915C67.9238 124.591 67.4941 124.122 67.1895 123.509C66.8887 122.896 66.7344 122.175 66.7266 121.347V120.767C66.7266 119.915 66.8691 119.179 67.1543 118.558C67.4434 117.933 67.8574 117.456 68.3965 117.128C68.9395 116.796 69.5742 116.63 70.3008 116.63C71.3125 116.63 72.1035 116.872 72.6738 117.357C73.2441 117.837 73.582 118.539 73.6875 119.46H71.9766C71.8984 118.972 71.7246 118.615 71.4551 118.388C71.1895 118.162 70.8223 118.048 70.3535 118.048C69.7559 118.048 69.3008 118.273 68.9883 118.722C68.6758 119.171 68.5176 119.839 68.5137 120.726V121.271C68.5137 122.165 68.6836 122.841 69.0234 123.298C69.3633 123.755 69.8613 123.984 70.5176 123.984C71.1777 123.984 71.6484 123.843 71.9297 123.562V122.091H70.3301V120.796H73.6875V124.201ZM82.0605 125.279H80.3027V121.622H76.875V125.279H75.1172V116.747H76.875V120.205H80.3027V116.747H82.0605V125.279ZM89.8477 118.171H87.2344V125.279H85.4766V118.171H82.8984V116.747H89.8477V118.171ZM99.1582 125.279H93.3105V124.119L96.0703 121.177C96.4492 120.763 96.7285 120.402 96.9082 120.093C97.0918 119.785 97.1836 119.492 97.1836 119.214C97.1836 118.835 97.0879 118.539 96.8965 118.324C96.7051 118.105 96.4316 117.996 96.0762 117.996C95.6934 117.996 95.3906 118.128 95.168 118.394C94.9492 118.656 94.8398 119.001 94.8398 119.431H93.1406C93.1406 118.912 93.2637 118.437 93.5098 118.007C93.7598 117.578 94.1113 117.242 94.5645 116.999C95.0176 116.753 95.5312 116.63 96.1055 116.63C96.9844 116.63 97.666 116.841 98.1504 117.263C98.6387 117.685 98.8828 118.281 98.8828 119.05C98.8828 119.472 98.7734 119.902 98.5547 120.339C98.3359 120.777 97.9609 121.287 97.4297 121.869L95.4902 123.914H99.1582V125.279ZM105.943 121.751C105.943 122.931 105.699 123.833 105.211 124.458C104.723 125.083 104.008 125.396 103.066 125.396C102.137 125.396 101.426 125.089 100.934 124.476C100.441 123.863 100.189 122.984 100.178 121.839V120.269C100.178 119.078 100.424 118.173 100.916 117.556C101.412 116.939 102.125 116.63 103.055 116.63C103.984 116.63 104.695 116.937 105.188 117.55C105.68 118.16 105.932 119.037 105.943 120.181V121.751ZM104.25 120.029C104.25 119.322 104.152 118.808 103.957 118.488C103.766 118.164 103.465 118.001 103.055 118.001C102.656 118.001 102.361 118.156 102.17 118.464C101.982 118.769 101.883 119.247 101.871 119.9V121.974C101.871 122.669 101.965 123.187 102.152 123.527C102.344 123.863 102.648 124.031 103.066 124.031C103.48 124.031 103.779 123.869 103.963 123.544C104.146 123.22 104.242 122.724 104.25 122.056V120.029ZM112.939 125.279H107.092V124.119L109.852 121.177C110.23 120.763 110.51 120.402 110.689 120.093C110.873 119.785 110.965 119.492 110.965 119.214C110.965 118.835 110.869 118.539 110.678 118.324C110.486 118.105 110.213 117.996 109.857 117.996C109.475 117.996 109.172 118.128 108.949 118.394C108.73 118.656 108.621 119.001 108.621 119.431H106.922C106.922 118.912 107.045 118.437 107.291 118.007C107.541 117.578 107.893 117.242 108.346 116.999C108.799 116.753 109.312 116.63 109.887 116.63C110.766 116.63 111.447 116.841 111.932 117.263C112.42 117.685 112.664 118.281 112.664 119.05C112.664 119.472 112.555 119.902 112.336 120.339C112.117 120.777 111.742 121.287 111.211 121.869L109.271 123.914H112.939V125.279ZM119.725 121.751C119.725 122.931 119.48 123.833 118.992 124.458C118.504 125.083 117.789 125.396 116.848 125.396C115.918 125.396 115.207 125.089 114.715 124.476C114.223 123.863 113.971 122.984 113.959 121.839V120.269C113.959 119.078 114.205 118.173 114.697 117.556C115.193 116.939 115.906 116.63 116.836 116.63C117.766 116.63 118.477 116.937 118.969 117.55C119.461 118.16 119.713 119.037 119.725 120.181V121.751ZM118.031 120.029C118.031 119.322 117.934 118.808 117.738 118.488C117.547 118.164 117.246 118.001 116.836 118.001C116.438 118.001 116.143 118.156 115.951 118.464C115.764 118.769 115.664 119.247 115.652 119.9V121.974C115.652 122.669 115.746 123.187 115.934 123.527C116.125 123.863 116.43 124.031 116.848 124.031C117.262 124.031 117.561 123.869 117.744 123.544C117.928 123.22 118.023 122.724 118.031 122.056V120.029Z" fill="#FDFDFD"/>
<path d="M71.582 83.2652L68.4375 83.2652C62.832 83.2652 58.2617 78.9172 58.2617 73.5429L58.2617 54.5274C58.2617 49.1717 62.8125 44.805 68.4375 44.805L71.582 44.805C77.1875 44.805 81.7578 49.153 81.7578 54.5274L81.7578 73.5429C81.7383 78.9172 77.1875 83.2652 71.582 83.2652Z" fill="#E2B291"/>
<path d="M118.184 94.4245C114.004 80.4661 99.8437 69.1016 81.7383 65.3507L81.7383 65.556C81.7383 67.8886 70.0586 81.8283 70.0586 81.8283C70.0586 81.8283 58.2422 67.9073 58.2422 65.556L58.2422 65.3507C40.1562 69.1016 25.9961 80.4661 21.8164 94.4245L118.184 94.4245Z" fill="#CCCCCC"/>
<path d="M74.4141 94.4245C73.2227 91.2522 71.4453 86.4376 71.582 86.2883L67.9102 86.2883C68.0664 86.4376 66.2305 91.2522 65 94.4245L74.4141 94.4245Z" fill="#0F0F6D"/>
<path d="M70 87.464C72.7183 87.464 74.9219 86.1857 74.9219 84.6088C74.9219 83.032 72.7183 81.7537 70 81.7537C67.2817 81.7537 65.0781 83.032 65.0781 84.6088C65.0781 86.1857 67.2817 87.464 70 87.464Z" fill="#18157C"/>
<path d="M81.7383 65.3507C81.7383 65.3507 82.1484 66.9182 70.0586 81.8097C70.0586 81.8097 77.1875 82.1642 85.7031 86.2883C85.7227 86.2883 90.4883 69.2882 81.7383 65.3507Z" fill="white"/>
<path d="M58.2617 65.3507C58.2617 65.3507 57.9883 66.9182 70.0781 81.8097C70.0781 81.8097 62.8125 82.1642 54.2969 86.2883C54.2773 86.2883 49.5117 69.2882 58.2617 65.3507Z" fill="white"/>
<path d="M96.4061 41.0313C99.853 41.7471 103.487 38.6371 104.522 34.0849C105.558 29.5328 103.603 25.2622 100.156 24.5464C96.7095 23.8306 93.0757 26.9406 92.0401 31.4928C91.0045 36.0449 92.9593 40.3155 96.4061 41.0313Z" fill="#F4C5A2"/>
<path d="M39.8605 24.5264C36.4136 25.2422 34.4589 29.5128 35.4945 34.065C36.53 38.6172 40.1638 41.7271 43.6106 41.0113C47.0575 40.2955 49.0122 36.025 47.9767 31.4728C46.9411 26.9206 43.3073 23.8106 39.8605 24.5264Z" fill="#F4C5A2"/>
<path d="M70.0781 62.2903C85.2336 62.2903 97.5195 48.5968 97.5195 31.705C97.5195 14.8132 85.2336 1.11966 70.0781 1.11966C54.9227 1.11966 42.6367 14.8132 42.6367 31.705C42.6367 48.5968 54.9227 62.2903 70.0781 62.2903Z" fill="#F4C5A2"/>
<path d="M96.1719 41.0168L93.9844 41.0728C90.5078 46.2792 84.5703 46.0739 84.5703 46.0739C82.8516 46.2232 79.1406 43.2375 79.1406 43.2375C74.668 40.8489 70.8594 42.6963 70.0391 43.1442C69.2383 42.6963 65.4102 40.8489 60.9375 43.2375C60.9375 43.2375 57.2266 46.2232 55.5078 46.0739C55.5078 46.0739 49.5703 46.2792 46.0938 41.0728L43.9258 41.0168C47.4609 53.3517 57.832 62.2903 70.0586 62.2903C82.2266 62.2903 92.5586 53.445 96.1328 41.2221L96.1719 41.0168ZM70.5273 55.4231C70.3711 55.4044 70.2148 55.3858 70.0586 55.3671C69.9023 55.3858 69.7461 55.4044 69.5898 55.4231C62.4414 54.9752 62.1289 49.8435 62.5195 46.7084C62.2461 46.3539 62.6758 45.906 63.0664 46.1486C64.668 47.1563 67.1484 48.3319 69.9219 48.3319C69.9609 48.3319 70.0195 48.3319 70.0586 48.3319C70.0977 48.3319 70.1563 48.3319 70.1953 48.3319C72.9688 48.3319 75.4492 47.1563 77.0508 46.1486C77.4414 45.906 77.8711 46.3539 77.5977 46.7084C77.9883 49.8248 77.6953 54.9752 70.5273 55.4231Z" fill="#3F2820"/>
<path d="M58.7767 27.4275C54.8256 27.4919 51.6576 30.3763 51.7143 33.8578C51.7711 37.3392 55.0313 40.119 58.9824 40.0546C62.9335 39.9902 66.1014 37.1058 66.0447 33.6243C66.0275 32.5691 65.6881 31.5948 65.1518 30.7284L70.2579 26.3924L75.0714 30.4965C74.5393 31.3965 74.2159 32.4068 74.2335 33.4909C74.2902 36.9724 77.5505 39.7521 81.5016 39.6877C85.4527 39.6234 88.6206 36.7389 88.5639 33.2575C88.5072 29.776 85.2469 26.9963 81.2959 27.0606C80.0655 27.0807 78.9301 27.3987 77.9266 27.8986L73.2169 23.8813L84.4087 14.3795C85.5447 13.3451 86.1692 11.9582 86.1458 10.5241L86.0612 5.33078L62.927 28.5327C61.7441 27.8194 60.3182 27.4024 58.7767 27.4275ZM61.9503 33.691C61.9746 35.1828 60.6167 36.4193 58.9236 36.4469C57.2306 36.4744 55.833 35.2829 55.8087 33.7911C55.7844 32.2993 57.1424 31.0628 58.8355 31.0352C60.5285 31.0077 61.926 32.1992 61.9503 33.691ZM84.4695 33.3242C84.4938 34.816 83.1358 36.0524 81.4428 36.08C79.7498 36.1076 78.3522 34.916 78.3279 33.4242C78.3036 31.9324 79.6616 30.696 81.3546 30.6684C83.0477 30.6408 84.4452 31.8324 84.4695 33.3242Z" fill="#806060"/>
<path d="M55.2525 14.8544L64.3977 21.3942L67.2509 18.7963L53.3061 5.86435L53.3907 11.0577C53.414 12.4918 54.0834 13.8576 55.2525 14.8544Z" fill="black"/>
</svg>
