<svg width="358" height="153" viewBox="0 0 358 153" fill="none" xmlns="http://www.w3.org/2000/svg">
<g clip-path="url(#clip0)" filter="url(#filter0_d)">
<path d="M38.3382 127.288C37.4381 129.216 38.3235 131.435 40.3118 132.236C42.3002 133.038 44.6499 132.121 45.55 130.194C46.45 128.267 45.5647 126.047 43.5763 125.246C42.9736 125.003 42.3405 124.935 41.7219 124.989L40.4725 121.486L43.9417 120.133C44.3261 120.605 44.8225 121.002 45.4417 121.251C47.4301 122.052 49.7798 121.136 50.6799 119.209C51.5799 117.282 50.6946 115.062 48.7062 114.261C46.7178 113.459 44.3681 114.376 43.4681 116.303C43.1878 116.903 43.0991 117.528 43.1448 118.133L39.7494 119.456L37.0122 111.778C36.6948 110.982 36.056 110.35 35.237 110.02L32.2709 108.825L39.949 125.543C39.2639 125.945 38.6893 126.536 38.3382 127.288ZM42.6436 127.243C43.4956 127.586 43.8751 128.538 43.4895 129.364C43.1038 130.19 42.0966 130.582 41.2446 130.239C40.3925 129.896 40.013 128.944 40.3987 128.118C40.7844 127.293 41.7916 126.9 42.6436 127.243ZM47.7735 116.258C48.6255 116.601 49.005 117.553 48.6193 118.379C48.2337 119.205 47.2265 119.597 46.3744 119.254C45.5224 118.911 45.1429 117.959 45.5286 117.133C45.9143 116.307 46.9215 115.915 47.7735 116.258Z" fill="#261B1B"/>
<path d="M30.3704 126.001L36.2481 123.132L35.4507 121.133L24.8092 124.803L27.7753 125.998C28.5944 126.328 29.5279 126.33 30.3704 126.001Z" fill="#261B1B"/>
</g>
<g clip-path="url(#clip1)" filter="url(#filter1_d)">
<path d="M197.23 101.957C198.069 103.908 200.389 104.888 202.402 104.141C204.415 103.394 205.369 101.2 204.53 99.2485C203.691 97.2975 201.372 96.318 199.359 97.0649C198.749 97.2912 198.251 97.6611 197.856 98.1065L194.299 96.4631L195.709 93.2229C196.34 93.3016 196.993 93.2539 197.62 93.0213C199.633 92.2744 200.587 90.0798 199.748 88.1288C198.909 86.1778 196.59 85.1982 194.577 85.9451C192.564 86.692 191.609 88.8866 192.448 90.8376C192.71 91.4452 193.125 91.944 193.619 92.3397L192.239 95.5104L184.443 91.9078C183.612 91.5565 182.678 91.5323 181.849 91.84L178.847 92.9541L197.031 99.6659C196.856 100.401 196.903 101.196 197.23 101.957ZM200.228 99.0866C201.091 98.7666 202.085 99.1865 202.445 100.022C202.804 100.858 202.395 101.799 201.532 102.119C200.67 102.439 199.675 102.019 199.316 101.183C198.956 100.347 199.366 99.4067 200.228 99.0866ZM195.446 87.9669C196.309 87.6468 197.303 88.0667 197.663 88.9027C198.022 89.7387 197.613 90.6795 196.75 90.9995C195.888 91.3196 194.894 90.8997 194.534 90.0637C194.175 89.2277 194.584 88.2869 195.446 87.9669Z" fill="#261B1B"/>
<path d="M190.635 106.305L192.582 100.408L190.492 99.526L185.802 109.128L188.805 108.014C189.634 107.707 190.292 107.092 190.635 106.305Z" fill="#261B1B"/>
</g>
<g filter="url(#filter2_d)">
<path d="M118.568 70.7374C120.797 70.3835 122.314 68.4812 121.949 66.4967C121.583 64.5122 119.473 63.1857 117.243 63.5396C115.014 63.8936 113.498 65.7958 113.863 67.7804C113.973 68.3819 114.259 68.9112 114.645 69.3632L112.171 72.2504L109.054 70.2919C109.269 69.735 109.356 69.1318 109.242 68.5139C108.877 66.5293 106.766 65.2029 104.537 65.5568C102.308 65.9107 100.791 67.813 101.156 69.7975C101.521 71.782 103.632 73.1085 105.861 72.7546C106.556 72.6444 107.168 72.3715 107.687 72.0054L110.737 73.9226L105.313 80.2496C104.769 80.9317 104.549 81.7742 104.699 82.5917L105.244 85.552L116.114 70.4391C116.851 70.7517 117.698 70.8755 118.568 70.7374ZM116.173 67.4136C116.016 66.5632 116.667 65.7478 117.622 65.5962C118.577 65.4445 119.482 66.0131 119.638 66.8635C119.795 67.7138 119.145 68.5293 118.189 68.6809C117.234 68.8326 116.329 68.264 116.173 67.4136ZM103.466 69.4307C103.31 68.5804 103.96 67.765 104.915 67.6133C105.871 67.4617 106.775 68.0303 106.932 68.8806C107.088 69.731 106.438 70.5464 105.483 70.6981C104.528 70.8497 103.623 70.2811 103.466 69.4307Z" fill="#261B1B"/>
<path d="M121.764 77.6379L115.964 74.6356L114.599 76.3489L123.726 82.618L123.181 79.6577C123.031 78.8402 122.521 78.1136 121.764 77.6379Z" fill="#261B1B"/>
</g>
<g clip-path="url(#clip2)" filter="url(#filter3_d)">
<path d="M139.147 32.0422C140.839 30.6488 141.047 28.2896 139.609 26.7828C138.172 25.276 135.626 25.1837 133.933 26.5771C132.24 27.9705 132.033 30.3297 133.47 31.8365C133.906 32.2932 134.449 32.6031 135.034 32.7976L134.572 36.4629L130.812 36.3267C130.679 35.7482 130.409 35.1935 129.962 34.7243C128.524 33.2175 125.978 33.1253 124.285 34.5186C122.593 35.912 122.385 38.2712 123.822 39.778C125.26 41.2848 127.806 41.3771 129.499 39.9837C130.026 39.5498 130.391 39.0181 130.625 38.4522L134.304 38.5863L133.291 46.6191C133.216 47.4651 133.508 48.2889 134.1 48.9096L136.244 51.1573L136.893 32.9916C137.697 32.8956 138.486 32.5858 139.147 32.0422ZM135.224 30.3926C134.608 29.7469 134.697 28.7356 135.423 28.1385C136.148 27.5415 137.239 27.581 137.855 28.2267C138.471 28.8724 138.382 29.8837 137.657 30.4807C136.932 31.0778 135.84 31.0382 135.224 30.3926ZM125.577 38.3341C124.961 37.6885 125.05 36.6771 125.775 36.0801C126.5 35.483 127.592 35.5226 128.208 36.1682C128.824 36.8139 128.735 37.8252 128.009 38.4223C127.284 39.0193 126.192 38.9798 125.577 38.3341Z" fill="#261B1B"/>
<path d="M145.782 36.3369L139.15 36.6295L138.963 38.7543L150.277 39.606L148.133 37.3583C147.541 36.7376 146.695 36.37 145.782 36.3369Z" fill="#261B1B"/>
</g>
<g clip-path="url(#clip3)" filter="url(#filter4_d)">
<path d="M56.0602 34.4013C54.444 32.9316 51.8959 32.9064 50.3797 34.3451C48.8635 35.7838 48.9449 38.1496 50.5611 39.6193C52.1773 41.089 54.7254 41.1142 56.2416 39.6755C56.7012 39.2394 56.9954 38.7144 57.1629 38.1586L61.1315 38.3267L61.2517 41.8198C60.64 41.9847 60.0634 42.2735 59.5913 42.7215C58.0751 44.1602 58.1564 46.5261 59.7727 47.9957C61.3889 49.4654 63.937 49.4906 65.4532 48.0519C66.9694 46.6132 66.888 44.2474 65.2718 42.7777C64.7685 42.32 64.1717 42.0196 63.5474 41.8432L63.4307 38.4248L72.1284 38.794C73.0422 38.8031 73.9062 38.4749 74.5307 37.8823L76.7924 35.7362L57.2395 36.4225C57.0794 35.6843 56.6908 34.9747 56.0602 34.4013ZM54.5668 38.1525C53.9171 38.769 52.8248 38.7582 52.1323 38.1285C51.4397 37.4987 51.4048 36.4845 52.0545 35.8681C52.7042 35.2516 53.7965 35.2624 54.489 35.8922C55.1816 36.5219 55.2165 37.5361 54.5668 38.1525ZM63.7784 46.529C63.1287 47.1454 62.0364 47.1346 61.3438 46.5049C60.6513 45.8751 60.6164 44.8609 61.2661 44.2445C61.9158 43.628 63.0081 43.6388 63.7006 44.2686C64.3932 44.8983 64.428 45.9125 63.7784 46.529Z" fill="#261B1B"/>
<path d="M60.2019 27.9489L60.9861 34.0734L63.281 34.0961L63.3938 23.5523L61.1321 25.6985C60.5075 26.2911 60.1728 27.1005 60.2019 27.9489Z" fill="#261B1B"/>
</g>
<g clip-path="url(#clip4)" filter="url(#filter5_d)">
<path d="M113.299 112.121C111.498 110.849 108.967 111.119 107.655 112.722C106.344 114.324 106.741 116.663 108.542 117.934C110.342 119.205 112.874 118.936 114.186 117.333C114.583 116.847 114.805 116.292 114.897 115.721L118.857 115.429L119.444 118.881C118.859 119.116 118.326 119.469 117.917 119.968C116.606 121.571 117.003 123.909 118.804 125.18C120.605 126.452 123.136 126.182 124.448 124.579C125.76 122.977 125.362 120.638 123.561 119.367C123.001 118.971 122.368 118.742 121.725 118.639L121.151 115.261L129.831 114.622C130.739 114.525 131.552 114.1 132.092 113.439L134.049 111.048L114.74 113.99C114.482 113.276 114.002 112.617 113.299 112.121ZM112.32 116.015C111.758 116.702 110.673 116.818 109.901 116.273C109.129 115.728 108.959 114.726 109.521 114.039C110.083 113.352 111.168 113.237 111.94 113.782C112.711 114.326 112.882 115.329 112.32 116.015ZM122.582 123.262C122.02 123.949 120.935 124.064 120.163 123.519C119.392 122.975 119.221 121.972 119.783 121.286C120.345 120.599 121.431 120.483 122.202 121.028C122.974 121.573 123.144 122.575 122.582 123.262Z" fill="#261B1B"/>
<path d="M116.544 105.24L118.143 111.226L120.423 110.983L119.122 100.508L117.165 102.899C116.625 103.559 116.401 104.401 116.544 105.24Z" fill="#261B1B"/>
</g>
<g clip-path="url(#clip5)" filter="url(#filter6_d)">
<path d="M268.941 126.366C270.836 125.22 271.416 122.915 270.233 121.227C269.05 119.54 266.546 119.101 264.651 120.247C262.756 121.394 262.176 123.699 263.359 125.386C263.718 125.897 264.206 126.278 264.753 126.551L263.715 130.113L260.019 129.464C259.978 128.873 259.8 128.288 259.431 127.762C258.248 126.075 255.745 125.636 253.849 126.782C251.954 127.929 251.375 130.234 252.557 131.921C253.74 133.608 256.244 134.047 258.139 132.901C258.73 132.544 259.175 132.068 259.496 131.54L263.113 132.176L260.838 139.983C260.63 140.809 260.787 141.664 261.274 142.359L263.039 144.876L266.561 126.997C267.372 127.012 268.202 126.813 268.941 126.366ZM265.323 124.198C264.816 123.475 265.065 122.487 265.877 121.996C266.689 121.504 267.762 121.693 268.269 122.416C268.776 123.139 268.528 124.127 267.715 124.618C266.903 125.109 265.83 124.921 265.323 124.198ZM254.521 130.733C254.015 130.01 254.263 129.022 255.075 128.53C255.887 128.039 256.96 128.227 257.467 128.95C257.974 129.673 257.726 130.661 256.914 131.153C256.102 131.644 255.028 131.455 254.521 130.733Z" fill="#261B1B"/>
<path d="M274.823 131.522L268.217 130.904L267.695 132.98L278.751 135.37L276.986 132.854C276.499 132.159 275.721 131.68 274.823 131.522Z" fill="#261B1B"/>
</g>
<g clip-path="url(#clip6)" filter="url(#filter7_d)">
<path d="M341.687 64.053C343.837 64.7377 346.143 63.7491 346.827 61.8491C347.511 59.9491 346.319 57.8466 344.169 57.1619C342.019 56.4771 339.713 57.4657 339.029 59.3657C338.822 59.9416 338.805 60.5322 338.917 61.1001L335.265 62.5236L333.505 59.4193C333.977 59.0277 334.36 58.5383 334.573 57.9466C335.257 56.0466 334.065 53.9441 331.915 53.2594C329.765 52.5746 327.459 53.5632 326.775 55.4632C326.091 57.3632 327.283 59.4658 329.433 60.1505C330.102 60.3637 330.782 60.3979 331.427 60.3093L333.149 63.3476L325.145 66.4665C324.318 66.821 323.696 67.46 323.414 68.2426L322.393 71.0769L339.669 62.6971C340.163 63.2998 340.848 63.7858 341.687 64.053ZM341.257 60.0753C341.55 59.2611 342.539 58.8373 343.46 59.1307C344.381 59.4241 344.892 60.3254 344.599 61.1396C344.306 61.9537 343.317 62.3775 342.396 62.0841C341.475 61.7907 340.964 60.8894 341.257 60.0753ZM329.003 56.1728C329.296 55.3586 330.285 54.9348 331.206 55.2282C332.127 55.5216 332.638 56.4229 332.345 57.2371C332.052 58.0512 331.063 58.475 330.142 58.1816C329.221 57.8882 328.71 56.9869 329.003 56.1728Z" fill="#261B1B"/>
<path d="M341.011 71.5192L337.408 66.3039L335.331 67.1942L340.217 76.7532L341.238 73.919C341.52 73.1364 341.438 72.2731 341.011 71.5192Z" fill="#261B1B"/>
</g>
<g clip-path="url(#clip7)" filter="url(#filter8_d)">
<path d="M330.941 11.6078C332.308 9.95323 331.965 7.65973 330.175 6.49489C328.385 5.33006 325.817 5.72843 324.45 7.38299C323.083 9.03755 323.427 11.3311 325.216 12.4959C325.759 12.849 326.374 13.0412 327.005 13.1153L327.4 16.7051L323.608 17.2933C323.339 16.7662 322.94 16.2878 322.383 15.925C320.593 14.7602 318.025 15.1586 316.658 16.8131C315.291 18.4677 315.635 20.7612 317.425 21.926C319.214 23.0909 321.782 22.6925 323.149 21.0379C323.575 20.5227 323.816 19.945 323.917 19.3598L327.628 18.7849L328.492 26.6524C328.615 27.4748 329.099 28.2062 329.836 28.6861L332.506 30.4237L328.909 12.9455C329.691 12.7002 330.408 12.2533 330.941 11.6078ZM326.633 10.7813C325.866 10.2822 325.719 9.29905 326.305 8.59008C326.891 7.8811 327.991 7.71033 328.758 8.20946C329.525 8.70859 329.672 9.69173 329.087 10.4007C328.501 11.1097 327.4 11.2804 326.633 10.7813ZM318.841 20.2115C318.074 19.7123 317.927 18.7292 318.513 18.0202C319.099 17.3112 320.199 17.1405 320.966 17.6396C321.733 18.1387 321.881 19.1219 321.295 19.8308C320.709 20.5398 319.608 20.7106 318.841 20.2115Z" fill="#261B1B"/>
<path d="M338.58 14.4429L332.016 15.9897L332.326 18.0553L343.839 16.7071L341.17 14.9695C340.432 14.4897 339.501 14.3001 338.58 14.4429Z" fill="#261B1B"/>
</g>
<g clip-path="url(#clip8)" filter="url(#filter9_d)">
<path d="M222.697 56.3943C224.569 57.5735 227.082 57.1772 228.298 55.5109C229.514 53.8446 228.981 51.5299 227.109 50.3508C225.238 49.1716 222.725 49.5679 221.509 51.2342C221.14 51.7393 220.951 52.3046 220.893 52.8791L216.955 53.3696L216.168 49.9521C216.738 49.6887 217.25 49.3092 217.629 48.7904C218.846 47.1241 218.312 44.8094 216.441 43.6302C214.569 42.4511 212.056 42.8474 210.84 44.5137C209.623 46.18 210.157 48.4946 212.028 49.6738C212.611 50.041 213.256 50.238 213.904 50.3084L214.674 53.653L206.044 54.727C205.143 54.8691 204.356 55.3348 203.855 56.0212L202.04 58.5068L221.15 54.6002C221.449 55.3002 221.967 55.9343 222.697 56.3943ZM223.449 52.4561C223.97 51.7421 225.047 51.5722 225.849 52.0775C226.651 52.5827 226.879 53.575 226.358 54.289C225.837 55.003 224.76 55.1728 223.958 54.6676C223.156 54.1623 222.927 53.1701 223.449 52.4561ZM212.78 45.7356C213.301 45.0216 214.378 44.8517 215.18 45.357C215.982 45.8622 216.211 46.8544 215.689 47.5684C215.168 48.2825 214.091 48.4523 213.289 47.9471C212.487 47.4418 212.258 46.4496 212.78 45.7356Z" fill="#261B1B"/>
<path d="M219.857 63.4282L217.913 57.531L215.65 57.8879L217.559 68.2821L219.373 65.7965C219.874 65.1101 220.049 64.2583 219.857 63.4282Z" fill="#261B1B"/>
</g>
<rect y="1" width="358" height="148" fill="#481D4F" fill-opacity="0.5"/>
<path d="M209.702 106.534V98.0023H212.327C213.077 98.0023 213.747 98.1723 214.337 98.5121C214.931 98.848 215.394 99.3285 215.726 99.9535C216.058 100.575 216.224 101.282 216.224 102.075V102.467C216.224 103.26 216.06 103.965 215.732 104.582C215.407 105.2 214.948 105.678 214.355 106.018C213.761 106.358 213.091 106.53 212.345 106.534H209.702ZM211.46 99.4262V105.121H212.31C212.997 105.121 213.523 104.897 213.886 104.448C214.249 103.998 214.435 103.356 214.442 102.52V102.069C214.442 101.202 214.263 100.545 213.903 100.1C213.544 99.6508 213.019 99.4262 212.327 99.4262H211.46ZM222.64 102.836H219.265V105.121H223.226V106.534H217.507V98.0023H223.214V99.4262H219.265V101.459H222.64V102.836ZM227.415 103.411H226.015V106.534H224.257V98.0023H227.427C228.435 98.0023 229.212 98.2269 229.759 98.6762C230.306 99.1254 230.579 99.7601 230.579 100.58C230.579 101.162 230.452 101.649 230.198 102.039C229.948 102.426 229.567 102.735 229.056 102.965L230.901 106.452V106.534H229.015L227.415 103.411ZM226.015 101.987H227.433C227.874 101.987 228.216 101.875 228.458 101.653C228.7 101.426 228.821 101.116 228.821 100.721C228.821 100.319 228.706 100.002 228.476 99.7719C228.249 99.5414 227.9 99.4262 227.427 99.4262H226.015V101.987ZM237.054 102.836H233.679V105.121H237.64V106.534H231.921V98.0023H237.628V99.4262H233.679V101.459H237.054V102.836ZM245.368 103.692C245.302 104.61 244.962 105.332 244.349 105.86C243.739 106.387 242.935 106.651 241.935 106.651C240.841 106.651 239.98 106.284 239.351 105.549C238.726 104.811 238.413 103.799 238.413 102.514V101.993C238.413 101.172 238.558 100.45 238.847 99.8246C239.136 99.1996 239.548 98.7211 240.083 98.3891C240.622 98.0531 241.247 97.8851 241.958 97.8851C242.942 97.8851 243.735 98.1488 244.337 98.6762C244.939 99.2035 245.286 99.9437 245.38 100.897H243.622C243.579 100.346 243.425 99.9476 243.159 99.7016C242.898 99.4516 242.497 99.3266 241.958 99.3266C241.372 99.3266 240.933 99.5375 240.64 99.9594C240.351 100.377 240.202 101.028 240.194 101.911V102.555C240.194 103.477 240.333 104.151 240.61 104.577C240.892 105.002 241.333 105.215 241.935 105.215C242.478 105.215 242.882 105.092 243.148 104.846C243.417 104.596 243.571 104.211 243.61 103.692H245.368ZM253.466 106.534H251.708V102.877H248.28V106.534H246.523V98.0023H248.28V101.459H251.708V98.0023H253.466V106.534ZM262.015 102.461C262.015 103.301 261.866 104.037 261.569 104.67C261.273 105.303 260.847 105.791 260.292 106.135C259.741 106.479 259.109 106.651 258.394 106.651C257.687 106.651 257.056 106.481 256.501 106.141C255.946 105.801 255.517 105.317 255.212 104.688C254.907 104.055 254.753 103.329 254.749 102.508V102.086C254.749 101.246 254.9 100.508 255.2 99.8715C255.505 99.2309 255.933 98.7406 256.484 98.4008C257.038 98.057 257.671 97.8851 258.382 97.8851C259.093 97.8851 259.724 98.057 260.275 98.4008C260.829 98.7406 261.257 99.2309 261.558 99.8715C261.862 100.508 262.015 101.245 262.015 102.08V102.461ZM260.234 102.075C260.234 101.18 260.073 100.5 259.753 100.036C259.433 99.5707 258.976 99.3383 258.382 99.3383C257.792 99.3383 257.337 99.5687 257.017 100.03C256.696 100.487 256.534 101.159 256.53 102.045V102.461C256.53 103.332 256.691 104.008 257.011 104.489C257.331 104.969 257.792 105.209 258.394 105.209C258.984 105.209 259.437 104.979 259.753 104.518C260.069 104.053 260.23 103.377 260.234 102.491V102.075ZM267.716 104.295C267.716 103.963 267.599 103.709 267.364 103.534C267.13 103.354 266.708 103.166 266.099 102.971C265.489 102.772 265.007 102.577 264.651 102.385C263.683 101.862 263.198 101.157 263.198 100.27C263.198 99.809 263.327 99.3988 263.585 99.0394C263.847 98.6762 264.22 98.393 264.704 98.1898C265.192 97.9867 265.739 97.8851 266.345 97.8851C266.954 97.8851 267.497 97.9965 267.974 98.2191C268.45 98.4379 268.819 98.7484 269.081 99.1508C269.347 99.5531 269.48 100.01 269.48 100.522H267.722C267.722 100.131 267.599 99.8285 267.353 99.6137C267.107 99.3949 266.761 99.2855 266.316 99.2855C265.886 99.2855 265.552 99.3773 265.314 99.5609C265.075 99.7406 264.956 99.9789 264.956 100.276C264.956 100.553 265.095 100.786 265.372 100.973C265.653 101.161 266.066 101.336 266.609 101.5C267.609 101.801 268.337 102.174 268.794 102.62C269.251 103.065 269.48 103.62 269.48 104.284C269.48 105.022 269.2 105.602 268.642 106.024C268.083 106.442 267.331 106.651 266.386 106.651C265.73 106.651 265.132 106.532 264.593 106.293C264.054 106.051 263.642 105.721 263.357 105.303C263.075 104.885 262.935 104.401 262.935 103.85H264.698C264.698 104.791 265.261 105.262 266.386 105.262C266.804 105.262 267.13 105.178 267.364 105.01C267.599 104.838 267.716 104.6 267.716 104.295ZM276.821 103.411H275.421V106.534H273.663V98.0023H276.833C277.841 98.0023 278.618 98.2269 279.165 98.6762C279.712 99.1254 279.985 99.7601 279.985 100.58C279.985 101.162 279.859 101.649 279.605 102.039C279.355 102.426 278.974 102.735 278.462 102.965L280.308 106.452V106.534H278.421L276.821 103.411ZM275.421 101.987H276.839C277.28 101.987 277.622 101.875 277.864 101.653C278.107 101.426 278.228 101.116 278.228 100.721C278.228 100.319 278.112 100.002 277.882 99.7719C277.655 99.5414 277.306 99.4262 276.833 99.4262H275.421V101.987ZM286.46 102.836H283.085V105.121H287.046V106.534H281.327V98.0023H287.034V99.4262H283.085V101.459H286.46V102.836ZM292.501 104.295C292.501 103.963 292.384 103.709 292.15 103.534C291.915 103.354 291.493 103.166 290.884 102.971C290.275 102.772 289.792 102.577 289.437 102.385C288.468 101.862 287.984 101.157 287.984 100.27C287.984 99.809 288.112 99.3988 288.37 99.0394C288.632 98.6762 289.005 98.393 289.489 98.1898C289.978 97.9867 290.525 97.8851 291.13 97.8851C291.739 97.8851 292.282 97.9965 292.759 98.2191C293.235 98.4379 293.605 98.7484 293.866 99.1508C294.132 99.5531 294.265 100.01 294.265 100.522H292.507C292.507 100.131 292.384 99.8285 292.138 99.6137C291.892 99.3949 291.546 99.2855 291.101 99.2855C290.671 99.2855 290.337 99.3773 290.099 99.5609C289.86 99.7406 289.741 99.9789 289.741 100.276C289.741 100.553 289.88 100.786 290.157 100.973C290.439 101.161 290.851 101.336 291.394 101.5C292.394 101.801 293.122 102.174 293.579 102.62C294.036 103.065 294.265 103.62 294.265 104.284C294.265 105.022 293.985 105.602 293.427 106.024C292.868 106.442 292.116 106.651 291.171 106.651C290.515 106.651 289.917 106.532 289.378 106.293C288.839 106.051 288.427 105.721 288.142 105.303C287.86 104.885 287.72 104.401 287.72 103.85H289.484C289.484 104.791 290.046 105.262 291.171 105.262C291.589 105.262 291.915 105.178 292.15 105.01C292.384 104.838 292.501 104.6 292.501 104.295ZM300.593 102.836H297.218V105.121H301.179V106.534H295.46V98.0023H301.167V99.4262H297.218V101.459H300.593V102.836ZM305.368 103.411H303.968V106.534H302.21V98.0023H305.38C306.388 98.0023 307.165 98.2269 307.712 98.6762C308.259 99.1254 308.532 99.7601 308.532 100.58C308.532 101.162 308.405 101.649 308.151 102.039C307.901 102.426 307.521 102.735 307.009 102.965L308.855 106.452V106.534H306.968L305.368 103.411ZM303.968 101.987H305.386C305.827 101.987 306.169 101.875 306.411 101.653C306.653 101.426 306.775 101.116 306.775 100.721C306.775 100.319 306.659 100.002 306.429 99.7719C306.202 99.5414 305.853 99.4262 305.38 99.4262H303.968V101.987ZM312.909 104.418L314.843 98.0023H316.8L313.829 106.534H311.995L309.036 98.0023H310.987L312.909 104.418ZM321.98 104.776H318.898L318.312 106.534H316.442L319.618 98.0023H321.247L324.441 106.534H322.571L321.98 104.776ZM319.372 103.352H321.505L320.433 100.159L319.372 103.352ZM325.237 106.534V98.0023H327.862C328.612 98.0023 329.282 98.1723 329.872 98.5121C330.466 98.848 330.929 99.3285 331.261 99.9535C331.593 100.575 331.759 101.282 331.759 102.075V102.467C331.759 103.26 331.595 103.965 331.267 104.582C330.942 105.2 330.484 105.678 329.89 106.018C329.296 106.358 328.626 106.53 327.88 106.534H325.237ZM326.995 99.4262V105.121H327.845C328.532 105.121 329.058 104.897 329.421 104.448C329.784 103.998 329.97 103.356 329.978 102.52V102.069C329.978 101.202 329.798 100.545 329.439 100.1C329.079 99.6508 328.554 99.4262 327.862 99.4262H326.995ZM340.05 102.461C340.05 103.301 339.901 104.037 339.605 104.67C339.308 105.303 338.882 105.791 338.327 106.135C337.776 106.479 337.144 106.651 336.429 106.651C335.722 106.651 335.091 106.481 334.536 106.141C333.982 105.801 333.552 105.317 333.247 104.688C332.942 104.055 332.788 103.329 332.784 102.508V102.086C332.784 101.246 332.935 100.508 333.235 99.8715C333.54 99.2309 333.968 98.7406 334.519 98.4008C335.073 98.057 335.706 97.8851 336.417 97.8851C337.128 97.8851 337.759 98.057 338.31 98.4008C338.864 98.7406 339.292 99.2309 339.593 99.8715C339.898 100.508 340.05 101.245 340.05 102.08V102.461ZM338.269 102.075C338.269 101.18 338.109 100.5 337.788 100.036C337.468 99.5707 337.011 99.3383 336.417 99.3383C335.827 99.3383 335.372 99.5687 335.052 100.03C334.732 100.487 334.569 101.159 334.566 102.045V102.461C334.566 103.332 334.726 104.008 335.046 104.489C335.366 104.969 335.827 105.209 336.429 105.209C337.019 105.209 337.472 104.979 337.788 104.518C338.105 104.053 338.265 103.377 338.269 102.491V102.075ZM345.751 104.295C345.751 103.963 345.634 103.709 345.4 103.534C345.165 103.354 344.743 103.166 344.134 102.971C343.525 102.772 343.042 102.577 342.687 102.385C341.718 101.862 341.234 101.157 341.234 100.27C341.234 99.809 341.362 99.3988 341.62 99.0394C341.882 98.6762 342.255 98.393 342.739 98.1898C343.228 97.9867 343.775 97.8851 344.38 97.8851C344.989 97.8851 345.532 97.9965 346.009 98.2191C346.485 98.4379 346.855 98.7484 347.116 99.1508C347.382 99.5531 347.515 100.01 347.515 100.522H345.757C345.757 100.131 345.634 99.8285 345.388 99.6137C345.142 99.3949 344.796 99.2855 344.351 99.2855C343.921 99.2855 343.587 99.3773 343.349 99.5609C343.11 99.7406 342.991 99.9789 342.991 100.276C342.991 100.553 343.13 100.786 343.407 100.973C343.689 101.161 344.101 101.336 344.644 101.5C345.644 101.801 346.372 102.174 346.829 102.62C347.286 103.065 347.515 103.62 347.515 104.284C347.515 105.022 347.235 105.602 346.677 106.024C346.118 106.442 345.366 106.651 344.421 106.651C343.765 106.651 343.167 106.532 342.628 106.293C342.089 106.051 341.677 105.721 341.392 105.303C341.11 104.885 340.97 104.401 340.97 103.85H342.734C342.734 104.791 343.296 105.262 344.421 105.262C344.839 105.262 345.165 105.178 345.4 105.01C345.634 104.838 345.751 104.6 345.751 104.295ZM237.61 117.692C237.544 118.61 237.204 119.332 236.591 119.86C235.982 120.387 235.177 120.651 234.177 120.651C233.083 120.651 232.222 120.284 231.593 119.549C230.968 118.811 230.655 117.799 230.655 116.514V115.993C230.655 115.172 230.8 114.45 231.089 113.825C231.378 113.2 231.79 112.721 232.325 112.389C232.864 112.053 233.489 111.885 234.2 111.885C235.185 111.885 235.978 112.149 236.579 112.676C237.181 113.204 237.528 113.944 237.622 114.897H235.864C235.821 114.346 235.667 113.948 235.401 113.702C235.14 113.452 234.739 113.327 234.2 113.327C233.614 113.327 233.175 113.537 232.882 113.959C232.593 114.377 232.444 115.028 232.437 115.911V116.555C232.437 117.477 232.575 118.151 232.853 118.577C233.134 119.002 233.575 119.215 234.177 119.215C234.72 119.215 235.124 119.092 235.39 118.846C235.659 118.596 235.814 118.211 235.853 117.692H237.61ZM245.773 116.461C245.773 117.301 245.624 118.037 245.327 118.67C245.03 119.303 244.605 119.791 244.05 120.135C243.499 120.479 242.866 120.651 242.151 120.651C241.444 120.651 240.814 120.481 240.259 120.141C239.704 119.801 239.275 119.317 238.97 118.688C238.665 118.055 238.511 117.329 238.507 116.508V116.086C238.507 115.246 238.657 114.508 238.958 113.871C239.263 113.231 239.691 112.741 240.241 112.401C240.796 112.057 241.429 111.885 242.14 111.885C242.851 111.885 243.482 112.057 244.032 112.401C244.587 112.741 245.015 113.231 245.316 113.871C245.62 114.508 245.773 115.245 245.773 116.08V116.461ZM243.991 116.075C243.991 115.18 243.831 114.5 243.511 114.036C243.191 113.571 242.734 113.338 242.14 113.338C241.55 113.338 241.095 113.569 240.775 114.03C240.454 114.487 240.292 115.159 240.288 116.045V116.461C240.288 117.332 240.448 118.008 240.769 118.489C241.089 118.969 241.55 119.209 242.151 119.209C242.741 119.209 243.194 118.979 243.511 118.518C243.827 118.053 243.987 117.377 243.991 116.491V116.075ZM248.808 117.528V120.534H247.05V112.002H250.378C251.019 112.002 251.581 112.12 252.066 112.354C252.554 112.588 252.929 112.922 253.191 113.356C253.452 113.786 253.583 114.276 253.583 114.827C253.583 115.662 253.296 116.323 252.722 116.807C252.151 117.287 251.36 117.528 250.349 117.528H248.808ZM248.808 116.104H250.378C250.843 116.104 251.196 115.995 251.439 115.776C251.685 115.557 251.808 115.245 251.808 114.838C251.808 114.42 251.685 114.082 251.439 113.825C251.192 113.567 250.853 113.434 250.419 113.426H248.808V116.104ZM257.737 115.846L259.513 112.002H261.435L258.634 117.44V120.534H256.847V117.44L254.046 112.002H255.974L257.737 115.846ZM265.372 117.411H263.972V120.534H262.214V112.002H265.384C266.392 112.002 267.169 112.227 267.716 112.676C268.263 113.125 268.536 113.76 268.536 114.58C268.536 115.162 268.409 115.649 268.155 116.039C267.905 116.426 267.525 116.735 267.013 116.965L268.859 120.452V120.534H266.972L265.372 117.411ZM263.972 115.987H265.39C265.831 115.987 266.173 115.875 266.415 115.653C266.657 115.426 266.778 115.116 266.778 114.721C266.778 114.319 266.663 114.002 266.433 113.772C266.206 113.541 265.857 113.426 265.384 113.426H263.972V115.987ZM271.747 120.534H269.989V112.002H271.747V120.534ZM280.132 119.455C279.816 119.834 279.368 120.129 278.79 120.34C278.212 120.547 277.571 120.651 276.868 120.651C276.13 120.651 275.482 120.491 274.923 120.17C274.368 119.846 273.939 119.377 273.634 118.764C273.333 118.151 273.179 117.43 273.171 116.602V116.022C273.171 115.17 273.314 114.434 273.599 113.813C273.888 113.188 274.302 112.711 274.841 112.383C275.384 112.051 276.019 111.885 276.745 111.885C277.757 111.885 278.548 112.127 279.118 112.612C279.689 113.092 280.026 113.793 280.132 114.715H278.421C278.343 114.227 278.169 113.87 277.9 113.643C277.634 113.416 277.267 113.303 276.798 113.303C276.2 113.303 275.745 113.528 275.433 113.977C275.12 114.426 274.962 115.094 274.958 115.981V116.526C274.958 117.42 275.128 118.096 275.468 118.553C275.808 119.01 276.306 119.239 276.962 119.239C277.622 119.239 278.093 119.098 278.374 118.817V117.346H276.775V116.051H280.132V119.455ZM288.505 120.534H286.747V116.877H283.319V120.534H281.562V112.002H283.319V115.459H286.747V112.002H288.505V120.534ZM296.292 113.426H293.679V120.534H291.921V113.426H289.343V112.002H296.292V113.426ZM305.603 120.534H299.755V119.373L302.515 116.432C302.894 116.018 303.173 115.657 303.353 115.348C303.536 115.039 303.628 114.746 303.628 114.469C303.628 114.09 303.532 113.793 303.341 113.579C303.15 113.36 302.876 113.25 302.521 113.25C302.138 113.25 301.835 113.383 301.612 113.649C301.394 113.911 301.284 114.256 301.284 114.686H299.585C299.585 114.166 299.708 113.692 299.954 113.262C300.204 112.832 300.556 112.496 301.009 112.254C301.462 112.008 301.976 111.885 302.55 111.885C303.429 111.885 304.11 112.096 304.595 112.518C305.083 112.94 305.327 113.536 305.327 114.305C305.327 114.727 305.218 115.157 304.999 115.594C304.78 116.032 304.405 116.541 303.874 117.123L301.935 119.168H305.603V120.534ZM312.388 117.006C312.388 118.186 312.144 119.088 311.655 119.713C311.167 120.338 310.452 120.651 309.511 120.651C308.581 120.651 307.87 120.344 307.378 119.731C306.886 119.118 306.634 118.239 306.622 117.094V115.524C306.622 114.332 306.868 113.428 307.36 112.811C307.857 112.194 308.569 111.885 309.499 111.885C310.429 111.885 311.14 112.192 311.632 112.805C312.124 113.414 312.376 114.291 312.388 115.436V117.006ZM310.694 115.284C310.694 114.577 310.597 114.063 310.401 113.743C310.21 113.418 309.909 113.256 309.499 113.256C309.101 113.256 308.806 113.411 308.614 113.719C308.427 114.024 308.327 114.502 308.316 115.155V117.229C308.316 117.924 308.409 118.442 308.597 118.782C308.788 119.118 309.093 119.286 309.511 119.286C309.925 119.286 310.224 119.123 310.407 118.799C310.591 118.475 310.687 117.979 310.694 117.311V115.284ZM319.384 120.534H313.536V119.373L316.296 116.432C316.675 116.018 316.954 115.657 317.134 115.348C317.317 115.039 317.409 114.746 317.409 114.469C317.409 114.09 317.314 113.793 317.122 113.579C316.931 113.36 316.657 113.25 316.302 113.25C315.919 113.25 315.616 113.383 315.394 113.649C315.175 113.911 315.066 114.256 315.066 114.686H313.366C313.366 114.166 313.489 113.692 313.735 113.262C313.985 112.832 314.337 112.496 314.79 112.254C315.243 112.008 315.757 111.885 316.331 111.885C317.21 111.885 317.892 112.096 318.376 112.518C318.864 112.94 319.109 113.536 319.109 114.305C319.109 114.727 318.999 115.157 318.78 115.594C318.562 116.032 318.187 116.541 317.655 117.123L315.716 119.168H319.384V120.534ZM326.169 117.006C326.169 118.186 325.925 119.088 325.437 119.713C324.948 120.338 324.234 120.651 323.292 120.651C322.362 120.651 321.651 120.344 321.159 119.731C320.667 119.118 320.415 118.239 320.403 117.094V115.524C320.403 114.332 320.65 113.428 321.142 112.811C321.638 112.194 322.351 111.885 323.28 111.885C324.21 111.885 324.921 112.192 325.413 112.805C325.905 113.414 326.157 114.291 326.169 115.436V117.006ZM324.476 115.284C324.476 114.577 324.378 114.063 324.183 113.743C323.991 113.418 323.691 113.256 323.28 113.256C322.882 113.256 322.587 113.411 322.396 113.719C322.208 114.024 322.109 114.502 322.097 115.155V117.229C322.097 117.924 322.191 118.442 322.378 118.782C322.569 119.118 322.874 119.286 323.292 119.286C323.706 119.286 324.005 119.123 324.189 118.799C324.372 118.475 324.468 117.979 324.476 117.311V115.284Z" fill="#FDFDFD"/>
<path d="M278.029 82.8004L274.902 82.8004C269.327 82.8004 264.782 78.8569 264.782 73.9825L264.782 56.7358C264.782 51.8783 269.308 47.9179 274.902 47.9179L278.029 47.9179C283.603 47.9179 288.148 51.8614 288.148 56.7358L288.148 73.9825C288.129 78.8569 283.603 82.8004 278.029 82.8004Z" fill="#E2B291"/>
<path d="M324.371 92.9216C320.215 80.2617 306.134 69.9543 288.129 66.5524L288.129 66.7385C288.129 68.8542 276.514 81.4972 276.514 81.4972C276.514 81.4972 264.763 68.8711 264.763 66.7385L264.763 66.5524C246.778 69.9543 232.696 80.2617 228.54 92.9216L324.371 92.9216Z" fill="#CCCCCC"/>
<path d="M280.845 92.9216C279.66 90.0444 277.893 85.6777 278.029 85.5423L274.377 85.5423C274.533 85.6777 272.707 90.0444 271.483 92.9216L280.845 92.9216Z" fill="#0F0F6D"/>
<path d="M276.456 86.6086C279.159 86.6086 281.35 85.4492 281.35 84.019C281.35 82.5889 279.159 81.4295 276.456 81.4295C273.752 81.4295 271.561 82.5889 271.561 84.019C271.561 85.4492 273.752 86.6086 276.456 86.6086Z" fill="#18157C"/>
<path d="M288.129 66.5524C288.129 66.5524 288.537 67.9741 276.514 81.4803C276.514 81.4803 283.603 81.8018 292.071 85.5423C292.091 85.5423 296.83 70.1236 288.129 66.5524Z" fill="white"/>
<path d="M264.782 66.5524C264.782 66.5524 264.511 67.9741 276.533 81.4803C276.533 81.4803 269.308 81.8018 260.84 85.5423C260.82 85.5423 256.081 70.1236 264.782 66.5524Z" fill="white"/>
<path d="M302.715 44.4952C306.143 45.1444 309.756 42.3238 310.786 38.195C311.816 34.0663 309.872 30.193 306.444 29.5438C303.017 28.8946 299.403 31.7153 298.373 35.844C297.343 39.9727 299.287 43.846 302.715 44.4952Z" fill="#F4C5A2"/>
<path d="M246.483 29.5257C243.056 30.1749 241.112 34.0482 242.142 38.177C243.172 42.3057 246.785 45.1264 250.213 44.4771C253.641 43.8279 255.584 39.9546 254.555 35.8259C253.525 31.6972 249.911 28.8765 246.483 29.5257Z" fill="#F4C5A2"/>
<path d="M276.533 63.7767C291.604 63.7767 303.822 51.357 303.822 36.0365C303.822 20.716 291.604 8.2963 276.533 8.2963C261.462 8.2963 249.244 20.716 249.244 36.0365C249.244 51.357 261.462 63.7767 276.533 63.7767Z" fill="#F4C5A2"/>
<path d="M302.482 44.4821L300.307 44.5329C296.849 49.255 290.945 49.0688 290.945 49.0688C289.236 49.2042 285.545 46.4962 285.545 46.4962C281.098 44.3298 277.31 46.0053 276.494 46.4115C275.698 46.0053 271.891 44.3298 267.443 46.4962C267.443 46.4962 263.753 49.2042 262.044 49.0688C262.044 49.0688 256.139 49.255 252.682 44.5329L250.526 44.4821C254.042 55.6696 264.355 63.7767 276.514 63.7767C288.614 63.7767 298.889 55.7542 302.443 44.6683L302.482 44.4821ZM276.98 57.5482C276.825 57.5313 276.669 57.5144 276.514 57.4975C276.358 57.5144 276.203 57.5313 276.048 57.5482C268.939 57.142 268.628 52.4876 269.017 49.6442C268.745 49.3227 269.172 48.9165 269.56 49.1365C271.153 50.0504 273.62 51.1167 276.378 51.1167C276.417 51.1167 276.475 51.1167 276.514 51.1167C276.553 51.1167 276.611 51.1167 276.65 51.1167C279.408 51.1167 281.874 50.0504 283.467 49.1365C283.856 48.9165 284.283 49.3227 284.011 49.6442C284.399 52.4707 284.108 57.142 276.98 57.5482Z" fill="#3F2820"/>
<g clip-path="url(#clip9)">
<path d="M265.51 34.7083C261.559 34.7726 258.391 37.6571 258.448 41.1386C258.504 44.62 261.765 47.3998 265.716 47.3354C269.667 47.271 272.835 44.3866 272.778 40.9051C272.761 39.8498 272.421 38.8756 271.885 38.0092L276.991 33.6732L281.805 37.7773C281.273 38.6773 280.949 39.6876 280.967 40.7717C281.024 44.2532 284.284 47.0329 288.235 46.9685C292.186 46.9042 295.354 44.0197 295.297 40.5383C295.241 37.0568 291.98 34.2771 288.029 34.3414C286.799 34.3615 285.663 34.6795 284.66 35.1794L279.95 31.1621L291.142 21.6603C292.278 20.6259 292.903 19.239 292.879 17.8049L292.795 12.6116L269.66 35.8135C268.477 35.1002 267.052 34.6832 265.51 34.7083ZM268.684 40.9718C268.708 42.4636 267.35 43.7001 265.657 43.7276C263.964 43.7552 262.566 42.5637 262.542 41.0719C262.518 39.5801 263.876 38.3436 265.569 38.316C267.262 38.2884 268.659 39.48 268.684 40.9718ZM291.203 40.605C291.227 42.0968 289.869 43.3332 288.176 43.3608C286.483 43.3884 285.086 42.1968 285.061 40.705C285.037 39.2132 286.395 37.9768 288.088 37.9492C289.781 37.9216 291.179 39.1132 291.203 40.605Z" fill="#806060"/>
<path d="M261.986 22.1352L271.131 28.675L273.984 26.0771L260.039 13.1452L260.124 18.3385C260.147 19.7726 260.817 21.1384 261.986 22.1352Z" fill="black"/>
</g>
<defs>
<filter id="filter0_d" x="16.8833" y="104" width="43.9186" height="41.9307" filterUnits="userSpaceOnUse" color-interpolation-filters="sRGB">
<feFlood flood-opacity="0" result="BackgroundImageFix"/>
<feColorMatrix in="SourceAlpha" type="matrix" values="0 0 0 0 0 0 0 0 0 0 0 0 0 0 0 0 0 0 127 0"/>
<feOffset dy="4"/>
<feGaussianBlur stdDeviation="2"/>
<feColorMatrix type="matrix" values="0 0 0 0 0 0 0 0 0 0 0 0 0 0 0 0 0 0 0.25 0"/>
<feBlend mode="normal" in2="BackgroundImageFix" result="effect1_dropShadow"/>
<feBlend mode="normal" in="SourceGraphic" in2="effect1_dropShadow" result="shape"/>
</filter>
<filter id="filter1_d" x="171.022" y="80.3971" width="43.4625" height="41.5486" filterUnits="userSpaceOnUse" color-interpolation-filters="sRGB">
<feFlood flood-opacity="0" result="BackgroundImageFix"/>
<feColorMatrix in="SourceAlpha" type="matrix" values="0 0 0 0 0 0 0 0 0 0 0 0 0 0 0 0 0 0 127 0"/>
<feOffset dy="4"/>
<feGaussianBlur stdDeviation="2"/>
<feColorMatrix type="matrix" values="0 0 0 0 0 0 0 0 0 0 0 0 0 0 0 0 0 0 0.25 0"/>
<feBlend mode="normal" in2="BackgroundImageFix" result="effect1_dropShadow"/>
<feBlend mode="normal" in="SourceGraphic" in2="effect1_dropShadow" result="shape"/>
</filter>
<filter id="filter2_d" x="92.4611" y="59.2629" width="40.2635" height="37.0791" filterUnits="userSpaceOnUse" color-interpolation-filters="sRGB">
<feFlood flood-opacity="0" result="BackgroundImageFix"/>
<feColorMatrix in="SourceAlpha" type="matrix" values="0 0 0 0 0 0 0 0 0 0 0 0 0 0 0 0 0 0 127 0"/>
<feOffset dy="4"/>
<feGaussianBlur stdDeviation="2"/>
<feColorMatrix type="matrix" values="0 0 0 0 0 0 0 0 0 0 0 0 0 0 0 0 0 0 0.25 0"/>
<feBlend mode="normal" in2="BackgroundImageFix" result="effect1_dropShadow"/>
<feBlend mode="normal" in="SourceGraphic" in2="effect1_dropShadow" result="shape"/>
</filter>
<filter id="filter3_d" x="112.35" y="19.5422" width="46.9248" height="44.0644" filterUnits="userSpaceOnUse" color-interpolation-filters="sRGB">
<feFlood flood-opacity="0" result="BackgroundImageFix"/>
<feColorMatrix in="SourceAlpha" type="matrix" values="0 0 0 0 0 0 0 0 0 0 0 0 0 0 0 0 0 0 127 0"/>
<feOffset dy="4"/>
<feGaussianBlur stdDeviation="2"/>
<feColorMatrix type="matrix" values="0 0 0 0 0 0 0 0 0 0 0 0 0 0 0 0 0 0 0.25 0"/>
<feBlend mode="normal" in2="BackgroundImageFix" result="effect1_dropShadow"/>
<feBlend mode="normal" in="SourceGraphic" in2="effect1_dropShadow" result="shape"/>
</filter>
<filter id="filter4_d" x="38.7611" y="19.0155" width="46.9522" height="44.1662" filterUnits="userSpaceOnUse" color-interpolation-filters="sRGB">
<feFlood flood-opacity="0" result="BackgroundImageFix"/>
<feColorMatrix in="SourceAlpha" type="matrix" values="0 0 0 0 0 0 0 0 0 0 0 0 0 0 0 0 0 0 127 0"/>
<feOffset dy="4"/>
<feGaussianBlur stdDeviation="2"/>
<feColorMatrix type="matrix" values="0 0 0 0 0 0 0 0 0 0 0 0 0 0 0 0 0 0 0.25 0"/>
<feBlend mode="normal" in2="BackgroundImageFix" result="effect1_dropShadow"/>
<feBlend mode="normal" in="SourceGraphic" in2="effect1_dropShadow" result="shape"/>
</filter>
<filter id="filter5_d" x="96.4389" y="96.2123" width="46.701" height="43.7412" filterUnits="userSpaceOnUse" color-interpolation-filters="sRGB">
<feFlood flood-opacity="0" result="BackgroundImageFix"/>
<feColorMatrix in="SourceAlpha" type="matrix" values="0 0 0 0 0 0 0 0 0 0 0 0 0 0 0 0 0 0 127 0"/>
<feOffset dy="4"/>
<feGaussianBlur stdDeviation="2"/>
<feColorMatrix type="matrix" values="0 0 0 0 0 0 0 0 0 0 0 0 0 0 0 0 0 0 0.25 0"/>
<feBlend mode="normal" in2="BackgroundImageFix" result="effect1_dropShadow"/>
<feBlend mode="normal" in="SourceGraphic" in2="effect1_dropShadow" result="shape"/>
</filter>
<filter id="filter6_d" x="241.628" y="113.763" width="46.2765" height="43.2366" filterUnits="userSpaceOnUse" color-interpolation-filters="sRGB">
<feFlood flood-opacity="0" result="BackgroundImageFix"/>
<feColorMatrix in="SourceAlpha" type="matrix" values="0 0 0 0 0 0 0 0 0 0 0 0 0 0 0 0 0 0 127 0"/>
<feOffset dy="4"/>
<feGaussianBlur stdDeviation="2"/>
<feColorMatrix type="matrix" values="0 0 0 0 0 0 0 0 0 0 0 0 0 0 0 0 0 0 0.25 0"/>
<feBlend mode="normal" in2="BackgroundImageFix" result="effect1_dropShadow"/>
<feBlend mode="normal" in="SourceGraphic" in2="effect1_dropShadow" result="shape"/>
</filter>
<filter id="filter7_d" x="313.228" y="48" width="43.246" height="40.1412" filterUnits="userSpaceOnUse" color-interpolation-filters="sRGB">
<feFlood flood-opacity="0" result="BackgroundImageFix"/>
<feColorMatrix in="SourceAlpha" type="matrix" values="0 0 0 0 0 0 0 0 0 0 0 0 0 0 0 0 0 0 127 0"/>
<feOffset dy="4"/>
<feGaussianBlur stdDeviation="2"/>
<feColorMatrix type="matrix" values="0 0 0 0 0 0 0 0 0 0 0 0 0 0 0 0 0 0 0.25 0"/>
<feBlend mode="normal" in2="BackgroundImageFix" result="effect1_dropShadow"/>
<feBlend mode="normal" in="SourceGraphic" in2="effect1_dropShadow" result="shape"/>
</filter>
<filter id="filter8_d" x="305.272" y="0" width="47.255" height="43.0599" filterUnits="userSpaceOnUse" color-interpolation-filters="sRGB">
<feFlood flood-opacity="0" result="BackgroundImageFix"/>
<feColorMatrix in="SourceAlpha" type="matrix" values="0 0 0 0 0 0 0 0 0 0 0 0 0 0 0 0 0 0 127 0"/>
<feOffset dy="4"/>
<feGaussianBlur stdDeviation="2"/>
<feColorMatrix type="matrix" values="0 0 0 0 0 0 0 0 0 0 0 0 0 0 0 0 0 0 0.25 0"/>
<feBlend mode="normal" in2="BackgroundImageFix" result="effect1_dropShadow"/>
<feBlend mode="normal" in="SourceGraphic" in2="effect1_dropShadow" result="shape"/>
</filter>
<filter id="filter9_d" x="192.9" y="37.0689" width="46.4046" height="43.3837" filterUnits="userSpaceOnUse" color-interpolation-filters="sRGB">
<feFlood flood-opacity="0" result="BackgroundImageFix"/>
<feColorMatrix in="SourceAlpha" type="matrix" values="0 0 0 0 0 0 0 0 0 0 0 0 0 0 0 0 0 0 127 0"/>
<feOffset dy="4"/>
<feGaussianBlur stdDeviation="2"/>
<feColorMatrix type="matrix" values="0 0 0 0 0 0 0 0 0 0 0 0 0 0 0 0 0 0 0.25 0"/>
<feBlend mode="normal" in2="BackgroundImageFix" result="effect1_dropShadow"/>
<feBlend mode="normal" in="SourceGraphic" in2="effect1_dropShadow" result="shape"/>
</filter>
<clipPath id="clip0">
<rect width="26.6579" height="26.4521" fill="white" transform="matrix(-0.927534 -0.373738 0.423121 -0.906073 45.6095 137.931)"/>
</clipPath>
<clipPath id="clip1">
<rect width="26.6967" height="26.4096" fill="white" transform="matrix(-0.937537 0.347885 -0.39506 -0.918655 210.485 104.658)"/>
</clipPath>
<clipPath id="clip2">
<rect width="25.8963" height="27.2636" fill="white" transform="matrix(0.690268 0.723554 -0.772071 0.635536 137.399 19.5422)"/>
</clipPath>
<clipPath id="clip3">
<rect width="25.9913" height="27.1649" fill="white" transform="matrix(0.725404 -0.688323 0.73985 0.672772 42.7611 36.9059)"/>
</clipPath>
<clipPath id="clip4">
<rect width="25.7542" height="27.4097" fill="white" transform="matrix(0.633316 -0.773893 0.816878 0.576811 100.439 116.143)"/>
</clipPath>
<clipPath id="clip5">
<rect width="25.6216" height="27.5447" fill="white" transform="matrix(0.574082 0.818798 -0.855611 0.517619 269.195 113.763)"/>
</clipPath>
<clipPath id="clip6">
<rect width="25.1126" height="28.0588" fill="white" transform="matrix(-0.338883 0.940829 -0.952846 -0.303453 352.474 56.5146)"/>
</clipPath>
<clipPath id="clip7">
<rect width="26.5535" height="26.6896" fill="white" transform="matrix(0.838108 0.545504 -0.636964 0.770893 326.273 0)"/>
</clipPath>
<clipPath id="clip8">
<rect width="25.655" height="27.5109" fill="white" transform="matrix(-0.589633 0.807671 -0.846123 -0.532988 235.305 51.7319)"/>
</clipPath>
<clipPath id="clip9">
<rect width="43.2987" height="49.1393" fill="white" transform="translate(252.497 52.9638) rotate(-90.9333)"/>
</clipPath>
</defs>
</svg>
