<svg width="360" height="157" viewBox="0 0 360 157" fill="none" xmlns="http://www.w3.org/2000/svg">
<g clip-path="url(#clip0)" filter="url(#filter0_d)">
<path d="M18.5607 142.108C17.6036 144.32 18.545 146.867 20.6594 147.786C22.7738 148.705 25.2723 147.654 26.2294 145.442C27.1865 143.231 26.245 140.684 24.1307 139.764C23.4898 139.486 22.8166 139.408 22.1588 139.469L20.8303 135.45L24.5192 133.898C24.928 134.439 25.4559 134.895 26.1143 135.181C28.2286 136.1 30.7272 135.049 31.6842 132.837C32.6413 130.626 31.6999 128.079 29.5855 127.159C27.4712 126.24 24.9726 127.291 24.0156 129.503C23.7175 130.192 23.6232 130.909 23.6718 131.603L20.0614 133.121L17.1507 124.311C16.8131 123.398 16.134 122.672 15.263 122.293L12.109 120.922L20.2735 140.105C19.5451 140.567 18.9341 141.245 18.5607 142.108ZM23.1389 142.056C24.0449 142.45 24.4484 143.542 24.0383 144.49C23.6282 145.437 22.5572 145.888 21.6512 145.494C20.7452 145.1 20.3416 144.008 20.7517 143.061C21.1619 142.113 22.2329 141.662 23.1389 142.056ZM28.5938 129.451C29.4998 129.845 29.9033 130.937 29.4932 131.885C29.0831 132.832 28.0121 133.283 27.1061 132.889C26.2001 132.495 25.7965 131.403 26.2066 130.456C26.6167 129.508 27.6878 129.057 28.5938 129.451Z" fill="#261B1B"/>
<path d="M10.0882 140.631L16.3382 137.339L15.4903 135.045L4.17465 139.257L7.32867 140.628C8.19961 141.007 9.1922 141.008 10.0882 140.631Z" fill="#261B1B"/>
</g>
<g clip-path="url(#clip1)" filter="url(#filter1_d)">
<path d="M198.094 115.618C198.986 117.857 201.452 118.981 203.593 118.124C205.733 117.267 206.748 114.748 205.856 112.51C204.964 110.271 202.497 109.147 200.357 110.004C199.708 110.264 199.179 110.688 198.759 111.199L194.977 109.313L196.476 105.595C197.147 105.686 197.841 105.631 198.508 105.364C200.648 104.507 201.663 101.989 200.771 99.7501C199.879 97.5113 197.412 96.3873 195.272 97.2443C193.132 98.1013 192.116 100.62 193.009 102.858C193.286 103.555 193.728 104.128 194.254 104.582L192.786 108.22L184.497 104.086C183.612 103.683 182.62 103.656 181.738 104.009L178.546 105.287L197.881 112.988C197.696 113.832 197.745 114.744 198.094 115.618ZM201.281 112.324C202.199 111.957 203.256 112.438 203.638 113.398C204.021 114.357 203.585 115.436 202.668 115.804C201.751 116.171 200.694 115.689 200.311 114.73C199.929 113.771 200.364 112.691 201.281 112.324ZM196.197 99.5643C197.114 99.197 198.171 99.6788 198.553 100.638C198.936 101.597 198.5 102.677 197.583 103.044C196.666 103.411 195.609 102.93 195.226 101.97C194.844 101.011 195.279 99.9315 196.197 99.5643Z" fill="#261B1B"/>
<path d="M191.08 120.606L193.151 113.84L190.929 112.828L185.942 123.846L189.134 122.568C190.016 122.215 190.716 121.51 191.08 120.606Z" fill="#261B1B"/>
</g>
<g filter="url(#filter2_d)">
<path d="M114.448 79.794C116.818 79.3879 118.431 77.2051 118.043 74.9279C117.654 72.6507 115.41 71.1287 113.039 71.5348C110.669 71.9409 109.056 74.1237 109.444 76.4009C109.562 77.0911 109.865 77.6985 110.276 78.2171L107.645 81.5301L104.332 79.2828C104.56 78.6438 104.652 77.9517 104.531 77.2426C104.143 74.9654 101.899 73.4433 99.5279 73.8494C97.1573 74.2555 95.5446 76.4383 95.9329 78.7155C96.3212 80.9927 98.5654 82.5147 100.936 82.1086C101.674 81.9822 102.325 81.6691 102.878 81.2489L106.12 83.4489L100.353 90.7089C99.7749 91.4917 99.5402 92.4584 99.7001 93.3964L100.279 96.7933L111.838 79.4517C112.622 79.8104 113.523 79.9525 114.448 79.794ZM111.901 75.98C111.735 75.0043 112.426 74.0686 113.442 73.8946C114.458 73.7206 115.42 74.373 115.586 75.3488C115.752 76.3245 115.061 77.2602 114.045 77.4342C113.029 77.6083 112.067 76.9558 111.901 75.98ZM98.3895 78.2947C98.2232 77.3189 98.9144 76.3832 99.9303 76.2092C100.946 76.0352 101.908 76.6876 102.074 77.6634C102.241 78.6392 101.55 79.5748 100.534 79.7489C99.5179 79.9229 98.5559 79.2704 98.3895 78.2947Z" fill="#261B1B"/>
<path d="M117.847 87.7121L111.679 84.2671L110.227 86.233L119.932 93.4266L119.353 90.0297C119.193 89.0917 118.652 88.2579 117.847 87.7121Z" fill="#261B1B"/>
</g>
<g clip-path="url(#clip2)" filter="url(#filter3_d)">
<path d="M136.33 35.3924C138.13 33.7935 138.351 31.0864 136.822 29.3574C135.294 27.6284 132.586 27.5225 130.786 29.1214C128.986 30.7203 128.765 33.4274 130.294 35.1564C130.757 35.6805 131.335 36.036 131.957 36.2593L131.466 40.465L127.468 40.3087C127.326 39.645 127.039 39.0085 126.563 38.4701C125.035 36.7411 122.327 36.6352 120.527 38.2341C118.727 39.8329 118.507 42.54 120.035 44.269C121.564 45.998 124.271 46.1039 126.071 44.5051C126.632 44.0072 127.02 43.397 127.268 42.7477L131.18 42.9015L130.103 52.1189C130.024 53.0897 130.334 54.035 130.963 54.7472L133.244 57.3264L133.933 36.4818C134.788 36.3717 135.628 36.0162 136.33 35.3924ZM132.159 33.4995C131.504 32.7587 131.599 31.5982 132.37 30.9131C133.141 30.228 134.302 30.2734 134.957 31.0143C135.612 31.7551 135.517 32.9156 134.746 33.6007C133.975 34.2858 132.814 34.2404 132.159 33.4995ZM121.9 42.6122C121.245 41.8713 121.34 40.7109 122.111 40.0258C122.883 39.3407 124.043 39.386 124.698 40.1269C125.353 40.8678 125.259 42.0282 124.487 42.7133C123.716 43.3984 122.555 43.3531 121.9 42.6122Z" fill="#261B1B"/>
<path d="M143.386 40.3205L136.333 40.6562L136.134 43.0944L148.166 44.0716L145.885 41.4924C145.256 40.7802 144.357 40.3585 143.386 40.3205Z" fill="#261B1B"/>
</g>
<g clip-path="url(#clip3)" filter="url(#filter4_d)">
<path d="M47.9799 38.0994C46.2613 36.413 43.5518 36.3841 41.9395 38.0349C40.3273 39.6858 40.4138 42.4005 42.1324 44.0869C43.851 45.7734 46.5606 45.8023 48.1728 44.1514C48.6615 43.651 48.9744 43.0485 49.1525 42.4109L53.3725 42.6037L53.5003 46.6119C52.8499 46.8011 52.2367 47.1325 51.7347 47.6466C50.1224 49.2974 50.209 52.0122 51.9276 53.6986C53.6462 55.385 56.3557 55.414 57.968 53.7631C59.5802 52.1123 59.4937 49.3975 57.7751 47.7111C57.2399 47.1859 56.6053 46.8412 55.9415 46.6388L55.8173 42.7162L65.0661 43.1399C66.0377 43.1503 66.9565 42.7738 67.6206 42.0938L70.0256 39.6312L49.2339 40.4187C49.0637 39.5716 48.6505 38.7574 47.9799 38.0994ZM46.3919 42.4039C45.701 43.1112 44.5395 43.0988 43.8031 42.3762C43.0667 41.6536 43.0296 40.4899 43.7205 39.7825C44.4113 39.0751 45.5728 39.0875 46.3092 39.8101C47.0456 40.5328 47.0827 41.6965 46.3919 42.4039ZM56.187 52.0155C55.4962 52.7229 54.3347 52.7105 53.5983 51.9879C52.8619 51.2653 52.8248 50.1015 53.5156 49.3942C54.2065 48.6868 55.368 48.6992 56.1044 49.4218C56.8408 50.1444 56.8779 51.3081 56.187 52.0155Z" fill="#261B1B"/>
<path d="M52.384 30.6955L53.2179 37.7232L55.6582 37.7493L55.7781 25.6506L53.3731 28.1132C52.709 28.7932 52.353 29.722 52.384 30.6955Z" fill="#261B1B"/>
</g>
<g clip-path="url(#clip4)" filter="url(#filter5_d)">
<path d="M108.845 127.28C106.93 125.821 104.238 126.13 102.844 127.97C101.449 129.809 101.872 132.492 103.786 133.951C105.701 135.409 108.393 135.1 109.788 133.261C110.211 132.704 110.446 132.067 110.544 131.412L114.755 131.077L115.379 135.038C114.757 135.307 114.19 135.712 113.756 136.285C112.361 138.124 112.784 140.807 114.699 142.265C116.613 143.724 119.305 143.415 120.7 141.576C122.095 139.737 121.672 137.054 119.757 135.595C119.161 135.141 118.489 134.878 117.805 134.76L117.195 130.883L126.424 130.15C127.39 130.039 128.254 129.551 128.829 128.793L130.909 126.05L110.377 129.425C110.103 128.606 109.592 127.849 108.845 127.28ZM107.804 131.749C107.206 132.537 106.052 132.67 105.232 132.045C104.411 131.42 104.23 130.27 104.828 129.481C105.425 128.693 106.579 128.561 107.4 129.186C108.22 129.811 108.401 130.961 107.804 131.749ZM118.716 140.064C118.119 140.852 116.965 140.985 116.144 140.36C115.324 139.735 115.142 138.584 115.74 137.796C116.338 137.008 117.492 136.876 118.312 137.501C119.133 138.126 119.314 139.276 118.716 140.064Z" fill="#261B1B"/>
<path d="M112.296 119.384L113.996 126.253L116.42 125.975L115.037 113.955L112.956 116.699C112.382 117.456 112.144 118.422 112.296 119.384Z" fill="#261B1B"/>
</g>
<g clip-path="url(#clip5)" filter="url(#filter6_d)">
<path d="M348.53 97.4748C350.816 98.2605 353.268 97.1261 353.995 94.946C354.723 92.7658 353.455 90.3532 351.169 89.5675C348.883 88.7818 346.431 89.9162 345.703 92.0963C345.483 92.7572 345.465 93.4349 345.584 94.0865L341.701 95.7199L339.829 92.1578C340.332 91.7085 340.739 91.1469 340.965 90.468C341.693 88.2878 340.425 85.8752 338.139 85.0895C335.853 84.3038 333.401 85.4382 332.673 87.6183C331.946 89.7985 333.213 92.2111 335.5 92.9968C336.211 93.2415 336.934 93.2807 337.62 93.1791L339.451 96.6655L330.94 100.244C330.061 100.651 329.399 101.384 329.099 102.282L328.013 105.535L346.384 95.9191C346.909 96.6105 347.638 97.1683 348.53 97.4748ZM348.073 92.9105C348.384 91.9763 349.435 91.4901 350.415 91.8267C351.395 92.1634 351.938 93.1976 351.626 94.1318C351.314 95.066 350.263 95.5522 349.284 95.2156C348.304 94.8789 347.761 93.8447 348.073 92.9105ZM335.042 88.4325C335.354 87.4983 336.405 87.0121 337.385 87.3487C338.364 87.6854 338.908 88.7196 338.596 89.6538C338.284 90.588 337.233 91.0742 336.254 90.7376C335.274 90.4009 334.731 89.3667 335.042 88.4325Z" fill="#261B1B"/>
<path d="M347.811 106.042L343.98 100.058L341.771 101.079L346.966 112.048L348.052 108.796C348.352 107.898 348.265 106.907 347.811 106.042Z" fill="#261B1B"/>
</g>
<g clip-path="url(#clip6)" filter="url(#filter7_d)">
<path d="M333.931 14.3196C335.385 12.421 335.019 9.78929 333.116 8.45268C331.213 7.11606 328.482 7.57318 327.029 9.47174C325.575 11.3703 325.94 14.002 327.843 15.3386C328.42 15.7438 329.075 15.9644 329.745 16.0494L330.165 20.1686L326.133 20.8435C325.847 20.2387 325.423 19.6897 324.831 19.2735C322.927 17.9369 320.197 18.394 318.743 20.2925C317.289 22.1911 317.655 24.8228 319.558 26.1594C321.461 27.496 324.192 27.0389 325.645 25.1404C326.098 24.5492 326.354 23.8863 326.462 23.2147L330.407 22.5551L331.327 31.5828C331.458 32.5265 331.972 33.3658 332.756 33.9164L335.595 35.9102L331.77 15.8545C332.601 15.573 333.364 15.0603 333.931 14.3196ZM329.35 13.3712C328.534 12.7985 328.378 11.6704 329.001 10.8568C329.624 10.0433 330.794 9.84736 331.61 10.4201C332.425 10.9928 332.582 12.121 331.959 12.9345C331.336 13.748 330.165 13.944 329.35 13.3712ZM321.064 24.192C320.249 23.6193 320.092 22.4912 320.715 21.6776C321.338 20.8641 322.509 20.6681 323.324 21.2409C324.14 21.8136 324.296 22.9417 323.673 23.7553C323.05 24.5688 321.88 24.7647 321.064 24.192Z" fill="#261B1B"/>
<path d="M342.054 17.5728L335.074 19.3476L335.403 21.7179L347.646 20.1709L344.807 18.177C344.023 17.6265 343.033 17.4089 342.054 17.5728Z" fill="#261B1B"/>
</g>
<g clip-path="url(#clip7)" filter="url(#filter8_d)">
<path d="M225.174 63.3357C227.165 64.6888 229.836 64.234 231.13 62.322C232.423 60.41 231.856 57.754 229.866 56.4009C227.875 55.0479 225.204 55.5026 223.91 57.4146C223.518 57.9942 223.317 58.6429 223.255 59.3021L219.068 59.8649L218.231 55.9435C218.837 55.6413 219.382 55.2058 219.785 54.6104C221.078 52.6984 220.511 50.0424 218.521 48.6893C216.53 47.3363 213.859 47.791 212.565 49.703C211.272 51.6151 211.839 54.2711 213.829 55.6241C214.449 56.0455 215.135 56.2715 215.824 56.3523L216.642 60.1902L207.466 61.4225C206.508 61.5856 205.671 62.1199 205.138 62.9075L203.208 65.7597L223.528 61.2771C223.846 62.0803 224.397 62.8078 225.174 63.3357ZM225.973 58.8167C226.527 57.9974 227.672 57.8025 228.525 58.3823C229.378 58.9621 229.621 60.1006 229.067 60.9199C228.513 61.7392 227.367 61.9341 226.515 61.3544C225.662 60.7746 225.419 59.636 225.973 58.8167ZM214.628 51.1051C215.182 50.2858 216.327 50.0909 217.18 50.6707C218.033 51.2505 218.276 52.389 217.722 53.2083C217.168 54.0276 216.023 54.2225 215.17 53.6428C214.317 53.063 214.074 51.9244 214.628 51.1051Z" fill="#261B1B"/>
<path d="M222.154 71.4069L220.086 64.64L217.68 65.0495L219.71 76.9766L221.639 74.1244C222.172 73.3368 222.358 72.3594 222.154 71.4069Z" fill="#261B1B"/>
</g>
<rect y="0.80246" width="360" height="153.79" fill="#481D4F" fill-opacity="0.5"/>
<path d="M188.258 124.024V115.493H190.883C191.633 115.493 192.303 115.663 192.893 116.003C193.486 116.339 193.949 116.819 194.281 117.444C194.613 118.065 194.779 118.772 194.779 119.565V119.958C194.779 120.751 194.615 121.456 194.287 122.073C193.963 122.69 193.504 123.169 192.91 123.509C192.316 123.848 191.646 124.02 190.9 124.024H188.258ZM190.016 116.917V122.612H190.865C191.553 122.612 192.078 122.387 192.441 121.938C192.805 121.489 192.99 120.846 192.998 120.011V119.559C192.998 118.692 192.818 118.036 192.459 117.591C192.1 117.141 191.574 116.917 190.883 116.917H190.016ZM201.195 120.327H197.82V122.612H201.781V124.024H196.062V115.493H201.77V116.917H197.82V118.95H201.195V120.327ZM205.971 120.901H204.57V124.024H202.812V115.493H205.982C206.99 115.493 207.768 115.718 208.314 116.167C208.861 116.616 209.135 117.251 209.135 118.071C209.135 118.653 209.008 119.139 208.754 119.53C208.504 119.917 208.123 120.225 207.611 120.456L209.457 123.942V124.024H207.57L205.971 120.901ZM204.57 119.477H205.988C206.43 119.477 206.771 119.366 207.014 119.143C207.256 118.917 207.377 118.606 207.377 118.212C207.377 117.809 207.262 117.493 207.031 117.262C206.805 117.032 206.455 116.917 205.982 116.917H204.57V119.477ZM215.609 120.327H212.234V122.612H216.195V124.024H210.477V115.493H216.184V116.917H212.234V118.95H215.609V120.327ZM223.924 121.182C223.857 122.1 223.518 122.823 222.904 123.35C222.295 123.878 221.49 124.141 220.49 124.141C219.396 124.141 218.535 123.774 217.906 123.04C217.281 122.302 216.969 121.29 216.969 120.005V119.483C216.969 118.663 217.113 117.94 217.402 117.315C217.691 116.69 218.104 116.212 218.639 115.88C219.178 115.544 219.803 115.376 220.514 115.376C221.498 115.376 222.291 115.639 222.893 116.167C223.494 116.694 223.842 117.434 223.936 118.387H222.178C222.135 117.837 221.98 117.438 221.715 117.192C221.453 116.942 221.053 116.817 220.514 116.817C219.928 116.817 219.488 117.028 219.195 117.45C218.906 117.868 218.758 118.518 218.75 119.401V120.046C218.75 120.968 218.889 121.641 219.166 122.067C219.447 122.493 219.889 122.706 220.49 122.706C221.033 122.706 221.438 122.583 221.703 122.337C221.973 122.087 222.127 121.702 222.166 121.182H223.924ZM232.021 124.024H230.264V120.368H226.836V124.024H225.078V115.493H226.836V118.95H230.264V115.493H232.021V124.024ZM240.57 119.952C240.57 120.792 240.422 121.528 240.125 122.161C239.828 122.794 239.402 123.282 238.848 123.626C238.297 123.97 237.664 124.141 236.949 124.141C236.242 124.141 235.611 123.971 235.057 123.632C234.502 123.292 234.072 122.807 233.768 122.179C233.463 121.546 233.309 120.819 233.305 119.999V119.577C233.305 118.737 233.455 117.999 233.756 117.362C234.061 116.721 234.488 116.231 235.039 115.891C235.594 115.548 236.227 115.376 236.938 115.376C237.648 115.376 238.279 115.548 238.83 115.891C239.385 116.231 239.812 116.721 240.113 117.362C240.418 117.999 240.57 118.735 240.57 119.571V119.952ZM238.789 119.565C238.789 118.671 238.629 117.991 238.309 117.526C237.988 117.061 237.531 116.829 236.938 116.829C236.348 116.829 235.893 117.059 235.572 117.52C235.252 117.977 235.09 118.649 235.086 119.536V119.952C235.086 120.823 235.246 121.499 235.566 121.979C235.887 122.46 236.348 122.7 236.949 122.7C237.539 122.7 237.992 122.47 238.309 122.009C238.625 121.544 238.785 120.868 238.789 119.981V119.565ZM246.271 121.786C246.271 121.454 246.154 121.2 245.92 121.024C245.686 120.845 245.264 120.657 244.654 120.462C244.045 120.262 243.562 120.067 243.207 119.876C242.238 119.352 241.754 118.647 241.754 117.761C241.754 117.3 241.883 116.889 242.141 116.53C242.402 116.167 242.775 115.884 243.26 115.68C243.748 115.477 244.295 115.376 244.9 115.376C245.51 115.376 246.053 115.487 246.529 115.71C247.006 115.929 247.375 116.239 247.637 116.641C247.902 117.044 248.035 117.501 248.035 118.012H246.277C246.277 117.622 246.154 117.319 245.908 117.104C245.662 116.886 245.316 116.776 244.871 116.776C244.441 116.776 244.107 116.868 243.869 117.052C243.631 117.231 243.512 117.47 243.512 117.766C243.512 118.044 243.65 118.276 243.928 118.464C244.209 118.651 244.621 118.827 245.164 118.991C246.164 119.292 246.893 119.665 247.35 120.11C247.807 120.555 248.035 121.11 248.035 121.774C248.035 122.512 247.756 123.093 247.197 123.514C246.639 123.932 245.887 124.141 244.941 124.141C244.285 124.141 243.688 124.022 243.148 123.784C242.609 123.542 242.197 123.212 241.912 122.794C241.631 122.376 241.49 121.891 241.49 121.341H243.254C243.254 122.282 243.816 122.753 244.941 122.753C245.359 122.753 245.686 122.669 245.92 122.501C246.154 122.329 246.271 122.091 246.271 121.786ZM255.377 120.901H253.977V124.024H252.219V115.493H255.389C256.396 115.493 257.174 115.718 257.721 116.167C258.268 116.616 258.541 117.251 258.541 118.071C258.541 118.653 258.414 119.139 258.16 119.53C257.91 119.917 257.529 120.225 257.018 120.456L258.863 123.942V124.024H256.977L255.377 120.901ZM253.977 119.477H255.395C255.836 119.477 256.178 119.366 256.42 119.143C256.662 118.917 256.783 118.606 256.783 118.212C256.783 117.809 256.668 117.493 256.438 117.262C256.211 117.032 255.861 116.917 255.389 116.917H253.977V119.477ZM265.016 120.327H261.641V122.612H265.602V124.024H259.883V115.493H265.59V116.917H261.641V118.95H265.016V120.327ZM271.057 121.786C271.057 121.454 270.939 121.2 270.705 121.024C270.471 120.845 270.049 120.657 269.439 120.462C268.83 120.262 268.348 120.067 267.992 119.876C267.023 119.352 266.539 118.647 266.539 117.761C266.539 117.3 266.668 116.889 266.926 116.53C267.188 116.167 267.561 115.884 268.045 115.68C268.533 115.477 269.08 115.376 269.686 115.376C270.295 115.376 270.838 115.487 271.314 115.71C271.791 115.929 272.16 116.239 272.422 116.641C272.688 117.044 272.82 117.501 272.82 118.012H271.062C271.062 117.622 270.939 117.319 270.693 117.104C270.447 116.886 270.102 116.776 269.656 116.776C269.227 116.776 268.893 116.868 268.654 117.052C268.416 117.231 268.297 117.47 268.297 117.766C268.297 118.044 268.436 118.276 268.713 118.464C268.994 118.651 269.406 118.827 269.949 118.991C270.949 119.292 271.678 119.665 272.135 120.11C272.592 120.555 272.82 121.11 272.82 121.774C272.82 122.512 272.541 123.093 271.982 123.514C271.424 123.932 270.672 124.141 269.727 124.141C269.07 124.141 268.473 124.022 267.934 123.784C267.395 123.542 266.982 123.212 266.697 122.794C266.416 122.376 266.275 121.891 266.275 121.341H268.039C268.039 122.282 268.602 122.753 269.727 122.753C270.145 122.753 270.471 122.669 270.705 122.501C270.939 122.329 271.057 122.091 271.057 121.786ZM279.148 120.327H275.773V122.612H279.734V124.024H274.016V115.493H279.723V116.917H275.773V118.95H279.148V120.327ZM283.924 120.901H282.523V124.024H280.766V115.493H283.936C284.943 115.493 285.721 115.718 286.268 116.167C286.814 116.616 287.088 117.251 287.088 118.071C287.088 118.653 286.961 119.139 286.707 119.53C286.457 119.917 286.076 120.225 285.564 120.456L287.41 123.942V124.024H285.523L283.924 120.901ZM282.523 119.477H283.941C284.383 119.477 284.725 119.366 284.967 119.143C285.209 118.917 285.33 118.606 285.33 118.212C285.33 117.809 285.215 117.493 284.984 117.262C284.758 117.032 284.408 116.917 283.936 116.917H282.523V119.477ZM291.465 121.909L293.398 115.493H295.355L292.385 124.024H290.551L287.592 115.493H289.543L291.465 121.909ZM300.535 122.266H297.453L296.867 124.024H294.998L298.174 115.493H299.803L302.996 124.024H301.127L300.535 122.266ZM297.928 120.843H300.061L298.988 117.649L297.928 120.843ZM303.793 124.024V115.493H306.418C307.168 115.493 307.838 115.663 308.428 116.003C309.021 116.339 309.484 116.819 309.816 117.444C310.148 118.065 310.314 118.772 310.314 119.565V119.958C310.314 120.751 310.15 121.456 309.822 122.073C309.498 122.69 309.039 123.169 308.445 123.509C307.852 123.848 307.182 124.02 306.436 124.024H303.793ZM305.551 116.917V122.612H306.4C307.088 122.612 307.613 122.387 307.977 121.938C308.34 121.489 308.525 120.846 308.533 120.011V119.559C308.533 118.692 308.354 118.036 307.994 117.591C307.635 117.141 307.109 116.917 306.418 116.917H305.551ZM318.605 119.952C318.605 120.792 318.457 121.528 318.16 122.161C317.863 122.794 317.438 123.282 316.883 123.626C316.332 123.97 315.699 124.141 314.984 124.141C314.277 124.141 313.646 123.971 313.092 123.632C312.537 123.292 312.107 122.807 311.803 122.179C311.498 121.546 311.344 120.819 311.34 119.999V119.577C311.34 118.737 311.49 117.999 311.791 117.362C312.096 116.721 312.523 116.231 313.074 115.891C313.629 115.548 314.262 115.376 314.973 115.376C315.684 115.376 316.314 115.548 316.865 115.891C317.42 116.231 317.848 116.721 318.148 117.362C318.453 117.999 318.605 118.735 318.605 119.571V119.952ZM316.824 119.565C316.824 118.671 316.664 117.991 316.344 117.526C316.023 117.061 315.566 116.829 314.973 116.829C314.383 116.829 313.928 117.059 313.607 117.52C313.287 117.977 313.125 118.649 313.121 119.536V119.952C313.121 120.823 313.281 121.499 313.602 121.979C313.922 122.46 314.383 122.7 314.984 122.7C315.574 122.7 316.027 122.47 316.344 122.009C316.66 121.544 316.82 120.868 316.824 119.981V119.565ZM324.307 121.786C324.307 121.454 324.189 121.2 323.955 121.024C323.721 120.845 323.299 120.657 322.689 120.462C322.08 120.262 321.598 120.067 321.242 119.876C320.273 119.352 319.789 118.647 319.789 117.761C319.789 117.3 319.918 116.889 320.176 116.53C320.438 116.167 320.811 115.884 321.295 115.68C321.783 115.477 322.33 115.376 322.936 115.376C323.545 115.376 324.088 115.487 324.564 115.71C325.041 115.929 325.41 116.239 325.672 116.641C325.938 117.044 326.07 117.501 326.07 118.012H324.312C324.312 117.622 324.189 117.319 323.943 117.104C323.697 116.886 323.352 116.776 322.906 116.776C322.477 116.776 322.143 116.868 321.904 117.052C321.666 117.231 321.547 117.47 321.547 117.766C321.547 118.044 321.686 118.276 321.963 118.464C322.244 118.651 322.656 118.827 323.199 118.991C324.199 119.292 324.928 119.665 325.385 120.11C325.842 120.555 326.07 121.11 326.07 121.774C326.07 122.512 325.791 123.093 325.232 123.514C324.674 123.932 323.922 124.141 322.977 124.141C322.32 124.141 321.723 124.022 321.184 123.784C320.645 123.542 320.232 123.212 319.947 122.794C319.666 122.376 319.525 121.891 319.525 121.341H321.289C321.289 122.282 321.852 122.753 322.977 122.753C323.395 122.753 323.721 122.669 323.955 122.501C324.189 122.329 324.307 122.091 324.307 121.786ZM216.166 135.182C216.1 136.1 215.76 136.823 215.146 137.35C214.537 137.878 213.732 138.141 212.732 138.141C211.639 138.141 210.777 137.774 210.148 137.04C209.523 136.302 209.211 135.29 209.211 134.005V133.483C209.211 132.663 209.355 131.94 209.645 131.315C209.934 130.69 210.346 130.212 210.881 129.88C211.42 129.544 212.045 129.376 212.756 129.376C213.74 129.376 214.533 129.639 215.135 130.167C215.736 130.694 216.084 131.434 216.178 132.387H214.42C214.377 131.837 214.223 131.438 213.957 131.192C213.695 130.942 213.295 130.817 212.756 130.817C212.17 130.817 211.73 131.028 211.438 131.45C211.148 131.868 211 132.518 210.992 133.401V134.046C210.992 134.968 211.131 135.641 211.408 136.067C211.689 136.493 212.131 136.706 212.732 136.706C213.275 136.706 213.68 136.583 213.945 136.337C214.215 136.087 214.369 135.702 214.408 135.182H216.166ZM224.328 133.952C224.328 134.792 224.18 135.528 223.883 136.161C223.586 136.794 223.16 137.282 222.605 137.626C222.055 137.97 221.422 138.141 220.707 138.141C220 138.141 219.369 137.971 218.814 137.632C218.26 137.292 217.83 136.807 217.525 136.179C217.221 135.546 217.066 134.819 217.062 133.999V133.577C217.062 132.737 217.213 131.999 217.514 131.362C217.818 130.721 218.246 130.231 218.797 129.891C219.352 129.548 219.984 129.376 220.695 129.376C221.406 129.376 222.037 129.548 222.588 129.891C223.143 130.231 223.57 130.721 223.871 131.362C224.176 131.999 224.328 132.735 224.328 133.571V133.952ZM222.547 133.565C222.547 132.671 222.387 131.991 222.066 131.526C221.746 131.061 221.289 130.829 220.695 130.829C220.105 130.829 219.65 131.059 219.33 131.52C219.01 131.977 218.848 132.649 218.844 133.536V133.952C218.844 134.823 219.004 135.499 219.324 135.979C219.645 136.46 220.105 136.7 220.707 136.7C221.297 136.7 221.75 136.47 222.066 136.009C222.383 135.544 222.543 134.868 222.547 133.981V133.565ZM227.363 135.018V138.024H225.605V129.493H228.934C229.574 129.493 230.137 129.61 230.621 129.845C231.109 130.079 231.484 130.413 231.746 130.846C232.008 131.276 232.139 131.766 232.139 132.317C232.139 133.153 231.852 133.813 231.277 134.298C230.707 134.778 229.916 135.018 228.904 135.018H227.363ZM227.363 133.595H228.934C229.398 133.595 229.752 133.485 229.994 133.266C230.24 133.048 230.363 132.735 230.363 132.329C230.363 131.911 230.24 131.573 229.994 131.315C229.748 131.057 229.408 130.925 228.975 130.917H227.363V133.595ZM236.293 133.337L238.068 129.493H239.99L237.189 134.93V138.024H235.402V134.93L232.602 129.493H234.529L236.293 133.337ZM243.928 134.901H242.527V138.024H240.77V129.493H243.939C244.947 129.493 245.725 129.718 246.271 130.167C246.818 130.616 247.092 131.251 247.092 132.071C247.092 132.653 246.965 133.139 246.711 133.53C246.461 133.917 246.08 134.225 245.568 134.456L247.414 137.942V138.024H245.527L243.928 134.901ZM242.527 133.477H243.945C244.387 133.477 244.729 133.366 244.971 133.143C245.213 132.917 245.334 132.606 245.334 132.212C245.334 131.809 245.219 131.493 244.988 131.262C244.762 131.032 244.412 130.917 243.939 130.917H242.527V133.477ZM250.303 138.024H248.545V129.493H250.303V138.024ZM258.688 136.946C258.371 137.325 257.924 137.62 257.346 137.831C256.768 138.038 256.127 138.141 255.424 138.141C254.686 138.141 254.037 137.981 253.479 137.661C252.924 137.337 252.494 136.868 252.189 136.255C251.889 135.641 251.734 134.921 251.727 134.093V133.512C251.727 132.661 251.869 131.925 252.154 131.304C252.443 130.679 252.857 130.202 253.396 129.874C253.939 129.542 254.574 129.376 255.301 129.376C256.312 129.376 257.104 129.618 257.674 130.102C258.244 130.583 258.582 131.284 258.688 132.206H256.977C256.898 131.718 256.725 131.36 256.455 131.134C256.189 130.907 255.822 130.794 255.354 130.794C254.756 130.794 254.301 131.018 253.988 131.468C253.676 131.917 253.518 132.585 253.514 133.471V134.016C253.514 134.911 253.684 135.587 254.023 136.044C254.363 136.501 254.861 136.729 255.518 136.729C256.178 136.729 256.648 136.589 256.93 136.307V134.837H255.33V133.542H258.688V136.946ZM267.061 138.024H265.303V134.368H261.875V138.024H260.117V129.493H261.875V132.95H265.303V129.493H267.061V138.024ZM274.848 130.917H272.234V138.024H270.477V130.917H267.898V129.493H274.848V130.917ZM284.158 138.024H278.311V136.864L281.07 133.923C281.449 133.509 281.729 133.147 281.908 132.839C282.092 132.53 282.184 132.237 282.184 131.96C282.184 131.581 282.088 131.284 281.896 131.069C281.705 130.85 281.432 130.741 281.076 130.741C280.693 130.741 280.391 130.874 280.168 131.139C279.949 131.401 279.84 131.747 279.84 132.177H278.141C278.141 131.657 278.264 131.182 278.51 130.753C278.76 130.323 279.111 129.987 279.564 129.745C280.018 129.499 280.531 129.376 281.105 129.376C281.984 129.376 282.666 129.587 283.15 130.009C283.639 130.43 283.883 131.026 283.883 131.796C283.883 132.218 283.773 132.647 283.555 133.085C283.336 133.522 282.961 134.032 282.43 134.614L280.49 136.659H284.158V138.024ZM290.943 134.497C290.943 135.677 290.699 136.579 290.211 137.204C289.723 137.829 289.008 138.141 288.066 138.141C287.137 138.141 286.426 137.835 285.934 137.221C285.441 136.608 285.189 135.729 285.178 134.585V133.014C285.178 131.823 285.424 130.919 285.916 130.302C286.412 129.684 287.125 129.376 288.055 129.376C288.984 129.376 289.695 129.682 290.188 130.296C290.68 130.905 290.932 131.782 290.943 132.927V134.497ZM289.25 132.774C289.25 132.067 289.152 131.554 288.957 131.233C288.766 130.909 288.465 130.747 288.055 130.747C287.656 130.747 287.361 130.901 287.17 131.21C286.982 131.514 286.883 131.993 286.871 132.645V134.72C286.871 135.415 286.965 135.932 287.152 136.272C287.344 136.608 287.648 136.776 288.066 136.776C288.48 136.776 288.779 136.614 288.963 136.29C289.146 135.966 289.242 135.47 289.25 134.802V132.774ZM297.939 138.024H292.092V136.864L294.852 133.923C295.23 133.509 295.51 133.147 295.689 132.839C295.873 132.53 295.965 132.237 295.965 131.96C295.965 131.581 295.869 131.284 295.678 131.069C295.486 130.85 295.213 130.741 294.857 130.741C294.475 130.741 294.172 130.874 293.949 131.139C293.73 131.401 293.621 131.747 293.621 132.177H291.922C291.922 131.657 292.045 131.182 292.291 130.753C292.541 130.323 292.893 129.987 293.346 129.745C293.799 129.499 294.312 129.376 294.887 129.376C295.766 129.376 296.447 129.587 296.932 130.009C297.42 130.43 297.664 131.026 297.664 131.796C297.664 132.218 297.555 132.647 297.336 133.085C297.117 133.522 296.742 134.032 296.211 134.614L294.271 136.659H297.939V138.024ZM304.725 134.497C304.725 135.677 304.48 136.579 303.992 137.204C303.504 137.829 302.789 138.141 301.848 138.141C300.918 138.141 300.207 137.835 299.715 137.221C299.223 136.608 298.971 135.729 298.959 134.585V133.014C298.959 131.823 299.205 130.919 299.697 130.302C300.193 129.684 300.906 129.376 301.836 129.376C302.766 129.376 303.477 129.682 303.969 130.296C304.461 130.905 304.713 131.782 304.725 132.927V134.497ZM303.031 132.774C303.031 132.067 302.934 131.554 302.738 131.233C302.547 130.909 302.246 130.747 301.836 130.747C301.438 130.747 301.143 130.901 300.951 131.21C300.764 131.514 300.664 131.993 300.652 132.645V134.72C300.652 135.415 300.746 135.932 300.934 136.272C301.125 136.608 301.43 136.776 301.848 136.776C302.262 136.776 302.561 136.614 302.744 136.29C302.928 135.966 303.023 135.47 303.031 134.802V132.774Z" fill="#FDFDFD"/>
<path d="M256.582 96.0107L253.437 96.0107C247.832 96.0107 243.262 91.6627 243.262 86.2884L243.262 67.2729C243.262 61.9172 247.813 57.5505 253.438 57.5505L256.582 57.5505C262.188 57.5505 266.758 61.8985 266.758 67.2729L266.758 86.2884C266.738 91.6627 262.188 96.0107 256.582 96.0107Z" fill="#E2B291"/>
<path d="M303.184 107.17C299.004 93.2116 284.844 81.8471 266.738 78.0962L266.738 78.3015C266.738 80.6341 255.059 94.5739 255.059 94.5739C255.059 94.5739 243.242 80.6528 243.242 78.3015L243.242 78.0962C225.156 81.8471 210.996 93.2116 206.816 107.17L303.184 107.17Z" fill="#CCCCCC"/>
<path d="M259.414 107.17C258.223 103.998 256.445 99.1831 256.582 99.0338L252.91 99.0338C253.066 99.1831 251.23 103.998 250 107.17L259.414 107.17Z" fill="#0F0F6D"/>
<path d="M255 100.209C257.718 100.209 259.922 98.9312 259.922 97.3543C259.922 95.7775 257.718 94.4992 255 94.4992C252.282 94.4992 250.078 95.7775 250.078 97.3543C250.078 98.9312 252.282 100.209 255 100.209Z" fill="#18157C"/>
<path d="M266.738 78.0962C266.738 78.0962 267.148 79.6637 255.059 94.5552C255.059 94.5552 262.188 94.9098 270.703 99.0338C270.723 99.0338 275.488 82.0337 266.738 78.0962Z" fill="white"/>
<path d="M243.262 78.0962C243.262 78.0962 242.988 79.6637 255.078 94.5552C255.078 94.5552 247.813 94.9098 239.297 99.0338C239.277 99.0338 234.512 82.0337 243.262 78.0962Z" fill="white"/>
<path d="M281.406 53.7768C284.853 54.4926 288.487 51.3826 289.522 46.8304C290.558 42.2782 288.603 38.0077 285.156 37.2919C281.709 36.5761 278.076 39.686 277.04 44.2382C276.005 48.7904 277.959 53.0609 281.406 53.7768Z" fill="#F4C5A2"/>
<path d="M224.86 37.2719C221.414 37.9877 219.459 42.2583 220.494 46.8105C221.53 51.3627 225.164 54.4726 228.611 53.7568C232.058 53.041 234.012 48.7705 232.977 44.2183C231.941 39.6661 228.307 36.5561 224.86 37.2719Z" fill="#F4C5A2"/>
<path d="M255.078 75.0358C270.234 75.0358 282.52 61.3423 282.52 44.4505C282.52 27.5587 270.234 13.8651 255.078 13.8651C239.923 13.8651 227.637 27.5587 227.637 44.4505C227.637 61.3423 239.923 75.0358 255.078 75.0358Z" fill="#F4C5A2"/>
<path d="M281.172 53.7623L278.984 53.8183C275.508 59.0247 269.57 58.8194 269.57 58.8194C267.852 58.9687 264.141 55.983 264.141 55.983C259.668 53.5943 255.859 55.4418 255.039 55.8896C254.238 55.4418 250.41 53.5943 245.938 55.983C245.938 55.983 242.227 58.9687 240.508 58.8194C240.508 58.8194 234.57 59.0247 231.094 53.8183L228.926 53.7623C232.461 66.0972 242.832 75.0358 255.059 75.0358C267.227 75.0358 277.559 66.1905 281.133 53.9676L281.172 53.7623ZM255.527 68.1686C255.371 68.1499 255.215 68.1312 255.059 68.1126C254.902 68.1312 254.746 68.1499 254.59 68.1686C247.441 67.7207 247.129 62.5889 247.52 59.4539C247.246 59.0993 247.676 58.6515 248.066 58.8941C249.668 59.9018 252.148 61.0774 254.922 61.0774C254.961 61.0774 255.02 61.0774 255.059 61.0774C255.098 61.0774 255.156 61.0774 255.195 61.0774C257.969 61.0774 260.449 59.9018 262.051 58.8941C262.441 58.6515 262.871 59.0993 262.598 59.4539C262.988 62.5703 262.695 67.7207 255.527 68.1686Z" fill="#3F2820"/>
<path d="M243.777 40.173C239.826 40.2373 236.658 43.1218 236.714 46.6032C236.771 50.0847 240.031 52.8644 243.982 52.8001C247.933 52.7357 251.101 49.8513 251.045 46.3698C251.028 45.3145 250.688 44.3403 250.152 43.4739L255.258 39.1379L260.071 43.2419C259.539 44.142 259.216 45.1523 259.234 46.2364C259.29 49.7179 262.55 52.4976 266.502 52.4332C270.453 52.3688 273.621 49.4844 273.564 46.0029C273.507 42.5215 270.247 39.7417 266.296 39.8061C265.065 39.8261 263.93 40.1442 262.927 40.6441L258.217 36.6267L269.409 27.1249C270.545 26.0906 271.169 24.7037 271.146 23.2696L271.061 18.0762L247.927 41.2782C246.744 40.5649 245.318 40.1478 243.777 40.173ZM246.95 46.4365C246.975 47.9283 245.617 49.1647 243.924 49.1923C242.231 49.2199 240.833 48.0283 240.809 46.5365C240.784 45.0447 242.142 43.8083 243.835 43.7807C245.528 43.7531 246.926 44.9447 246.95 46.4365ZM269.47 46.0696C269.494 47.5614 268.136 48.7979 266.443 48.8255C264.75 48.853 263.352 47.6615 263.328 46.1697C263.304 44.6779 264.662 43.4414 266.355 43.4138C268.048 43.3863 269.445 44.5778 269.47 46.0696Z" fill="#806060"/>
<path d="M240.252 27.5999L249.398 34.1397L252.251 31.5418L238.306 18.6099L238.391 23.8032C238.414 25.2373 239.083 26.6031 240.252 27.5999Z" fill="black"/>
<defs>
<filter id="filter0_d" x="-4" y="115.386" width="46.1942" height="46.9344" filterUnits="userSpaceOnUse" color-interpolation-filters="sRGB">
<feFlood flood-opacity="0" result="BackgroundImageFix"/>
<feColorMatrix in="SourceAlpha" type="matrix" values="0 0 0 0 0 0 0 0 0 0 0 0 0 0 0 0 0 0 127 0"/>
<feOffset dy="4"/>
<feGaussianBlur stdDeviation="2"/>
<feColorMatrix type="matrix" values="0 0 0 0 0 0 0 0 0 0 0 0 0 0 0 0 0 0 0.25 0"/>
<feBlend mode="normal" in2="BackgroundImageFix" result="effect1_dropShadow"/>
<feBlend mode="normal" in="SourceGraphic" in2="effect1_dropShadow" result="shape"/>
</filter>
<filter id="filter1_d" x="170.479" y="90.8782" width="45.7092" height="46.496" filterUnits="userSpaceOnUse" color-interpolation-filters="sRGB">
<feFlood flood-opacity="0" result="BackgroundImageFix"/>
<feColorMatrix in="SourceAlpha" type="matrix" values="0 0 0 0 0 0 0 0 0 0 0 0 0 0 0 0 0 0 127 0"/>
<feOffset dy="4"/>
<feGaussianBlur stdDeviation="2"/>
<feColorMatrix type="matrix" values="0 0 0 0 0 0 0 0 0 0 0 0 0 0 0 0 0 0 0.25 0"/>
<feBlend mode="normal" in2="BackgroundImageFix" result="effect1_dropShadow"/>
<feBlend mode="normal" in="SourceGraphic" in2="effect1_dropShadow" result="shape"/>
</filter>
<filter id="filter2_d" x="86.9404" y="66.6274" width="42.3075" height="41.3674" filterUnits="userSpaceOnUse" color-interpolation-filters="sRGB">
<feFlood flood-opacity="0" result="BackgroundImageFix"/>
<feColorMatrix in="SourceAlpha" type="matrix" values="0 0 0 0 0 0 0 0 0 0 0 0 0 0 0 0 0 0 127 0"/>
<feOffset dy="4"/>
<feGaussianBlur stdDeviation="2"/>
<feColorMatrix type="matrix" values="0 0 0 0 0 0 0 0 0 0 0 0 0 0 0 0 0 0 0.25 0"/>
<feBlend mode="normal" in2="BackgroundImageFix" result="effect1_dropShadow"/>
<feBlend mode="normal" in="SourceGraphic" in2="effect1_dropShadow" result="shape"/>
</filter>
<filter id="filter3_d" x="108.089" y="21.0491" width="49.3908" height="49.3827" filterUnits="userSpaceOnUse" color-interpolation-filters="sRGB">
<feFlood flood-opacity="0" result="BackgroundImageFix"/>
<feColorMatrix in="SourceAlpha" type="matrix" values="0 0 0 0 0 0 0 0 0 0 0 0 0 0 0 0 0 0 127 0"/>
<feOffset dy="4"/>
<feGaussianBlur stdDeviation="2"/>
<feColorMatrix type="matrix" values="0 0 0 0 0 0 0 0 0 0 0 0 0 0 0 0 0 0 0.25 0"/>
<feBlend mode="normal" in2="BackgroundImageFix" result="effect1_dropShadow"/>
<feBlend mode="normal" in="SourceGraphic" in2="effect1_dropShadow" result="shape"/>
</filter>
<filter id="filter4_d" x="29.8383" y="20.4447" width="49.4199" height="49.4996" filterUnits="userSpaceOnUse" color-interpolation-filters="sRGB">
<feFlood flood-opacity="0" result="BackgroundImageFix"/>
<feColorMatrix in="SourceAlpha" type="matrix" values="0 0 0 0 0 0 0 0 0 0 0 0 0 0 0 0 0 0 127 0"/>
<feOffset dy="4"/>
<feGaussianBlur stdDeviation="2"/>
<feColorMatrix type="matrix" values="0 0 0 0 0 0 0 0 0 0 0 0 0 0 0 0 0 0 0.25 0"/>
<feBlend mode="normal" in2="BackgroundImageFix" result="effect1_dropShadow"/>
<feBlend mode="normal" in="SourceGraphic" in2="effect1_dropShadow" result="shape"/>
</filter>
<filter id="filter5_d" x="91.1701" y="109.026" width="49.1528" height="49.012" filterUnits="userSpaceOnUse" color-interpolation-filters="sRGB">
<feFlood flood-opacity="0" result="BackgroundImageFix"/>
<feColorMatrix in="SourceAlpha" type="matrix" values="0 0 0 0 0 0 0 0 0 0 0 0 0 0 0 0 0 0 127 0"/>
<feOffset dy="4"/>
<feGaussianBlur stdDeviation="2"/>
<feColorMatrix type="matrix" values="0 0 0 0 0 0 0 0 0 0 0 0 0 0 0 0 0 0 0.25 0"/>
<feBlend mode="normal" in2="BackgroundImageFix" result="effect1_dropShadow"/>
<feBlend mode="normal" in="SourceGraphic" in2="effect1_dropShadow" result="shape"/>
</filter>
<filter id="filter6_d" x="318.521" y="79.0546" width="45.4789" height="44.881" filterUnits="userSpaceOnUse" color-interpolation-filters="sRGB">
<feFlood flood-opacity="0" result="BackgroundImageFix"/>
<feColorMatrix in="SourceAlpha" type="matrix" values="0 0 0 0 0 0 0 0 0 0 0 0 0 0 0 0 0 0 127 0"/>
<feOffset dy="4"/>
<feGaussianBlur stdDeviation="2"/>
<feColorMatrix type="matrix" values="0 0 0 0 0 0 0 0 0 0 0 0 0 0 0 0 0 0 0.25 0"/>
<feBlend mode="normal" in2="BackgroundImageFix" result="effect1_dropShadow"/>
<feBlend mode="normal" in="SourceGraphic" in2="effect1_dropShadow" result="shape"/>
</filter>
<filter id="filter7_d" x="306.889" y="1" width="49.742" height="48.2301" filterUnits="userSpaceOnUse" color-interpolation-filters="sRGB">
<feFlood flood-opacity="0" result="BackgroundImageFix"/>
<feColorMatrix in="SourceAlpha" type="matrix" values="0 0 0 0 0 0 0 0 0 0 0 0 0 0 0 0 0 0 127 0"/>
<feOffset dy="4"/>
<feGaussianBlur stdDeviation="2"/>
<feColorMatrix type="matrix" values="0 0 0 0 0 0 0 0 0 0 0 0 0 0 0 0 0 0 0.25 0"/>
<feBlend mode="normal" in2="BackgroundImageFix" result="effect1_dropShadow"/>
<feBlend mode="normal" in="SourceGraphic" in2="effect1_dropShadow" result="shape"/>
</filter>
<filter id="filter8_d" x="193.742" y="41.1604" width="48.8377" height="48.6018" filterUnits="userSpaceOnUse" color-interpolation-filters="sRGB">
<feFlood flood-opacity="0" result="BackgroundImageFix"/>
<feColorMatrix in="SourceAlpha" type="matrix" values="0 0 0 0 0 0 0 0 0 0 0 0 0 0 0 0 0 0 127 0"/>
<feOffset dy="4"/>
<feGaussianBlur stdDeviation="2"/>
<feColorMatrix type="matrix" values="0 0 0 0 0 0 0 0 0 0 0 0 0 0 0 0 0 0 0.25 0"/>
<feBlend mode="normal" in2="BackgroundImageFix" result="effect1_dropShadow"/>
<feBlend mode="normal" in="SourceGraphic" in2="effect1_dropShadow" result="shape"/>
</filter>
<clipPath id="clip0">
<rect width="28.6705" height="29.9668" fill="white" transform="matrix(-0.91706 -0.398748 0.397158 -0.91775 26.2926 154.32)"/>
</clipPath>
<clipPath id="clip1">
<rect width="28.6691" height="29.9683" fill="white" transform="matrix(-0.928344 0.371723 -0.370203 -0.928951 212.188 118.717)"/>
</clipPath>
<clipPath id="clip2">
<rect width="28.6979" height="29.9383" fill="white" transform="matrix(0.662342 0.749202 -0.747638 0.664106 134.472 21.0491)"/>
</clipPath>
<clipPath id="clip3">
<rect width="28.6946" height="29.9418" fill="white" transform="matrix(0.698693 -0.715421 0.71376 0.70039 33.8383 40.9734)"/>
</clipPath>
<clipPath id="clip4">
<rect width="28.7029" height="29.933" fill="white" transform="matrix(0.604256 -0.796791 0.795406 0.606077 95.1701 131.896)"/>
</clipPath>
<clipPath id="clip5">
<rect width="28.5813" height="30.0615" fill="white" transform="matrix(-0.316619 0.948553 -0.945712 -0.325006 360 88.8247)"/>
</clipPath>
<clipPath id="clip6">
<rect width="28.9184" height="29.7351" fill="white" transform="matrix(0.818323 0.574759 -0.607947 0.793978 328.966 1)"/>
</clipPath>
<clipPath id="clip7">
<rect width="28.7064" height="29.9294" fill="white" transform="matrix(-0.560341 0.828262 -0.827024 -0.562167 238.58 57.9857)"/>
</clipPath>
</defs>
</svg>
