<?xml version="1.0" ?><svg baseProfile="tiny" id="Layer_1" version="1.2" viewBox="0 0 512 512" xml:space="preserve" xmlns="http://www.w3.org/2000/svg" xmlns:xlink="http://www.w3.org/1999/xlink"><g><g><path d="M264.1,446.2h-16.1c-28.7,0-52.1-23.3-52.1-52.1V292.2c0-28.7,23.3-52.1,52.1-52.1h16.1    c28.7,0,52.1,23.3,52.1,52.1v101.9C316.1,422.9,292.8,446.2,264.1,446.2z" fill="#E2B291" id="XMLID_11_"/><path d="M502.7,506c-21.4-74.8-93.9-135.7-186.6-155.8v1.1c0,12.5-59.8,87.2-59.8,87.2    s-60.5-74.6-60.5-87.2v-1.1C103.2,370.3,30.7,431.2,9.3,506H502.7z" fill="#CCCCCC" id="XMLID_10_"/><path d="M278.6,506c-6.1-17-15.2-42.8-14.5-43.6h-18.8c0.8,0.8-8.6,26.6-14.9,43.6H278.6z" fill="#0F0F6D" id="XMLID_9_"/><ellipse cx="256" cy="453.4" fill="#18157C" id="XMLID_8_" rx="25.2" ry="15.3"/><g><path d="M316.1,350.2c0,0,2.1,8.4-59.8,88.2c0,0,36.5,1.9,80.1,24     C336.5,462.4,360.9,371.3,316.1,350.2z" fill="#FFFFFF" id="XMLID_7_"/><path d="M195.9,350.2c0,0-1.4,8.4,60.5,88.2c0,0-37.2,1.9-80.8,24     C175.5,462.4,151.1,371.3,195.9,350.2z" fill="#FFFFFF" id="XMLID_6_"/></g></g><g><ellipse cx="400.8" cy="175.7" fill="#F4C5A2" id="XMLID_5_" rx="32.7" ry="45.2" transform="matrix(0.9772 0.2124 -0.2124 0.9772 46.4568 -81.1159)"/><ellipse cx="111.2" cy="175.7" fill="#F4C5A2" id="XMLID_4_" rx="32.7" ry="45.2" transform="matrix(-0.9772 0.2124 -0.2124 -0.9772 257.2693 323.6764)"/><ellipse cx="256.4" cy="169.9" fill="#F4C5A2" id="XMLID_3_" rx="140.5" ry="163.9"/><path d="M390,219.8l-11.2,0.3c-17.8,27.9-48.2,26.8-48.2,26.8c-8.8,0.8-27.8-15.2-27.8-15.2    c-22.9-12.8-42.4-2.9-46.6-0.5c-4.1-2.4-23.7-12.3-46.6,0.5c0,0-19,16-27.8,15.2c0,0-30.4,1.1-48.2-26.8l-11.1-0.3    c18.1,66.1,71.2,114,133.8,114c62.3,0,115.2-47.4,133.5-112.9L390,219.8z M258.7,297c-0.8-0.1-1.6-0.2-2.4-0.3v0c0,0,0,0,0,0    c0,0,0,0,0,0v0c-0.8,0.1-1.6,0.2-2.4,0.3c-36.6-2.4-38.2-29.9-36.2-46.7c-1.4-1.9,0.8-4.3,2.8-3c8.2,5.4,20.9,11.7,35.1,11.7    c0.2,0,0.5,0,0.7,0c0.2,0,0.5,0,0.7,0c14.2,0,26.9-6.3,35.1-11.7c2-1.3,4.2,1.1,2.8,3C296.9,267,295.4,294.6,258.7,297z" fill="#3F2820"/></g></g></svg>